<svg width="240" height="240" viewBox="0 0 240 240" fill="none" xmlns="http://www.w3.org/2000/svg">
<rect width="240" height="240" rx="120" fill="#2196F3"/>
<path d="M145.378 179.663C147.136 177.905 148.123 175.52 148.123 173.034C148.123 170.549 147.136 168.164 145.378 166.406L98.9718 120L145.378 73.5938C147.086 71.8257 148.031 69.4575 148.009 66.9995C147.988 64.5414 147.002 62.19 145.264 60.4518C143.526 58.7136 141.174 57.7276 138.716 57.7063C136.258 57.6849 133.89 58.6299 132.122 60.3376L79.0874 113.372C77.3299 115.13 76.3425 117.514 76.3425 120C76.3425 122.486 77.3299 124.87 79.0874 126.628L132.122 179.663C133.88 181.42 136.264 182.407 138.75 182.407C141.236 182.407 143.62 181.42 145.378 179.663Z" fill="white"/>
</svg>
