<svg width="25" height="25" viewBox="0 0 25 25" fill="none" xmlns="http://www.w3.org/2000/svg">
<path d="M20.2774 15.125H9.08088L9.33086 16.4375H19.5829C20.1712 16.4375 20.6072 17.0241 20.4768 17.64L20.2661 18.6357C20.98 19.0079 21.4722 19.7937 21.4722 20.7031C21.4722 21.9829 20.4975 23.0182 19.3019 22.9997C18.1628 22.9822 17.226 21.9895 17.1952 20.7666C17.1784 20.0985 17.4277 19.4931 17.837 19.0625H9.82964C10.226 19.4794 10.4722 20.0602 10.4722 20.7031C10.4722 22.0079 9.459 23.0587 8.23136 22.9975C7.14129 22.9431 6.25475 21.9973 6.19746 20.827C6.15323 19.9233 6.59606 19.1267 7.26886 18.7112L4.58581 4.625H1.91667C1.4104 4.625 1 4.18429 1 3.64062V2.98437C1 2.44071 1.4104 2 1.91667 2H5.83271C6.26816 2 6.6435 2.32899 6.73077 2.78709L7.08086 4.625H22.083C22.6712 4.625 23.1072 5.21156 22.9768 5.82754L21.1713 14.3588C21.0764 14.807 20.7054 15.125 20.2774 15.125ZM16.5833 8.89062H14.75V7.25C14.75 6.88754 14.4764 6.59375 14.1389 6.59375H13.5278C13.1903 6.59375 12.9167 6.88754 12.9167 7.25V8.89062H11.0833C10.7458 8.89062 10.4722 9.18442 10.4722 9.54687V10.2031C10.4722 10.5656 10.7458 10.8594 11.0833 10.8594H12.9167V12.5C12.9167 12.8625 13.1903 13.1562 13.5278 13.1562H14.1389C14.4764 13.1562 14.75 12.8625 14.75 12.5V10.8594H16.5833C16.9209 10.8594 17.1944 10.5656 17.1944 10.2031V9.54687C17.1944 9.18442 16.9209 8.89062 16.5833 8.89062Z" fill="#ECECEC"/>
</svg>
