<svg width="40" height="40" viewBox="0 0 40 40" fill="none" xmlns="http://www.w3.org/2000/svg">
<rect width="40" height="40" fill="#B3CEE2"/>
<path d="M20 18.7142C21.0172 18.7142 22.0115 18.4126 22.8572 17.8475C23.703 17.2824 24.3621 16.4791 24.7514 15.5394C25.1406 14.5997 25.2425 13.5656 25.044 12.568C24.8456 11.5704 24.3558 10.654 23.6365 9.93478C22.9173 9.21554 22.0009 8.72573 21.0033 8.52729C20.0057 8.32885 18.9716 8.4307 18.0319 8.81995C17.0922 9.2092 16.289 9.86837 15.7239 10.7141C15.1588 11.5598 14.8571 12.5542 14.8571 13.5713C14.8571 14.9353 15.399 16.2434 16.3635 17.2079C17.3279 18.1723 18.636 18.7142 20 18.7142ZM27.7143 31.5713C28.0553 31.5713 28.3823 31.4359 28.6234 31.1948C28.8645 30.9536 29 30.6266 29 30.2856C29 27.8987 28.0518 25.6095 26.364 23.9217C24.6761 22.2338 22.3869 21.2856 20 21.2856C17.6131 21.2856 15.3239 22.2338 13.636 23.9217C11.9482 25.6095 11 27.8987 11 30.2856C11 30.6266 11.1355 30.9536 11.3766 31.1948C11.6177 31.4359 11.9447 31.5713 12.2857 31.5713H27.7143Z" fill="black"/>
</svg>
