<svg width="40" height="40" viewBox="0 0 40 40" fill="none" xmlns="http://www.w3.org/2000/svg">
<path d="M37.793 0H2.20701C0.988113 0 0 0.988113 0 2.20701V37.793C0 39.0119 0.988113 40 2.20701 40H37.793C39.0119 40 40 39.0119 40 37.793V2.20701C40 0.988113 39.0119 0 37.793 0Z" fill="#3D5A98"/>
<path d="M27.5961 39.9966V24.5069H32.7943L33.5716 18.4706H27.5961V14.6176C27.5961 12.8703 28.0828 11.6772 30.5873 11.6772H33.7845V6.26949C32.2363 6.10813 30.6804 6.03141 29.1238 6.03966C24.5205 6.03966 21.3502 8.8449 21.3502 14.0194V18.4706H16.1521V24.5069H21.3502V39.9966H27.5961Z" fill="white"/>
</svg>
