<svg width="40" height="40" viewBox="0 0 40 40" fill="none" xmlns="http://www.w3.org/2000/svg">
<rect x="0.5" y="0.5" width="39" height="39" rx="19.5" fill="white"/>
<path d="M12.5625 17.3751C12.4465 17.3751 12.3352 17.4211 12.2531 17.5032C12.1711 17.5852 12.125 17.6965 12.125 17.8126V29.1876C12.125 29.4291 12.321 29.6251 12.5625 29.6251H27.4375C27.5535 29.6251 27.6648 29.579 27.7469 29.4969C27.8289 29.4149 27.875 29.3036 27.875 29.1876V17.8126C27.875 17.6965 27.8289 17.5852 27.7469 17.5032C27.6648 17.4211 27.5535 17.3751 27.4375 17.3751H25.6875C25.3394 17.3751 25.0056 17.2368 24.7594 16.9906C24.5133 16.7445 24.375 16.4107 24.375 16.0626C24.375 15.7145 24.5133 15.3806 24.7594 15.1345C25.0056 14.8883 25.3394 14.7501 25.6875 14.7501H27.4375C29.128 14.7501 30.5 16.1221 30.5 17.8126V29.1876C30.5 29.9998 30.1773 30.7787 29.603 31.3531C29.0287 31.9274 28.2497 32.2501 27.4375 32.2501H12.5625C11.7503 32.2501 10.9713 31.9274 10.397 31.3531C9.82266 30.7787 9.5 29.9998 9.5 29.1876V17.8126C9.5 16.1221 10.872 14.7501 12.5625 14.7501H14.3125C14.6606 14.7501 14.9944 14.8883 15.2406 15.1345C15.4867 15.3806 15.625 15.7145 15.625 16.0626C15.625 16.4107 15.4867 16.7445 15.2406 16.9906C14.9944 17.2368 14.6606 17.3751 14.3125 17.3751H12.5625ZM19.6903 6.30981C19.7309 6.26906 19.7792 6.23674 19.8323 6.21468C19.8855 6.19263 19.9425 6.18127 20 6.18127C20.0575 6.18127 20.1145 6.19263 20.1677 6.21468C20.2208 6.23674 20.2691 6.26906 20.3097 6.30981L25.3778 11.3778C25.4391 11.439 25.4809 11.517 25.4978 11.602C25.5148 11.687 25.5061 11.775 25.4729 11.8551C25.4398 11.9351 25.3836 12.0035 25.3115 12.0516C25.2394 12.0996 25.1546 12.1252 25.068 12.1251H21.3125V22.1876C21.3125 22.5357 21.1742 22.8695 20.9281 23.1156C20.6819 23.3618 20.3481 23.5001 20 23.5001C19.6519 23.5001 19.3181 23.3618 19.0719 23.1156C18.8258 22.8695 18.6875 22.5357 18.6875 22.1876V12.1251H14.932C14.8454 12.1252 14.7606 12.0996 14.6885 12.0516C14.6164 12.0035 14.5602 11.9351 14.5271 11.8551C14.4939 11.775 14.4852 11.687 14.5022 11.602C14.5191 11.517 14.5609 11.439 14.6223 11.3778L19.6903 6.30981Z" fill="#F29C50"/>
<rect x="0.5" y="0.5" width="39" height="39" rx="19.5" stroke="#F29C50"/>
</svg>
