<svg width="24" height="24" viewBox="0 0 24 24" fill="none" xmlns="http://www.w3.org/2000/svg">
<path d="M20.125 21H3.87504C2.83944 21 2 20.1366 2 19.0715V4.92853C2 3.86342 2.83944 3 3.87504 3H20.125C21.1606 3 22 3.86342 22 4.92853V19.0715C22 20.1366 21.1606 21 20.125 21ZM7 6.53573C6.13704 6.53573 5.43752 7.25524 5.43752 8.14286C5.43752 9.03047 6.13704 9.74998 7 9.74998C7.86296 9.74998 8.56248 9.03047 8.56248 8.14286C8.56248 7.25524 7.86296 6.53573 7 6.53573ZM7 10.3929C6.13704 10.3929 5.43752 11.1124 5.43752 12C5.43752 12.8876 6.13704 13.6071 7 13.6071C7.86296 13.6071 8.56248 12.8876 8.56248 12C8.56248 11.1124 7.86296 10.3929 7 10.3929ZM7 14.25C6.13704 14.25 5.43752 14.9695 5.43752 15.8571C5.43752 16.7448 6.13704 17.4643 7 17.4643C7.86296 17.4643 8.56248 16.7448 8.56248 15.8571C8.56248 14.9695 7.86296 14.25 7 14.25ZM18.25 8.78576V7.49996C18.25 7.23376 18.0401 7.01784 17.7813 7.01784H9.96872C9.70992 7.01784 9.5 7.23376 9.5 7.49996V8.78576C9.5 9.05195 9.70992 9.26787 9.96872 9.26787H17.7813C18.0401 9.26787 18.25 9.05195 18.25 8.78576ZM18.25 12.6428V11.3572C18.25 11.0909 18.0401 10.875 17.7813 10.875H9.96872C9.70992 10.875 9.5 11.0909 9.5 11.3572V12.6428C9.5 12.9091 9.70992 13.125 9.96872 13.125H17.7813C18.0401 13.125 18.25 12.9091 18.25 12.6428ZM18.25 16.5V15.2142C18.25 14.948 18.0401 14.7321 17.7813 14.7321H9.96872C9.70992 14.7321 9.5 14.948 9.5 15.2142V16.5C9.5 16.7662 9.70992 16.9822 9.96872 16.9822H17.7813C18.0401 16.9822 18.25 16.7662 18.25 16.5Z" fill="black"/>
</svg>