<svg width="24" height="24" viewBox="0 0 24 24" fill="none" xmlns="http://www.w3.org/2000/svg">
<path d="M12.5 13.5625C15.1396 13.5625 17.2812 11.4209 17.2812 8.78125C17.2812 6.1416 15.1396 4 12.5 4C9.86035 4 7.71875 6.1416 7.71875 8.78125C7.71875 11.4209 9.86035 13.5625 12.5 13.5625ZM16.75 14.625H14.9205C14.1834 14.9637 13.3633 15.1562 12.5 15.1562C11.6367 15.1562 10.8199 14.9637 10.0795 14.625H8.25C5.90254 14.625 4 16.5275 4 18.875V19.4062C4 20.2861 4.71387 21 5.59375 21H19.4062C20.2861 21 21 20.2861 21 19.4062V18.875C21 16.5275 19.0975 14.625 16.75 14.625Z" fill="#012840"/>
</svg>
