<svg width="93" height="90" viewBox="0 0 93 90" fill="none" xmlns="http://www.w3.org/2000/svg">
<path d="M83.5216 44.0897C83.5772 43.3428 87.6301 14.7173 87.6301 14.7173L83.7849 15.9246C81.5027 16.5157 81.0076 15.0955 80.5771 13.8154C79.9115 12.2619 74.4988 0.217817 74.4988 0.217817C74.4988 0.217817 68.2264 8.40534 66.9672 10.1867C66.0954 11.6072 65.0168 11.1638 63.9244 10.7044C62.832 10.2449 57.0381 7.56164 57.0381 7.56164C57.0381 7.56164 56.8778 24.4515 56.8083 25.1824C56.2404 27.768 53.5827 27.9546 52.6015 26.0013C51.219 24.3928 39.1141 1.34818 39.1141 1.34818C39.1141 1.34818 36.6892 8.29853 35.7756 10.482C35.2633 12.3207 34.4448 13.0241 32.26 12.1052C30.4047 11.6023 14.3756 5.15864 14.3756 5.15864C14.3756 5.15864 18.3527 21.9604 18.5871 23.8564C19.1672 26.1546 18.3648 26.8442 16.4539 27.0881C14.1579 27.6631 6.92205 29.0158 6.92205 29.0158C6.92205 29.0158 27.8854 44.447 29.2678 46.0555C31.0515 47.3192 30.4835 49.9049 27.8258 50.0915C27.079 50.0342 10.3708 47.6701 10.3708 47.6701C10.3708 47.6701 12.1389 53.7854 12.4289 54.9345C12.7189 56.0835 12.9951 57.2165 11.4598 57.8649C9.49332 58.8558 0.472067 63.8125 0.472067 63.8125C0.472067 63.8125 11.5497 70.9879 13.0016 71.8656C14.2162 72.4997 15.532 73.1866 14.6047 75.354L12.8469 78.9902C12.8469 78.9902 41.7403 79.2997 42.5032 79.3432C44.0128 79.4441 45.1448 79.1704 46.4321 82.259C47.6873 85.3752 49.6637 89.2979 49.6637 89.2979C49.6637 89.2979 62.1626 72.9344 63.4378 71.1392C64.7095 69.7945 66.7202 69.0173 68.1026 70.6258C69.4851 72.2344 82.7659 89.5699 82.7659 89.5699L87.5802 85.4322C87.5802 85.4322 72.4517 69.7126 71.0554 68.088C69.6592 66.4634 70.7275 64.6223 72.2802 63.5396C74.2306 62.5625 92.2869 52.6652 92.2869 52.6652C92.2869 52.6652 88.7058 50.1217 85.8297 48.3985C82.9536 46.6754 83.4104 45.5836 83.5216 44.0897Z" fill="#000"/>
</svg>
