<svg width="82" height="82" viewBox="0 0 82 82" fill="none" xmlns="http://www.w3.org/2000/svg">
<path d="M59.5905 23.5506C62.3265 23.1631 68.4888 22.0974 70.2806 20.3053C72.605 17.9803 72.5687 14.178 70.1958 11.8046C67.8229 9.43116 63.9973 9.39483 61.6849 11.7198C59.8931 13.512 58.8398 19.6756 58.4403 22.4123C58.3435 23.0783 58.9125 23.6474 59.5905 23.5506ZM22.399 58.4494C19.6629 58.8369 13.5007 59.9026 11.7089 61.6947C9.39654 64.0076 9.43286 67.822 11.8057 70.1954C14.1786 72.5688 17.9801 72.6052 20.3046 70.2802C22.0964 68.488 23.1496 62.3244 23.5491 59.5877C23.646 58.9217 23.077 58.3526 22.399 58.4494ZM60.1353 27.3892C56.1401 27.8615 54.2514 24.3498 54.6025 21.8553C55.0142 18.949 55.4984 16.7573 55.9948 15.0135C44.5178 8.37765 29.5903 9.93975 19.7598 19.7604C9.94134 29.581 8.37959 44.5117 15.014 56.0034C16.7573 55.5069 18.9365 55.0346 21.8542 54.6108C25.8736 54.1385 27.738 57.6623 27.3869 60.1447C26.9753 63.051 26.491 65.2427 25.9947 66.9865C37.4717 73.6223 52.3991 72.0603 62.2297 62.2396C72.0602 52.419 73.6099 37.4883 66.9755 25.9966C65.2321 26.4931 63.0408 26.9654 60.1353 27.3892ZM40.9584 22.8361C41.3579 21.2377 43.6703 21.4435 43.8156 23.0541L44.3967 29.3872L50.7284 29.9685C52.3507 30.1138 52.5323 32.4266 50.9464 32.8262L39.9899 35.5629C38.9124 35.8293 37.9681 34.8485 38.2344 33.8071L40.9584 22.8361ZM29.9535 50.7237L29.3724 44.3906L23.0407 43.8094C21.4184 43.664 21.2368 41.3512 22.8227 40.9516L33.7792 38.2149C34.8446 37.9485 35.801 38.9172 35.5347 39.9707L32.7986 50.9296C32.4233 52.528 30.1109 52.3464 29.9535 50.7237ZM56.0674 56.076C52.5202 59.624 46.9027 62.1791 41.939 62.1791C39.6509 62.1791 37.508 61.6342 35.7647 60.399C34.5782 59.5635 34.7114 57.7592 36.0068 57.1053C39.433 55.3374 43.7429 51.971 47.8471 47.866C51.9512 43.7609 55.3168 39.4379 57.0844 36.0231C57.7381 34.7516 59.5299 34.5821 60.3895 35.7809C64.2999 41.2664 61.2491 50.8812 56.0674 56.076Z" fill="black"/>
</svg>