<?xml version="1.0" encoding="UTF-8" standalone="no"?>
<!-- Generator: Adobe Illustrator 12.0.0, SVG Export Plug-In . SVG Version: 6.00 Build 51448)  -->

<svg
   xmlns:dc="http://purl.org/dc/elements/1.1/"
   xmlns:cc="http://creativecommons.org/ns#"
   xmlns:rdf="http://www.w3.org/1999/02/22-rdf-syntax-ns#"
   xmlns:svg="http://www.w3.org/2000/svg"
   xmlns="http://www.w3.org/2000/svg"
   xmlns:sodipodi="http://sodipodi.sourceforge.net/DTD/sodipodi-0.dtd"
   xmlns:inkscape="http://www.inkscape.org/namespaces/inkscape"
   version="1.1"
   id="レイヤー_1"
   width="76.620178"
   height="74.999588"
   viewBox="0 0 76.620177 74.999588"
   overflow="visible"
   enable-background="new 0 0 89.275 88.207"
   xml:space="preserve"
   sodipodi:docname="Hot_springs_001.svg"
   style="overflow:visible"
   inkscape:version="0.92.1 r15371"><metadata
     id="metadata4498"><rdf:RDF><cc:Work
         rdf:about=""><dc:format>image/svg+xml</dc:format><dc:type
           rdf:resource="http://purl.org/dc/dcmitype/StillImage" /><dc:title></dc:title></cc:Work></rdf:RDF></metadata><defs
     id="defs4496" /><sodipodi:namedview
     pagecolor="#ffffff"
     bordercolor="#666666"
     borderopacity="1"
     objecttolerance="10"
     gridtolerance="10"
     guidetolerance="10"
     inkscape:pageopacity="0"
     inkscape:pageshadow="2"
     inkscape:window-width="1920"
     inkscape:window-height="1017"
     id="namedview4494"
     showgrid="false"
     fit-margin-top="0"
     fit-margin-left="0"
     fit-margin-right="0"
     fit-margin-bottom="0"
     inkscape:zoom="4"
     inkscape:cx="-1.6751968"
     inkscape:cy="23.460649"
     inkscape:window-x="-8"
     inkscape:window-y="-8"
     inkscape:window-maximized="1"
     inkscape:current-layer="レイヤー_1" /><g
     id="g4527"
     transform="matrix(0.98859564,0,0,0.98859564,-5.9726689,-6.2864797)"><path
       sodipodi:nodetypes="sssssssss"
       inkscape:connector-curvature="0"
       id="path4485"
       d="m 46.5,6.359 c 2.003944,0 -0.251228,6.139338 -0.830957,9.965472 -1.788109,11.801274 4.172581,18.264562 5.009957,27.423528 0.430624,4.710034 -0.990716,9.416582 -2.656169,13.534208 -1.230547,3.042375 -3.744297,8.109412 -5.76581,7.567749 C 40.487007,64.375683 42.501937,59.737991 42.869,57.236 43.301937,54.284991 44.344179,52.926191 44.104491,46.993004 43.738856,37.94216 38.677055,31.021558 39,21.297424 39.199719,15.283735 42.020313,6.359 46.5,6.359 Z" /><path
       sodipodi:nodetypes="ssssssssss"
       inkscape:connector-curvature="0"
       id="path4487"
       d="m 31.910013,12.865805 c -0.582762,4.815446 -2.3864,6.675489 -2.298974,12.04361 C 29.725043,31.909516 36.26192,38.967626 35.532,47.77 35.308281,50.467903 34.710235,53.420349 33.198581,56.613498 31.3602,60.49681 29.159692,62.11821 27.752872,61.741253 26.181206,61.320126 27.631344,58.351236 28.743251,54.708251 29.617033,51.845447 30.040298,46.688173 29.142,43.039 28.323298,39.713173 26.135435,37.048191 25.119,34.047 22.438435,26.132191 24.780056,18.826175 29.142,12.749 c 1.203788,-1.677149 2.935987,-1.27119 2.768013,0.116805 z" /><path
       sodipodi:nodetypes="sssssssss"
       inkscape:connector-curvature="0"
       id="path4489"
       d="M 61.335283,12.552728 C 62.015351,16.453244 59.671445,19.852005 59.623,24.343 59.52344,33.572005 65.702318,41.155471 65.020585,48.681197 64.621277,53.089196 60.688578,62.753317 58.251,61.971 c -2.242423,-0.719684 -0.06577,-6.099137 0.236,-7.81 0.575225,-3.261137 1.312055,-5.736119 0.71,-9.229 -1.196858,-6.943689 -5.242079,-11.304053 -4.82,-19.877 0.226921,-4.609053 2.589767,-9.578042 4.615904,-12.223315 0.600179,-0.783579 2.141524,-1.430959 2.342379,-0.278957 z" /></g><path
     style="color:#000000;font-style:normal;font-variant:normal;font-weight:normal;font-stretch:normal;font-size:medium;line-height:normal;font-family:sans-serif;font-variant-ligatures:normal;font-variant-position:normal;font-variant-caps:normal;font-variant-numeric:normal;font-variant-alternates:normal;font-feature-settings:normal;text-indent:0;text-align:start;text-decoration:none;text-decoration-line:none;text-decoration-style:solid;text-decoration-color:#000000;letter-spacing:normal;word-spacing:normal;text-transform:none;writing-mode:lr-tb;direction:ltr;text-orientation:mixed;dominant-baseline:auto;baseline-shift:baseline;text-anchor:start;white-space:normal;shape-padding:0;clip-rule:nonzero;display:inline;overflow:visible;visibility:visible;opacity:1;isolation:auto;mix-blend-mode:normal;color-interpolation:sRGB;color-interpolation-filters:linearRGB;solid-color:#000000;solid-opacity:1;vector-effect:none;fill:#000000;fill-opacity:1;fill-rule:nonzero;stroke:none;stroke-width:5.5496254;stroke-linecap:round;stroke-linejoin:round;stroke-miterlimit:4;stroke-dasharray:none;stroke-dashoffset:0;stroke-opacity:1;color-rendering:auto;image-rendering:auto;shape-rendering:auto;text-rendering:auto;enable-background:accumulate"
     d="M 11.741504,38.50644 C 11.201939,38.42581 10.195399,38.721628 8.3316211,39.709363 1.3848126,43.397378 0,50.494091 0,53.358547 c 0,6.621821 4.9356468,12.102477 11.882456,15.790492 4.730771,2.511547 10.540584,4.314034 16.989557,5.209434 0.0057,8.01e-4 0.01166,0.0012 0.01738,0.002 0.711662,0.09861 1.430095,0.18638 2.156761,0.26259 0.154829,0.01628 0.31179,0.02724 0.467266,0.04248 0.574478,0.05619 1.152861,0.106739 1.735834,0.148675 0.188052,0.01358 0.376844,0.02461 0.56574,0.03669 0.53481,0.03406 1.072905,0.06307 1.614191,0.08496 0.229048,0.0093 0.457223,0.01993 0.687383,0.02703 0.726241,0.02227 1.456897,0.03669 2.193447,0.03669 0.654565,0 1.30562,-0.0094 1.95209,-0.02703 0.0013,-4e-5 0.0026,2.9e-5 0.0039,0 0.637042,-0.01739 1.269549,-0.04308 1.898026,-0.07724 0.0084,-4.55e-4 0.01668,-0.0015 0.0251,-0.0019 0.08628,-0.0047 0.170699,-0.01232 0.256804,-0.01738 0.550121,-0.03215 1.098276,-0.06913 1.641223,-0.113916 0.628351,-0.05183 1.251002,-0.113056 1.869063,-0.181506 0.618583,-0.0685 1.230625,-0.144958 1.83817,-0.22977 0.606356,-0.08464 1.20685,-0.177492 1.801484,-0.278042 6.28e-4,-9.9e-5 0.0013,1.09e-4 0.002,0 0.0033,-5.54e-4 0.0064,-0.0014 0.0097,-0.0019 0.592083,-0.100234 1.177341,-0.208713 1.757074,-0.324388 0.582838,-0.116289 1.158484,-0.241089 1.728112,-0.372651 4.324806,-0.998858 8.262264,-2.428841 11.644962,-4.224705 6.946809,-3.688015 11.882456,-9.16867 11.882456,-15.790492 0,-2.864456 -1.386743,-9.961168 -8.333552,-13.649184 -1.863778,-0.987734 -2.868388,-1.283557 -3.407952,-1.202923 -0.539565,0.08063 -0.614011,0.537589 -0.614011,1.052311 0,1.233797 1.737584,3.230671 3.434984,4.885056 2.269286,2.211775 3.371265,5.117633 3.371265,8.91474 0,3.797117 -3.019845,7.750175 -8.934046,10.889994 -2.56639,1.362483 -5.640894,2.504785 -9.044106,3.380918 -0.0051,0.0013 -0.01031,0.0026 -0.01545,0.0039 -0.99917,0.256985 -2.031172,0.485776 -3.0855,0.693173 -0.177109,0.03454 -0.352388,0.07123 -0.530983,0.104268 -0.521111,0.09737 -1.046358,0.191728 -1.579436,0.276114 -0.0039,6.13e-4 -0.0077,0.0013 -0.01159,0.0019 -0.706795,0.110258 -1.424568,0.209097 -2.150968,0.295422 -0.356445,0.04308 -0.716536,0.08071 -1.077415,0.117781 -0.864215,0.08714 -1.7349,0.164601 -2.622096,0.216255 -0.198833,0.01183 -0.400558,0.01706 -0.600494,0.02703 -1.024589,0.04991 -2.058981,0.08496 -3.10867,0.08496 -1.009912,0 -2.00413,-0.03486 -2.990888,-0.08109 -0.412581,-0.02018 -0.82205,-0.04527 -1.229952,-0.07337 -0.488292,-0.03247 -0.96878,-0.07637 -1.450069,-0.119709 C 31.359339,69.05784 30.097954,68.91306 28.87216,68.724396 23.290926,67.865526 18.334076,66.292937 14.483381,64.24862 8.5691796,61.108801 5.5493343,57.155743 5.5493343,53.358626 c 0,-3.797107 1.1019807,-6.702965 3.3712654,-8.91474 1.6974003,-1.654385 3.4330533,-3.65126 3.4330533,-4.885057 0,-0.514722 -0.07251,-0.971676 -0.61208,-1.05231 z"
     id="path4505"
     inkscape:connector-curvature="0" /></svg>