<svg width="40" height="40" viewBox="0 0 40 40" fill="none" xmlns="http://www.w3.org/2000/svg">
<rect x="0.5" y="0.5" width="39" height="39" rx="19.5" fill="white"/>
<mask id="mask0_46_2904" style="mask-type:luminance" maskUnits="userSpaceOnUse" x="7" y="8" width="26" height="24">
<path d="M8.44358 18.9343C8.4296 18.7732 8.44925 18.611 8.50129 18.4579C8.55333 18.3048 8.63662 18.1642 8.74588 18.045C8.85514 17.9259 8.98798 17.8307 9.13598 17.7656C9.28397 17.7004 9.44389 17.6668 9.60558 17.6667H11.8333C12.1428 17.6667 12.4395 17.7897 12.6583 18.0085C12.8771 18.2272 13 18.524 13 18.8334V29.9167C13 30.2262 12.8771 30.5229 12.6583 30.7417C12.4395 30.9605 12.1428 31.0834 11.8333 31.0834H10.5698C10.2778 31.0835 9.99642 30.9741 9.78118 30.7767C9.56593 30.5794 9.43251 30.3086 9.40725 30.0177L8.44358 18.9343ZM16.5 18.4688C16.5 17.9812 16.8033 17.5448 17.2437 17.3372C18.2057 16.8833 19.8442 15.9716 20.5833 14.739C21.5359 13.15 21.7156 10.2794 21.7447 9.62199C21.7488 9.52983 21.7465 9.43766 21.7587 9.34666C21.9168 8.20741 24.1154 9.53799 24.9583 10.945C25.4163 11.708 25.4746 12.7107 25.4268 13.4942C25.3748 14.3318 25.1292 15.1409 24.8883 15.9447L24.375 17.658H30.7083C30.8885 17.658 31.0663 17.6997 31.2277 17.78C31.3891 17.8602 31.5297 17.9768 31.6385 18.1205C31.7473 18.2642 31.8213 18.4312 31.8548 18.6083C31.8882 18.7855 31.8801 18.9679 31.8312 19.1414L28.6987 30.2341C28.6295 30.4787 28.4823 30.6941 28.2795 30.8474C28.0767 31.0007 27.8294 31.0836 27.5752 31.0834H17.6667C17.3572 31.0834 17.0605 30.9605 16.8417 30.7417C16.6229 30.5229 16.5 30.2262 16.5 29.9167V18.4688Z" fill="white" stroke="white" stroke-width="1.71045" stroke-linecap="round" stroke-linejoin="round"/>
</mask>
<g mask="url(#mask0_46_2904)">
<path d="M6 6.00012H34V34.0001H6V6.00012Z" fill="#F29C50"/>
</g>
<rect x="0.5" y="0.5" width="39" height="39" rx="19.5" stroke="#F29C50"/>
</svg>
