<svg width="41" height="40" viewBox="0 0 41 40" fill="none" xmlns="http://www.w3.org/2000/svg">
<rect x="1" y="0.5" width="39" height="39" rx="19.5" fill="white"/>
<path d="M28.5623 9.5H12.229C11.3007 9.5 10.4105 9.86875 9.75413 10.5251C9.09775 11.1815 8.729 12.0717 8.729 13V30.5C8.72936 30.7067 8.78464 30.9097 8.88919 31.088C8.99373 31.2663 9.14379 31.4137 9.324 31.515C9.49837 31.6138 9.69525 31.6661 9.89567 31.6667C10.1051 31.6666 10.3106 31.6102 10.4907 31.5033L15.729 28.33C15.9226 28.2147 16.1455 28.158 16.3707 28.1667H28.5623C29.4906 28.1667 30.3808 27.7979 31.0372 27.1415C31.6936 26.4852 32.0623 25.5949 32.0623 24.6667V13C32.0623 12.0717 31.6936 11.1815 31.0372 10.5251C30.3808 9.86875 29.4906 9.5 28.5623 9.5ZM15.729 20C15.4983 20 15.2727 19.9316 15.0808 19.8034C14.889 19.6752 14.7394 19.493 14.6511 19.2798C14.5628 19.0666 14.5397 18.832 14.5848 18.6057C14.6298 18.3794 14.7409 18.1715 14.904 18.0084C15.0672 17.8452 15.2751 17.7341 15.5014 17.6891C15.7277 17.6441 15.9623 17.6672 16.1755 17.7555C16.3886 17.8438 16.5709 17.9933 16.6991 18.1852C16.8272 18.377 16.8957 18.6026 16.8957 18.8333C16.8957 19.1428 16.7728 19.4395 16.554 19.6583C16.3352 19.8771 16.0384 20 15.729 20ZM20.3957 20C20.1649 20 19.9394 19.9316 19.7475 19.8034C19.5556 19.6752 19.4061 19.493 19.3178 19.2798C19.2295 19.0666 19.2064 18.832 19.2514 18.6057C19.2964 18.3794 19.4076 18.1715 19.5707 18.0084C19.7339 17.8452 19.9418 17.7341 20.1681 17.6891C20.3944 17.6441 20.629 17.6672 20.8421 17.7555C21.0553 17.8438 21.2375 17.9933 21.3657 18.1852C21.4939 18.377 21.5623 18.6026 21.5623 18.8333C21.5623 19.1428 21.4394 19.4395 21.2206 19.6583C21.0018 19.8771 20.7051 20 20.3957 20ZM25.0623 20C24.8316 20 24.606 19.9316 24.4142 19.8034C24.2223 19.6752 24.0728 19.493 23.9845 19.2798C23.8962 19.0666 23.8731 18.832 23.9181 18.6057C23.9631 18.3794 24.0742 18.1715 24.2374 18.0084C24.4005 17.8452 24.6084 17.7341 24.8347 17.6891C25.061 17.6441 25.2956 17.6672 25.5088 17.7555C25.722 17.8438 25.9042 17.9933 26.0324 18.1852C26.1606 18.377 26.229 18.6026 26.229 18.8333C26.229 19.1428 26.1061 19.4395 25.8873 19.6583C25.6685 19.8771 25.3718 20 25.0623 20Z" fill="#F29C50"/>
<rect x="1" y="0.5" width="39" height="39" rx="19.5" stroke="#F29C50"/>
</svg>
