<svg width="40" height="40" viewBox="0 0 40 40" fill="none" xmlns="http://www.w3.org/2000/svg">
<g id="tabler:dots">
<path id="Vector" d="M6.66675 19.9999C6.66675 20.4419 6.84234 20.8659 7.1549 21.1784C7.46746 21.491 7.89139 21.6666 8.33341 21.6666C8.77544 21.6666 9.19937 21.491 9.51193 21.1784C9.82449 20.8659 10.0001 20.4419 10.0001 19.9999C10.0001 19.5579 9.82449 19.134 9.51193 18.8214C9.19937 18.5088 8.77544 18.3333 8.33341 18.3333C7.89139 18.3333 7.46746 18.5088 7.1549 18.8214C6.84234 19.134 6.66675 19.5579 6.66675 19.9999ZM18.3334 19.9999C18.3334 20.4419 18.509 20.8659 18.8216 21.1784C19.1341 21.491 19.5581 21.6666 20.0001 21.6666C20.4421 21.6666 20.866 21.491 21.1786 21.1784C21.4912 20.8659 21.6667 20.4419 21.6667 19.9999C21.6667 19.5579 21.4912 19.134 21.1786 18.8214C20.866 18.5088 20.4421 18.3333 20.0001 18.3333C19.5581 18.3333 19.1341 18.5088 18.8216 18.8214C18.509 19.134 18.3334 19.5579 18.3334 19.9999ZM30.0001 19.9999C30.0001 20.4419 30.1757 20.8659 30.4882 21.1784C30.8008 21.491 31.2247 21.6666 31.6667 21.6666C32.1088 21.6666 32.5327 21.491 32.8453 21.1784C33.1578 20.8659 33.3334 20.4419 33.3334 19.9999C33.3334 19.5579 33.1578 19.134 32.8453 18.8214C32.5327 18.5088 32.1088 18.3333 31.6667 18.3333C31.2247 18.3333 30.8008 18.5088 30.4882 18.8214C30.1757 19.134 30.0001 19.5579 30.0001 19.9999Z" stroke="#012840" stroke-width="2" stroke-linecap="round" stroke-linejoin="round"/>
</g>
</svg>
