<svg width="40" height="40" viewBox="0 0 40 40" fill="none" xmlns="http://www.w3.org/2000/svg">
<path d="M24.2946 15.375V21.7232C24.2946 21.8839 24.1696 22.0089 24.0089 22.0089H22.9911C22.8929 22.0089 22.8036 21.9554 22.7589 21.8929L19.8482 17.9643V21.7321C19.8482 21.8929 19.7232 22.0179 19.5625 22.0179H18.5446C18.3839 22.0179 18.2589 21.8929 18.2589 21.7321V15.3839C18.2589 15.2232 18.3839 15.0982 18.5446 15.0982H19.5536C19.6429 15.0982 19.7411 15.1429 19.7857 15.2232L22.6964 19.1518V15.3839C22.6964 15.2232 22.8214 15.0982 22.9821 15.0982H24C24.1607 15.0893 24.2946 15.2232 24.2946 15.375ZM16.9732 15.0893H15.9554C15.7946 15.0893 15.6696 15.2143 15.6696 15.375V21.7232C15.6696 21.8839 15.7946 22.0089 15.9554 22.0089H16.9732C17.1339 22.0089 17.2589 21.8839 17.2589 21.7232V15.375C17.2589 15.2232 17.1339 15.0893 16.9732 15.0893ZM14.5179 20.4107H11.7411V15.375C11.7411 15.2143 11.6161 15.0893 11.4554 15.0893H10.4375C10.2768 15.0893 10.1518 15.2143 10.1518 15.375V21.7232C10.1518 21.8036 10.1786 21.8661 10.2322 21.9196C10.2857 21.9643 10.3482 22 10.4286 22H14.5089C14.6696 22 14.7946 21.875 14.7946 21.7143V20.6964C14.7946 20.5446 14.6696 20.4107 14.5179 20.4107ZM29.6518 15.0893H25.5714C25.4196 15.0893 25.2857 15.2143 25.2857 15.375V21.7232C25.2857 21.875 25.4107 22.0089 25.5714 22.0089H29.6518C29.8125 22.0089 29.9375 21.8839 29.9375 21.7232V20.7054C29.9375 20.5446 29.8125 20.4196 29.6518 20.4196H26.875V19.3482H29.6518C29.8125 19.3482 29.9375 19.2232 29.9375 19.0625V18.0357C29.9375 17.875 29.8125 17.75 29.6518 17.75H26.875V16.6786H29.6518C29.8125 16.6786 29.9375 16.5536 29.9375 16.3929V15.375C29.9286 15.2232 29.8036 15.0893 29.6518 15.0893ZM40 7.29465V32.7678C39.9911 36.7678 36.7143 40.0089 32.7053 40H7.23215C3.23216 39.9911 -0.00891016 36.7053 1.84032e-05 32.7053V7.23215C0.00894697 3.23216 3.29466 -0.00891016 7.29465 1.84032e-05H32.7678C36.7678 0.00894697 40.0089 3.28573 40 7.29465ZM34.5 18.2411C34.5 11.7232 27.9643 6.41966 19.9375 6.41966C11.9107 6.41966 5.37501 11.7232 5.37501 18.2411C5.37501 24.0804 10.5536 28.9732 17.5536 29.9018C19.2589 30.2678 19.0625 30.8928 18.6786 33.1875C18.6161 33.5536 18.3839 34.625 19.9375 33.9732C21.4911 33.3214 28.3214 29.0357 31.3839 25.5179C33.4911 23.1964 34.5 20.8482 34.5 18.2411Z" fill="#3DBC25"/>
</svg>
