<svg width="40" height="40" viewBox="0 0 40 40" fill="none" xmlns="http://www.w3.org/2000/svg">
<g clip-path="url(#clip0_65_24352)">
<path d="M30.625 0H9.375C4.19733 0 0 4.19733 0 9.375V30.625C0 35.8027 4.19733 40 9.375 40H30.625C35.8027 40 40 35.8027 40 30.625V9.375C40 4.19733 35.8027 0 30.625 0Z" fill="white"/>
<path d="M30.625 0H9.375C4.19733 0 0 4.19733 0 9.375V30.625C0 35.8027 4.19733 40 9.375 40H30.625C35.8027 40 40 35.8027 40 30.625V9.375C40 4.19733 35.8027 0 30.625 0Z" fill="#1D9BF0"/>
<path d="M31.1831 14.283C31.2003 14.5309 31.2003 14.7789 31.2003 15.0292C31.2003 22.6537 25.3959 31.4472 14.7823 31.4472V31.4425C11.6469 31.447 8.57641 30.549 5.9375 28.8558C6.39344 28.9106 6.85156 28.938 7.31094 28.9391C9.90963 28.9411 12.4336 28.0695 14.4772 26.4642C13.2731 26.4414 12.1063 26.043 11.1398 25.3245C10.1732 24.6061 9.45539 23.6036 9.08656 22.4572C9.95106 22.6239 10.8423 22.5899 11.6916 22.3578C8.99969 21.8139 7.06297 19.4487 7.06297 16.7019V16.6287C7.86546 17.0757 8.76356 17.3234 9.68172 17.3509C7.14641 15.6564 6.36484 12.2834 7.89578 9.64624C9.34442 11.4289 11.1519 12.8869 13.2007 13.9255C15.2495 14.9641 17.4939 15.56 19.7881 15.6747C19.5594 14.6901 19.5932 13.6626 19.8861 12.6952C20.179 11.7277 20.7208 10.8541 21.4573 10.1617C23.7814 7.97702 27.4366 8.08906 29.6213 10.4119C30.9134 10.1567 32.1526 9.68302 33.2855 9.01109C32.8547 10.3471 31.9533 11.4812 30.7489 12.2023C31.8928 12.0676 33.0098 11.7614 34.0625 11.2941C33.2881 12.4537 32.3131 13.4658 31.1831 14.283Z" fill="white"/>
</g>
<defs>
<clipPath id="clip0_65_24352">
<rect width="40" height="40" fill="white"/>
</clipPath>
</defs>
</svg>
