<svg width="100" height="100" viewBox="0 0 100 100" fill="none" xmlns="http://www.w3.org/2000/svg">
<path d="M50.0024 31.25C39.6699 31.25 31.2515 39.668 31.2515 50C31.2515 60.332 39.6699 68.75 50.0024 68.75C60.335 68.75 68.7533 60.332 68.7533 50C68.7533 39.668 60.335 31.25 50.0024 31.25ZM98.1298 46.9727L79.6328 37.7344L86.1761 18.125C87.055 15.4688 84.5353 12.9492 81.8985 13.8477L62.2882 20.3906L53.0299 1.875C51.7799 -0.625 48.225 -0.625 46.9749 1.875L37.7362 20.3711L18.1063 13.8281C15.45 12.9492 12.9303 15.4687 13.8288 18.1055L20.3721 37.7148L1.87509 46.9727C-0.62503 48.2227 -0.62503 51.7773 1.87509 53.0273L20.3721 62.2656L13.8288 81.8945C12.9498 84.5508 15.4695 87.0703 18.1063 86.1719L37.7167 79.6289L46.9554 98.125C48.2055 100.625 51.7603 100.625 53.0104 98.125L62.2491 79.6289L81.8594 86.1719C84.5158 87.0508 87.0355 84.5312 86.137 81.8945L79.5937 62.2852L98.0907 53.0469C100.63 51.7773 100.63 48.2227 98.1298 46.9727ZM67.6791 67.6758C57.9325 77.4219 42.0724 77.4219 32.3258 67.6758C22.5792 57.9297 22.5792 42.0703 32.3258 32.3242C42.0724 22.5781 57.9325 22.5781 67.6791 32.3242C77.4256 42.0703 77.4256 57.9297 67.6791 67.6758Z" fill="#000"/>
</svg>
