<svg width="146" height="35" viewBox="0 0 146 35" fill="none" xmlns="http://www.w3.org/2000/svg">
<path d="M50.716 16.784H44.902C44.602 16.784 44.344 16.676 44.128 16.46C43.912 16.244 43.804 15.986 43.804 15.686V12.536C43.804 12.224 43.912 11.966 44.128 11.762C44.344 11.546 44.602 11.438 44.902 11.438H50.716C51.016 11.438 51.274 11.546 51.49 11.762C51.706 11.966 51.814 12.224 51.814 12.536V15.686C51.814 15.986 51.706 16.244 51.49 16.46C51.274 16.676 51.016 16.784 50.716 16.784ZM38.962 13.49C38.77 13.442 38.614 13.346 38.494 13.202C38.386 13.046 38.332 12.878 38.332 12.698C38.332 12.47 38.404 12.284 38.548 12.14C38.692 11.996 38.86 11.924 39.052 11.924C39.088 11.924 39.124 11.93 39.16 11.942C39.196 11.942 39.232 11.948 39.268 11.96C39.676 12.08 40.084 12.218 40.492 12.374C40.912 12.518 41.296 12.668 41.644 12.824C41.812 12.896 41.938 13.01 42.022 13.166C42.118 13.322 42.166 13.49 42.166 13.67C42.166 13.718 42.166 13.766 42.166 13.814C42.166 13.862 42.154 13.91 42.13 13.958C42.082 14.114 41.992 14.234 41.86 14.318C41.74 14.39 41.608 14.426 41.464 14.426C41.344 14.426 41.236 14.402 41.14 14.354C40.828 14.186 40.48 14.03 40.096 13.886C39.724 13.73 39.346 13.598 38.962 13.49ZM50.176 13.454C50.248 13.454 50.284 13.418 50.284 13.346V12.896C50.284 12.824 50.248 12.788 50.176 12.788H45.442C45.37 12.788 45.334 12.824 45.334 12.896V13.346C45.334 13.418 45.37 13.454 45.442 13.454H50.176ZM45.442 14.786C45.37 14.786 45.334 14.822 45.334 14.894V15.344C45.334 15.416 45.37 15.452 45.442 15.452H50.176C50.248 15.452 50.284 15.416 50.284 15.344V14.894C50.284 14.822 50.248 14.786 50.176 14.786H45.442ZM38.746 17.612C38.554 17.552 38.392 17.444 38.26 17.288C38.14 17.132 38.08 16.958 38.08 16.766C38.08 16.55 38.152 16.37 38.296 16.226C38.452 16.082 38.626 16.01 38.818 16.01C38.854 16.01 38.89 16.016 38.926 16.028C38.962 16.028 38.998 16.034 39.034 16.046C39.382 16.142 39.742 16.268 40.114 16.424C40.498 16.568 40.858 16.724 41.194 16.892C41.362 16.976 41.494 17.096 41.59 17.252C41.686 17.408 41.734 17.576 41.734 17.756C41.734 17.984 41.662 18.17 41.518 18.314C41.374 18.458 41.206 18.53 41.014 18.53C40.906 18.53 40.786 18.494 40.654 18.422C40.39 18.278 40.09 18.134 39.754 17.99C39.43 17.846 39.094 17.72 38.746 17.612ZM52.21 20.834H43.552C43.252 20.834 42.994 20.726 42.778 20.51C42.562 20.294 42.454 20.036 42.454 19.736V18.332C42.454 18.02 42.562 17.762 42.778 17.558C42.994 17.342 43.252 17.234 43.552 17.234H52.21C52.522 17.234 52.78 17.342 52.984 17.558C53.2 17.774 53.308 18.032 53.308 18.332V19.736C53.308 20.036 53.2 20.294 52.984 20.51C52.768 20.726 52.51 20.834 52.21 20.834ZM45.586 18.638C45.586 18.566 45.55 18.53 45.478 18.53H44.056C43.984 18.53 43.948 18.566 43.948 18.638V19.43C43.948 19.502 43.984 19.538 44.056 19.538H45.478C45.55 19.538 45.586 19.502 45.586 19.43V18.638ZM47.188 18.53C47.116 18.53 47.08 18.566 47.08 18.638V19.43C47.08 19.502 47.116 19.538 47.188 19.538H48.43C48.502 19.538 48.538 19.502 48.538 19.43V18.638C48.538 18.566 48.502 18.53 48.43 18.53H47.188ZM50.032 19.43C50.032 19.502 50.068 19.538 50.14 19.538H51.688C51.76 19.538 51.796 19.502 51.796 19.43V18.638C51.796 18.566 51.76 18.53 51.688 18.53H50.14C50.068 18.53 50.032 18.566 50.032 18.638V19.43ZM41.194 19.826C41.434 19.826 41.626 19.91 41.77 20.078C41.926 20.234 42.004 20.414 42.004 20.618C42.004 20.702 41.998 20.768 41.986 20.816C41.854 21.332 41.674 21.932 41.446 22.616C41.23 23.3 40.984 23.996 40.708 24.704C40.432 25.4 40.144 26.048 39.844 26.648C39.652 27.008 39.358 27.188 38.962 27.188C38.914 27.188 38.866 27.182 38.818 27.17C38.782 27.17 38.74 27.164 38.692 27.152C38.536 27.116 38.416 27.032 38.332 26.9C38.248 26.78 38.206 26.648 38.206 26.504C38.206 26.396 38.23 26.294 38.278 26.198C38.722 25.37 39.13 24.458 39.502 23.462C39.886 22.454 40.198 21.44 40.438 20.42C40.486 20.24 40.576 20.096 40.708 19.988C40.852 19.88 41.014 19.826 41.194 19.826ZM53.236 25.55C53.44 25.574 53.602 25.658 53.722 25.802C53.842 25.946 53.902 26.102 53.902 26.27C53.902 26.522 53.806 26.726 53.614 26.882C53.422 27.038 53.206 27.104 52.966 27.08C52.198 26.984 51.388 26.822 50.536 26.594C49.696 26.378 48.862 26.084 48.034 25.712C47.986 25.7 47.938 25.7 47.89 25.712C47.05 26.108 46.144 26.426 45.172 26.666C44.2 26.918 43.198 27.074 42.166 27.134C41.938 27.146 41.74 27.068 41.572 26.9C41.416 26.744 41.338 26.552 41.338 26.324C41.338 26.132 41.404 25.964 41.536 25.82C41.668 25.676 41.83 25.598 42.022 25.586C43.51 25.478 44.866 25.214 46.09 24.794C46.186 24.758 46.192 24.71 46.108 24.65C45.988 24.566 45.874 24.488 45.766 24.416C45.658 24.332 45.544 24.248 45.424 24.164C45.256 24.032 45.172 23.858 45.172 23.642C45.172 23.426 45.244 23.258 45.388 23.138C45.412 23.114 45.436 23.096 45.46 23.084C45.496 23.06 45.532 23.042 45.568 23.03C45.616 23.006 45.64 22.982 45.64 22.958C45.64 22.934 45.61 22.922 45.55 22.922H43.246C43.03 22.922 42.85 22.85 42.706 22.706C42.562 22.55 42.49 22.37 42.49 22.166C42.49 21.962 42.562 21.788 42.706 21.644C42.85 21.488 43.03 21.41 43.246 21.41H51.184C51.4 21.41 51.58 21.488 51.724 21.644C51.868 21.788 51.94 21.956 51.94 22.148C51.94 22.28 51.898 22.406 51.814 22.526C51.286 23.306 50.596 23.996 49.744 24.596C49.66 24.656 49.666 24.704 49.762 24.74C50.854 25.136 52.012 25.406 53.236 25.55ZM46.558 23.084C46.99 23.396 47.434 23.672 47.89 23.912C47.938 23.924 47.986 23.924 48.034 23.912C48.466 23.66 48.868 23.372 49.24 23.048C49.288 23.024 49.306 23 49.294 22.976C49.282 22.94 49.252 22.922 49.204 22.922H46.162C46.294 22.934 46.426 22.988 46.558 23.084ZM64.612 15.614C64.612 15.326 64.732 15.098 64.972 14.93C65.968 14.186 66.694 13.142 67.15 11.798C67.294 11.438 67.546 11.258 67.906 11.258C68.122 11.258 68.296 11.33 68.428 11.474C68.572 11.618 68.644 11.786 68.644 11.978C68.644 12.014 68.638 12.05 68.626 12.086C68.626 12.122 68.62 12.158 68.608 12.194C68.56 12.362 68.5 12.53 68.428 12.698C68.356 12.854 68.278 13.016 68.194 13.184C68.158 13.268 68.188 13.31 68.284 13.31H70.804C71.008 13.31 71.176 13.382 71.308 13.526C71.452 13.658 71.524 13.826 71.524 14.03C71.524 14.222 71.452 14.396 71.308 14.552C71.176 14.696 71.008 14.768 70.804 14.768H67.348C67.288 14.768 67.24 14.792 67.204 14.84C67.048 15.032 66.886 15.218 66.718 15.398C66.55 15.566 66.376 15.722 66.196 15.866C66.124 15.938 66.112 15.974 66.16 15.974C66.184 15.962 66.232 15.956 66.304 15.956H70.066C70.33 15.956 70.546 16.04 70.714 16.208C70.894 16.376 70.984 16.574 70.984 16.802C70.984 16.85 70.984 16.892 70.984 16.928C70.984 16.964 70.972 17.006 70.948 17.054C70.708 17.834 70.33 18.548 69.814 19.196C69.754 19.28 69.778 19.322 69.886 19.322H70.804C71.008 19.322 71.176 19.394 71.308 19.538C71.452 19.682 71.53 19.856 71.542 20.06C71.542 20.252 71.47 20.426 71.326 20.582C71.182 20.726 71.008 20.798 70.804 20.798H69.058C68.986 20.798 68.95 20.834 68.95 20.906V23.156C68.95 24.14 68.146 24.596 66.538 24.524C66.346 24.512 66.178 24.428 66.034 24.272C65.902 24.116 65.836 23.942 65.836 23.75C65.836 23.546 65.902 23.378 66.034 23.246C66.178 23.114 66.346 23.048 66.538 23.048C66.658 23.048 66.772 23.054 66.88 23.066C67 23.078 67.102 23.084 67.186 23.084C67.282 23.084 67.354 23.072 67.402 23.048C67.462 23.012 67.492 22.946 67.492 22.85V20.906C67.492 20.834 67.456 20.798 67.384 20.798H65.944C65.752 20.798 65.578 20.726 65.422 20.582C65.278 20.426 65.206 20.252 65.206 20.06C65.206 19.856 65.278 19.682 65.422 19.538C65.578 19.394 65.752 19.322 65.944 19.322H67.384C67.456 19.322 67.492 19.286 67.492 19.214V18.602C67.492 18.398 67.564 18.224 67.708 18.08C67.852 17.936 68.026 17.864 68.23 17.864C68.398 17.864 68.554 17.924 68.698 18.044C68.758 18.092 68.812 18.092 68.86 18.044C68.92 17.96 68.974 17.876 69.022 17.792C69.07 17.696 69.118 17.606 69.166 17.522C69.214 17.438 69.19 17.396 69.094 17.396H66.304C66.112 17.396 65.944 17.324 65.8 17.18C65.656 17.036 65.584 16.868 65.584 16.676C65.584 16.568 65.602 16.472 65.638 16.388C65.674 16.292 65.692 16.244 65.692 16.244C65.584 16.316 65.464 16.352 65.332 16.352C65.152 16.352 64.984 16.286 64.828 16.154C64.684 16.022 64.612 15.842 64.612 15.614ZM61.336 14.984C61.336 14.912 61.3 14.876 61.228 14.876H60.634C60.442 14.876 60.274 14.804 60.13 14.66C59.986 14.516 59.914 14.348 59.914 14.156C59.914 13.952 59.986 13.784 60.13 13.652C60.274 13.508 60.442 13.436 60.634 13.436H61.696C61.768 13.436 61.804 13.4 61.804 13.328V12.122C61.804 11.918 61.876 11.744 62.02 11.6C62.164 11.444 62.344 11.366 62.56 11.366C62.764 11.366 62.938 11.438 63.082 11.582C63.238 11.726 63.316 11.906 63.316 12.122V13.328C63.316 13.4 63.352 13.436 63.424 13.436H64.756C64.96 13.436 65.128 13.508 65.26 13.652C65.404 13.784 65.476 13.952 65.476 14.156C65.476 14.348 65.404 14.516 65.26 14.66C65.128 14.804 64.96 14.876 64.756 14.876H62.92C62.848 14.876 62.812 14.912 62.812 14.984V16.64C62.812 16.712 62.848 16.748 62.92 16.748H64.216C64.516 16.748 64.768 16.856 64.972 17.072C65.188 17.288 65.29 17.546 65.278 17.846C65.254 18.374 65.224 18.95 65.188 19.574C65.164 20.186 65.134 20.756 65.098 21.284C65.062 21.812 65.026 22.196 64.99 22.436C64.81 23.504 64.132 24.038 62.956 24.038C62.836 24.038 62.716 24.032 62.596 24.02C62.476 24.008 62.35 23.99 62.218 23.966C62.05 23.942 61.912 23.864 61.804 23.732C61.696 23.588 61.642 23.426 61.642 23.246C61.642 22.994 61.732 22.796 61.912 22.652C62.104 22.496 62.314 22.442 62.542 22.49C62.638 22.502 62.728 22.52 62.812 22.544C62.896 22.556 62.974 22.562 63.046 22.562C63.31 22.562 63.466 22.442 63.514 22.202C63.55 22.022 63.58 21.722 63.604 21.302C63.628 20.882 63.652 20.408 63.676 19.88C63.712 19.34 63.742 18.812 63.766 18.296C63.766 18.224 63.73 18.188 63.658 18.188H62.884C62.812 18.188 62.776 18.224 62.776 18.296C62.704 19.1 62.536 19.964 62.272 20.888C62.02 21.812 61.642 22.682 61.138 23.498C61.018 23.714 60.826 23.822 60.562 23.822C60.406 23.822 60.262 23.774 60.13 23.678C59.926 23.534 59.824 23.324 59.824 23.048C59.824 22.904 59.86 22.772 59.932 22.652C60.304 22.04 60.586 21.404 60.778 20.744C60.982 20.084 61.126 19.454 61.21 18.854C61.294 18.242 61.336 17.726 61.336 17.306V14.984ZM56.692 13.724C56.524 13.688 56.38 13.598 56.26 13.454C56.152 13.31 56.098 13.154 56.098 12.986C56.098 12.758 56.176 12.572 56.332 12.428C56.488 12.284 56.668 12.212 56.872 12.212C56.944 12.212 56.998 12.218 57.034 12.23C57.37 12.302 57.736 12.398 58.132 12.518C58.528 12.626 58.912 12.746 59.284 12.878C59.656 13.01 59.842 13.28 59.842 13.688C59.842 13.904 59.764 14.078 59.608 14.21C59.464 14.342 59.29 14.408 59.086 14.408C59.05 14.408 59.008 14.408 58.96 14.408C58.924 14.396 58.882 14.384 58.834 14.372C58.498 14.24 58.138 14.12 57.754 14.012C57.382 13.904 57.028 13.808 56.692 13.724ZM64.18 25.37H70.768C70.972 25.37 71.146 25.442 71.29 25.586C71.446 25.73 71.524 25.904 71.524 26.108C71.524 26.324 71.452 26.51 71.308 26.666C71.164 26.834 70.984 26.918 70.768 26.918H64.18C62.956 26.918 61.942 26.78 61.138 26.504C60.334 26.228 59.662 25.79 59.122 25.19C59.086 25.13 59.038 25.136 58.978 25.208C58.714 25.568 58.402 25.91 58.042 26.234C57.694 26.558 57.322 26.828 56.926 27.044C56.842 27.092 56.74 27.116 56.62 27.116C56.5 27.116 56.38 27.074 56.26 26.99C56.14 26.918 56.05 26.81 55.99 26.666C55.954 26.57 55.936 26.474 55.936 26.378C55.936 26.078 56.068 25.832 56.332 25.64C56.716 25.364 57.064 25.046 57.376 24.686C57.688 24.314 57.94 23.93 58.132 23.534C58.156 23.498 58.168 23.45 58.168 23.39V19.826C58.168 19.754 58.132 19.718 58.06 19.718H56.854C56.65 19.718 56.47 19.64 56.314 19.484C56.17 19.328 56.098 19.148 56.098 18.944C56.098 18.74 56.17 18.56 56.314 18.404C56.47 18.248 56.65 18.17 56.854 18.17H58.51C58.834 18.17 59.11 18.29 59.338 18.53C59.578 18.758 59.698 19.034 59.698 19.358V23.246C59.698 23.282 59.71 23.324 59.734 23.372C60.058 23.924 60.43 24.344 60.85 24.632C61.282 24.92 61.768 25.118 62.308 25.226C62.86 25.322 63.484 25.37 64.18 25.37ZM87.76 11.456C87.976 11.456 88.162 11.534 88.318 11.69C88.486 11.834 88.57 12.02 88.57 12.248V25.082C88.57 26.414 87.718 27.08 86.014 27.08C85.906 27.08 85.792 27.074 85.672 27.062C85.552 27.062 85.426 27.056 85.294 27.044C85.09 27.02 84.916 26.93 84.772 26.774C84.64 26.63 84.574 26.456 84.574 26.252C84.574 26.012 84.664 25.808 84.844 25.64C85.024 25.472 85.234 25.4 85.474 25.424C85.618 25.436 85.75 25.448 85.87 25.46C85.99 25.46 86.092 25.46 86.176 25.46C86.488 25.46 86.692 25.43 86.788 25.37C86.896 25.298 86.95 25.202 86.95 25.082V12.248C86.95 12.032 87.028 11.846 87.184 11.69C87.34 11.534 87.532 11.456 87.76 11.456ZM74.818 12.158H82.072C82.276 12.158 82.45 12.23 82.594 12.374C82.738 12.518 82.81 12.692 82.81 12.896C82.81 13.088 82.738 13.262 82.594 13.418C82.45 13.562 82.276 13.634 82.072 13.634H78.976C78.928 13.634 78.892 13.664 78.868 13.724C78.748 14.336 78.586 14.948 78.382 15.56C78.358 15.644 78.388 15.686 78.472 15.686H81.28C81.592 15.686 81.844 15.8 82.036 16.028C82.228 16.244 82.3 16.496 82.252 16.784C82.036 18.008 81.67 19.166 81.154 20.258C80.638 21.338 80.026 22.322 79.318 23.21C78.61 24.098 77.86 24.866 77.068 25.514C76.276 26.15 75.49 26.63 74.71 26.954C74.626 26.99 74.536 27.008 74.44 27.008C74.248 27.008 74.074 26.936 73.918 26.792C73.774 26.648 73.702 26.456 73.702 26.216C73.702 25.868 73.87 25.604 74.206 25.424C75.058 25.004 75.82 24.5 76.492 23.912C77.164 23.312 77.758 22.67 78.274 21.986C78.31 21.938 78.31 21.89 78.274 21.842C78.082 21.53 77.854 21.218 77.59 20.906C77.338 20.594 77.086 20.312 76.834 20.06C76.678 19.916 76.6 19.742 76.6 19.538C76.6 19.346 76.672 19.178 76.816 19.034C76.984 18.89 77.164 18.818 77.356 18.818C77.572 18.818 77.752 18.89 77.896 19.034C78.352 19.49 78.76 19.964 79.12 20.456C79.168 20.552 79.216 20.552 79.264 20.456C79.564 19.928 79.816 19.406 80.02 18.89C80.224 18.362 80.386 17.846 80.506 17.342C80.53 17.258 80.5 17.216 80.416 17.216H77.824C77.752 17.216 77.71 17.24 77.698 17.288C77.362 17.972 76.99 18.62 76.582 19.232C76.174 19.844 75.742 20.39 75.286 20.87C75.142 21.014 74.962 21.086 74.746 21.086C74.494 21.086 74.284 20.984 74.116 20.78C73.984 20.612 73.918 20.432 73.918 20.24C73.918 19.988 74.014 19.766 74.206 19.574C74.95 18.866 75.58 18.014 76.096 17.018C76.624 16.01 77.014 14.924 77.266 13.76V13.724C77.266 13.664 77.23 13.634 77.158 13.634H74.818C74.626 13.634 74.458 13.562 74.314 13.418C74.17 13.274 74.098 13.1 74.098 12.896C74.098 12.692 74.17 12.518 74.314 12.374C74.458 12.23 74.626 12.158 74.818 12.158ZM84.574 14.354V23.426C84.574 23.642 84.496 23.828 84.34 23.984C84.196 24.14 84.01 24.218 83.782 24.218C83.554 24.218 83.362 24.14 83.206 23.984C83.062 23.828 82.99 23.642 82.99 23.426V14.354C82.99 14.138 83.068 13.952 83.224 13.796C83.38 13.64 83.566 13.562 83.782 13.562C84.01 13.562 84.196 13.64 84.34 13.796C84.496 13.952 84.574 14.138 84.574 14.354ZM100.234 23.336C100.234 23.408 100.27 23.444 100.342 23.444H106.282C106.486 23.444 106.66 23.522 106.804 23.678C106.96 23.822 107.038 24.002 107.038 24.218C107.038 24.422 106.96 24.602 106.804 24.758C106.66 24.914 106.486 24.992 106.282 24.992H100.342C100.27 24.992 100.234 25.028 100.234 25.1V26.36C100.234 26.576 100.156 26.762 100 26.918C99.844 27.074 99.658 27.152 99.442 27.152C99.226 27.152 99.04 27.074 98.884 26.918C98.728 26.762 98.65 26.576 98.65 26.36V25.1C98.65 25.028 98.614 24.992 98.542 24.992H92.638C92.434 24.992 92.254 24.92 92.098 24.776C91.954 24.62 91.882 24.434 91.882 24.218C91.882 24.014 91.954 23.834 92.098 23.678C92.254 23.522 92.434 23.444 92.638 23.444H98.542C98.614 23.444 98.65 23.408 98.65 23.336V22.544C98.65 22.472 98.614 22.436 98.542 22.436H95.302C94.966 22.436 94.684 22.322 94.456 22.094C94.228 21.854 94.114 21.572 94.114 21.248V16.622C94.114 16.298 94.228 16.022 94.456 15.794C94.684 15.554 94.966 15.434 95.302 15.434H98.542C98.614 15.434 98.65 15.398 98.65 15.326V14.534C98.65 14.462 98.614 14.426 98.542 14.426H92.998C92.794 14.426 92.614 14.354 92.458 14.21C92.302 14.054 92.224 13.868 92.224 13.652C92.224 13.436 92.302 13.256 92.458 13.112C92.614 12.956 92.794 12.878 92.998 12.878H98.542C98.614 12.878 98.65 12.842 98.65 12.77V12.23C98.65 12.014 98.728 11.834 98.884 11.69C99.04 11.534 99.226 11.456 99.442 11.456C99.658 11.456 99.844 11.534 100 11.69C100.156 11.834 100.234 12.014 100.234 12.23V12.77C100.234 12.842 100.27 12.878 100.342 12.878H105.922C106.126 12.878 106.306 12.956 106.462 13.112C106.618 13.256 106.696 13.436 106.696 13.652C106.696 13.856 106.618 14.036 106.462 14.192C106.318 14.348 106.138 14.426 105.922 14.426H100.342C100.27 14.426 100.234 14.462 100.234 14.534V15.326C100.234 15.398 100.27 15.434 100.342 15.434H103.618C103.942 15.434 104.218 15.554 104.446 15.794C104.686 16.022 104.806 16.298 104.806 16.622V21.248C104.806 21.572 104.692 21.854 104.464 22.094C104.236 22.322 103.954 22.436 103.618 22.436H100.342C100.27 22.436 100.234 22.472 100.234 22.544V23.336ZM98.56 18.188C98.632 18.188 98.668 18.152 98.668 18.08V17.072C98.668 17 98.632 16.964 98.56 16.964H95.77C95.698 16.964 95.662 17 95.662 17.072V18.08C95.662 18.152 95.698 18.188 95.77 18.188H98.56ZM100.216 18.08C100.216 18.152 100.252 18.188 100.324 18.188H103.15C103.222 18.188 103.258 18.152 103.258 18.08V17.072C103.258 17 103.222 16.964 103.15 16.964H100.324C100.252 16.964 100.216 17 100.216 17.072V18.08ZM98.668 19.808C98.668 19.736 98.632 19.7 98.56 19.7H95.77C95.698 19.7 95.662 19.736 95.662 19.808V20.816C95.662 20.888 95.698 20.924 95.77 20.924H98.56C98.632 20.924 98.668 20.888 98.668 20.816V19.808ZM100.324 19.7C100.252 19.7 100.216 19.736 100.216 19.808V20.816C100.216 20.888 100.252 20.924 100.324 20.924H103.15C103.222 20.924 103.258 20.888 103.258 20.816V19.808C103.258 19.736 103.222 19.7 103.15 19.7H100.324ZM118.954 25.406H124.246C124.45 25.406 124.624 25.478 124.768 25.622C124.912 25.766 124.984 25.94 124.984 26.144C124.984 26.336 124.912 26.504 124.768 26.648C124.624 26.804 124.45 26.882 124.246 26.882H118.954C117.67 26.882 116.554 26.618 115.606 26.09C114.658 25.562 113.932 24.812 113.428 23.84C113.416 23.792 113.392 23.768 113.356 23.768C113.332 23.768 113.308 23.786 113.284 23.822C112.96 24.386 112.618 24.938 112.258 25.478C111.898 26.018 111.556 26.462 111.232 26.81C111.076 26.99 110.866 27.08 110.602 27.08C110.362 27.08 110.152 27.008 109.972 26.864C109.792 26.696 109.702 26.492 109.702 26.252C109.702 26.036 109.774 25.844 109.918 25.676C111.118 24.38 112.096 22.856 112.852 21.104C112.984 20.78 113.224 20.618 113.572 20.618C113.812 20.618 114.004 20.702 114.148 20.87C114.304 21.038 114.382 21.224 114.382 21.428C114.382 21.512 114.364 21.602 114.328 21.698C114.316 21.722 114.304 21.746 114.292 21.77C114.292 21.794 114.286 21.818 114.274 21.842C114.25 21.902 114.244 21.95 114.256 21.986C114.316 22.214 114.4 22.46 114.508 22.724C114.628 22.976 114.772 23.228 114.94 23.48C114.976 23.54 115.024 23.552 115.084 23.516C115.792 23.012 116.506 22.388 117.226 21.644C117.946 20.9 118.63 20.072 119.278 19.16C119.938 18.236 120.514 17.264 121.006 16.244C121.054 16.16 121.024 16.118 120.916 16.118H111.7C111.484 16.118 111.298 16.046 111.142 15.902C110.998 15.746 110.926 15.56 110.926 15.344C110.926 15.14 111.004 14.96 111.16 14.804C111.316 14.648 111.496 14.57 111.7 14.57H116.002C116.074 14.57 116.11 14.534 116.11 14.462V12.14C116.11 11.924 116.188 11.744 116.344 11.6C116.5 11.444 116.686 11.366 116.902 11.366C117.118 11.366 117.304 11.444 117.46 11.6C117.616 11.744 117.694 11.924 117.694 12.14V14.462C117.694 14.534 117.73 14.57 117.802 14.57H122.104C122.356 14.57 122.566 14.66 122.734 14.84C122.914 15.008 123.004 15.212 123.004 15.452C123.004 15.548 122.986 15.644 122.95 15.74C122.602 16.64 122.17 17.522 121.654 18.386C121.15 19.25 120.598 20.072 119.998 20.852C119.398 21.62 118.78 22.328 118.144 22.976C117.508 23.612 116.89 24.158 116.29 24.614C116.218 24.65 116.206 24.692 116.254 24.74C116.602 24.932 116.998 25.094 117.442 25.226C117.886 25.346 118.39 25.406 118.954 25.406ZM133.444 15.596C134.608 14.528 135.382 13.292 135.766 11.888C135.814 11.708 135.91 11.564 136.054 11.456C136.198 11.336 136.354 11.276 136.522 11.276C136.762 11.276 136.954 11.354 137.098 11.51C137.254 11.666 137.332 11.846 137.332 12.05C137.332 12.134 137.326 12.2 137.314 12.248C137.278 12.404 137.23 12.56 137.17 12.716C137.11 12.872 137.044 13.034 136.972 13.202C136.936 13.286 136.966 13.328 137.062 13.328H142.048C142.264 13.328 142.444 13.406 142.588 13.562C142.744 13.718 142.822 13.898 142.822 14.102C142.822 14.306 142.744 14.486 142.588 14.642C142.444 14.798 142.264 14.876 142.048 14.876H136.18C136.12 14.876 136.072 14.9 136.036 14.948C135.808 15.296 135.556 15.632 135.28 15.956C135.004 16.28 134.71 16.574 134.398 16.838C134.278 16.946 134.128 17 133.948 17C133.708 17 133.504 16.898 133.336 16.694C133.24 16.562 133.192 16.4 133.192 16.208C133.192 16.1 133.21 15.992 133.246 15.884C133.294 15.776 133.36 15.68 133.444 15.596ZM130.636 17.324C130.636 17.396 130.672 17.432 130.744 17.432H132.13C132.454 17.432 132.73 17.546 132.958 17.774C133.186 17.99 133.3 18.26 133.3 18.584C133.3 19.064 133.294 19.604 133.282 20.204C133.27 20.792 133.252 21.38 133.228 21.968C133.204 22.556 133.174 23.084 133.138 23.552C133.114 24.02 133.084 24.368 133.048 24.596C132.94 25.46 132.7 26.078 132.328 26.45C131.956 26.822 131.38 27.008 130.6 27.008C130.528 27.008 130.45 27.008 130.366 27.008C130.294 27.008 130.21 27.002 130.114 26.99C129.91 26.978 129.736 26.888 129.592 26.72C129.46 26.564 129.394 26.384 129.394 26.18C129.394 25.964 129.478 25.784 129.646 25.64C129.814 25.496 130.006 25.43 130.222 25.442C130.318 25.454 130.408 25.466 130.492 25.478C130.576 25.478 130.654 25.478 130.726 25.478C131.038 25.478 131.236 25.406 131.32 25.262C131.404 25.118 131.476 24.824 131.536 24.38C131.572 24.14 131.602 23.732 131.626 23.156C131.65 22.58 131.674 21.926 131.698 21.194C131.722 20.45 131.74 19.73 131.752 19.034C131.752 18.962 131.716 18.926 131.644 18.926H130.726C130.654 18.926 130.618 18.962 130.618 19.034C130.558 20.006 130.444 20.966 130.276 21.914C130.108 22.85 129.91 23.732 129.682 24.56C129.454 25.376 129.22 26.084 128.98 26.684C128.908 26.852 128.794 26.99 128.638 27.098C128.482 27.206 128.308 27.26 128.116 27.26C127.912 27.26 127.744 27.194 127.612 27.062C127.48 26.942 127.414 26.798 127.414 26.63C127.414 26.546 127.432 26.462 127.468 26.378C127.852 25.394 128.152 24.452 128.368 23.552C128.596 22.652 128.764 21.83 128.872 21.086C128.98 20.33 129.046 19.682 129.07 19.142C129.106 18.602 129.124 18.206 129.124 17.954V15.344C129.124 15.272 129.088 15.236 129.016 15.236H128.206C127.99 15.236 127.804 15.158 127.648 15.002C127.504 14.846 127.432 14.666 127.432 14.462C127.432 14.246 127.51 14.066 127.666 13.922C127.822 13.766 128.002 13.688 128.206 13.688H129.7C129.772 13.688 129.808 13.652 129.808 13.58V12.104C129.808 11.888 129.88 11.702 130.024 11.546C130.18 11.39 130.366 11.312 130.582 11.312C130.81 11.312 130.996 11.39 131.14 11.546C131.296 11.702 131.374 11.888 131.374 12.104V13.58C131.374 13.652 131.41 13.688 131.482 13.688H132.94C133.156 13.688 133.336 13.766 133.48 13.922C133.636 14.078 133.714 14.258 133.714 14.462C133.714 14.666 133.636 14.846 133.48 15.002C133.336 15.158 133.156 15.236 132.94 15.236H130.744C130.672 15.236 130.636 15.272 130.636 15.344V17.324ZM142.678 24.578C142.93 24.794 143.056 25.058 143.056 25.37C143.056 25.514 143.032 25.64 142.984 25.748C142.936 25.88 142.852 25.982 142.732 26.054C142.624 26.126 142.504 26.162 142.372 26.162C142.228 26.162 142.108 26.12 142.012 26.036C141.376 25.556 140.782 24.95 140.23 24.218C139.678 23.486 139.192 22.676 138.772 21.788C138.364 20.9 138.04 19.982 137.8 19.034C137.776 18.938 137.728 18.914 137.656 18.962L137.458 19.088C137.41 19.112 137.386 19.154 137.386 19.214V26.36C137.386 26.564 137.308 26.744 137.152 26.9C136.996 27.056 136.81 27.134 136.594 27.134C136.378 27.134 136.192 27.056 136.036 26.9C135.88 26.756 135.802 26.576 135.802 26.36V19.988C135.802 19.88 135.76 19.85 135.676 19.898C135.424 20.006 135.178 20.102 134.938 20.186C134.71 20.27 134.482 20.342 134.254 20.402C134.206 20.414 134.14 20.42 134.056 20.42C133.864 20.42 133.69 20.354 133.534 20.222C133.378 20.078 133.3 19.892 133.3 19.664C133.3 19.496 133.354 19.34 133.462 19.196C133.57 19.04 133.714 18.938 133.894 18.89C134.71 18.638 135.514 18.326 136.306 17.954C137.098 17.57 137.836 17.168 138.52 16.748C139.204 16.316 139.78 15.914 140.248 15.542C140.392 15.434 140.548 15.38 140.716 15.38C140.956 15.38 141.148 15.482 141.292 15.686C141.352 15.758 141.388 15.836 141.4 15.92C141.424 16.004 141.436 16.088 141.436 16.172C141.436 16.46 141.328 16.676 141.112 16.82C140.848 17.024 140.554 17.234 140.23 17.45C139.918 17.666 139.588 17.876 139.24 18.08C139.18 18.116 139.162 18.164 139.186 18.224C139.318 18.824 139.462 19.376 139.618 19.88C139.63 19.952 139.678 19.976 139.762 19.952C140.146 19.796 140.524 19.616 140.896 19.412C141.268 19.196 141.658 18.938 142.066 18.638C142.258 18.506 142.432 18.44 142.588 18.44C142.828 18.44 143.008 18.554 143.128 18.782C143.2 18.902 143.236 19.028 143.236 19.16C143.236 19.472 143.08 19.736 142.768 19.952C142.396 20.216 141.994 20.474 141.562 20.726C141.142 20.966 140.734 21.17 140.338 21.338C140.266 21.362 140.248 21.41 140.284 21.482C140.596 22.094 140.95 22.664 141.346 23.192C141.754 23.708 142.198 24.17 142.678 24.578Z" fill="#7AACBF"/>
<g clip-path="url(#clip0_1007_8026)">
<path d="M33.0223 6.15886C33.0228 5.88174 32.9687 5.60724 32.8631 5.35104C32.7575 5.09483 32.6025 4.86193 32.4068 4.66564C32.2112 4.46934 31.9789 4.3135 31.723 4.20701C31.4672 4.10051 31.1929 4.04545 30.9158 4.04497L5.15759 4C4.88047 3.99952 4.60597 4.05362 4.34977 4.15922C4.09356 4.26482 3.86066 4.41985 3.66437 4.61546C3.46808 4.81107 3.31223 5.04343 3.20574 5.29926C3.09924 5.5551 3.04418 5.82941 3.0437 6.10652L3 31.1464C2.99952 31.4235 3.05362 31.698 3.15922 31.9542C3.26482 32.2104 3.41985 32.4433 3.61546 32.6396C3.81107 32.8359 4.04343 32.9917 4.29926 33.0982C4.5551 33.2047 4.82941 33.2598 5.10652 33.2602L30.8647 33.3052C31.1418 33.3057 31.4163 33.2516 31.6725 33.146C31.9287 33.0404 32.1616 32.8854 32.3579 32.6897C32.5542 32.4941 32.7101 32.2618 32.8166 32.0059C32.9231 31.7501 32.9781 31.4758 32.9786 31.1987L33.0223 6.15886Z" stroke="#808080" stroke-width="0.264106"/>
<path d="M32.2941 6.17265C32.2941 5.78705 32.1409 5.41725 31.8682 5.14459C31.5956 4.87193 31.2258 4.71875 30.8402 4.71875H5.17436C4.78876 4.71875 4.41896 4.87193 4.1463 5.14459C3.87364 5.41725 3.72046 5.78705 3.72046 6.17265V31.1254C3.72046 31.511 3.87364 31.8808 4.1463 32.1534C4.41896 32.4261 4.78876 32.5793 5.17436 32.5793H30.8402C31.2258 32.5793 31.5956 32.4261 31.8682 32.1534C32.1409 31.8808 32.2941 31.511 32.2941 31.1254V6.17265Z" stroke="#808080" stroke-width="0.264106"/>
<path d="M28.7866 6.7044C28.923 6.45879 29.0485 6.25454 29.1629 6.09168C29.6489 5.3984 28.6664 4.94678 28.2768 5.56743C27.9362 6.10885 27.5946 6.54946 27.2521 6.88928C27.2276 6.9138 27.1944 6.92757 27.1597 6.92757H26.2142C26.1949 6.92766 26.1758 6.92352 26.1583 6.91544C26.1408 6.90737 26.1252 6.89555 26.1128 6.88082C26.1003 6.86609 26.0912 6.84881 26.0862 6.8302C26.0811 6.81158 26.0802 6.79208 26.0835 6.77307L26.1112 6.61593C26.1163 6.58693 26.1112 6.55704 26.0967 6.53142C25.8546 6.07715 25.5368 5.67703 25.1432 5.33106C25.1299 5.31936 25.1145 5.31043 25.098 5.30476C25.0814 5.29909 25.064 5.29681 25.0468 5.29804C24.4962 5.33766 24.1528 5.64666 24.5648 6.10224C24.7321 6.288 24.891 6.4874 25.0416 6.70044C25.1454 6.84746 25.1076 6.91657 24.928 6.90777C24.1903 6.87431 23.453 6.88928 22.7161 6.95266C22.6845 6.95611 22.6546 6.97055 22.6316 6.9936C22.0822 7.57463 22.5827 7.92193 23.1677 7.91929C24.1273 7.91665 25.0865 7.91665 26.0452 7.91929C26.2001 7.92017 26.238 7.98708 26.1587 8.12001L25.7018 8.87932C25.6902 8.89895 25.6734 8.91516 25.6532 8.92629C25.633 8.93742 25.6102 8.94308 25.5869 8.9427C24.5622 8.92289 23.5982 8.74066 23.5956 10.0348C23.5921 11.4812 23.5925 12.9276 23.5969 14.374C23.5995 15.0554 23.9521 15.3407 24.6335 15.3433C26.0887 15.3486 27.5444 15.3481 29.0005 15.342C29.6581 15.3393 29.9605 15.0211 29.9618 14.3476C29.9662 12.9056 29.968 11.4636 29.9671 10.0216C29.9671 9.29792 29.6528 8.91101 28.9081 8.94006C28.5119 8.95591 27.9177 8.95239 27.1253 8.9295C27.1041 8.92888 27.0833 8.92315 27.0648 8.9128C27.0462 8.90244 27.0305 8.88776 27.0188 8.87C27.0071 8.85225 26.9999 8.83194 26.9978 8.8108C26.9956 8.78966 26.9986 8.76832 27.0065 8.74858L27.3049 8.00381C27.3147 7.97959 27.3315 7.95884 27.3531 7.94425C27.3748 7.92966 27.4003 7.92189 27.4264 7.92193C28.4159 7.91577 29.4072 7.91533 30.4003 7.92061C31.0037 7.92325 31.4765 7.41353 30.7687 6.95399C30.7479 6.94099 30.7238 6.9337 30.6987 6.93286L28.8988 6.89984C28.876 6.89961 28.8537 6.89343 28.8341 6.88192C28.8144 6.87041 28.7981 6.85397 28.7868 6.83423C28.7755 6.81448 28.7695 6.79212 28.7694 6.76935C28.7694 6.74658 28.7753 6.72419 28.7866 6.7044Z" stroke="#F9CEA8" stroke-width="0.264106"/>
<path d="M8.24691 7.66116C8.73154 7.65456 10.571 7.92395 10.3373 7.01014C10.2669 6.73547 10.0855 6.59814 9.79325 6.59814H8.24295C8.20792 6.59814 8.17433 6.58423 8.14957 6.55946C8.12481 6.5347 8.11089 6.50111 8.11089 6.46609L8.11221 5.7913C8.1122 5.7622 8.10245 5.73386 8.08448 5.71074C7.76844 5.29522 7.44799 5.29434 7.12314 5.7081C7.10522 5.73029 7.09543 5.75825 7.09541 5.78733L7.08484 6.45948C7.08451 6.49347 7.07094 6.526 7.04703 6.55016C7.02312 6.57432 6.99074 6.58821 6.95675 6.5889C6.42722 6.60342 4.19156 6.27593 5.03142 7.59382C5.04307 7.6124 5.05936 7.62771 5.07876 7.63834C5.09816 7.64896 5.12004 7.65454 5.14234 7.65456H6.95543C6.99045 7.65456 7.02404 7.66847 7.04881 7.69324C7.07357 7.718 7.08748 7.75159 7.08748 7.78662V8.50234C7.08748 8.53736 7.07357 8.57095 7.04881 8.59572C7.02404 8.62048 6.99045 8.63439 6.95543 8.63439C6.00993 8.63571 5.17668 8.52875 5.16479 9.63668C5.15335 10.76 5.15863 11.8847 5.18064 13.0106C5.20177 14.0684 6.24234 13.8822 6.95939 13.9046C6.99372 13.9057 7.0263 13.92 7.05022 13.9447C7.07413 13.9693 7.0875 14.0023 7.08748 14.0367V14.7194C7.08748 14.7544 7.07357 14.788 7.04881 14.8128C7.02404 14.8375 6.99045 14.8514 6.95543 14.8514H5.21233C5.18236 14.8515 5.15356 14.8612 5.13046 14.8792C4.71669 15.2058 4.72022 15.5289 5.14102 15.8484C5.16416 15.8656 5.19195 15.8749 5.22026 15.8749H6.95543C6.99045 15.8749 7.02404 15.8888 7.04881 15.9135C7.07357 15.9383 7.08748 15.9719 7.08748 16.0069L7.08616 17.1663C7.08616 17.1913 7.09351 17.2157 7.10729 17.2363C7.40837 17.7126 7.73366 17.7302 8.08316 17.2891C8.10111 17.266 8.11086 17.2372 8.11089 17.2073V16.0069C8.11089 15.9719 8.12481 15.9383 8.14957 15.9135C8.17433 15.8888 8.20792 15.8749 8.24295 15.8749H10.0085C10.0424 15.8748 10.0745 15.862 10.0983 15.8392C10.4786 15.4844 10.4606 15.164 10.0441 14.8779C10.0227 14.8632 9.99691 14.8554 9.9702 14.8554L8.24427 14.8435C8.20935 14.8432 8.17596 14.8292 8.15127 14.8045C8.12658 14.7798 8.11256 14.7464 8.11221 14.7115L8.11089 14.0354C8.11051 14.0016 8.12322 13.9689 8.14636 13.9443C8.1695 13.9197 8.20128 13.905 8.23502 13.9033C9.06431 13.8597 10.0613 14.1014 10.06 12.8707C10.0582 11.8151 10.0578 10.7582 10.0587 9.70006C10.06 8.48253 9.07752 8.63836 8.2403 8.63572C8.22279 8.63554 8.20548 8.63192 8.18936 8.62506C8.17325 8.6182 8.15864 8.60823 8.14638 8.59572C8.13412 8.58321 8.12444 8.56841 8.1179 8.55216C8.11136 8.53591 8.10808 8.51854 8.10825 8.50102L8.1175 7.7919C8.11783 7.75756 8.13153 7.7247 8.15569 7.70029C8.17985 7.67588 8.21257 7.66185 8.24691 7.66116Z" stroke="#8094A0" stroke-width="0.264106"/>
<path d="M11.9365 8.60794C11.6196 8.61586 11.3013 8.61939 10.9818 8.61851C10.2027 8.61586 10.1617 9.66172 11.0531 9.66833C11.2978 9.67009 11.5417 9.67097 11.7846 9.67097C11.803 9.67106 11.8212 9.67499 11.838 9.68252C11.8548 9.69005 11.8698 9.701 11.8821 9.71468C11.8945 9.72836 11.9038 9.74445 11.9095 9.76194C11.9152 9.77943 11.9172 9.79792 11.9154 9.81623C11.6733 12.3578 11.0095 14.7841 9.92402 17.095C9.91507 17.1138 9.91076 17.1345 9.91145 17.1554C9.91214 17.1763 9.91781 17.1968 9.92799 17.2151C10.2753 17.8384 10.789 17.7262 11.0385 17.1584C12.0703 14.8193 12.7161 12.3736 12.9758 9.82151C12.979 9.78884 12.9943 9.75857 13.0184 9.7366C13.0426 9.71463 13.074 9.70253 13.1065 9.70266H13.7905C13.8078 9.70266 13.8249 9.70608 13.8409 9.71274C13.8568 9.71939 13.8713 9.72914 13.8834 9.74142C13.8956 9.7537 13.9052 9.76826 13.9117 9.78428C13.9182 9.80029 13.9214 9.81743 13.9213 9.83471C13.9177 11.6755 13.9191 13.5146 13.9252 15.3519C13.9292 16.4611 14.0797 17.3736 15.2748 17.5585C16.039 17.6765 16.6191 17.4225 17.0153 16.7965C17.1323 16.6125 17.179 16.4413 17.1552 16.2829C17.1064 15.9646 16.6838 15.7401 16.3907 15.9554C16.1582 16.127 16.0816 16.374 15.8321 16.4823C15.5134 16.6196 15.2378 16.5408 15.0054 16.2459C14.9866 16.222 14.9764 16.1931 14.9764 16.164C14.979 13.9684 14.9786 11.7887 14.975 9.62475C14.9737 8.85224 14.5644 8.60926 13.8328 8.61851C13.64 8.62027 13.445 8.61366 13.2478 8.5987C13.2135 8.59599 13.1815 8.57998 13.1589 8.55408C13.1362 8.52818 13.1245 8.49443 13.1263 8.46004C13.1677 7.70558 13.2016 6.95024 13.228 6.19401C13.2518 5.5562 13.018 5.22475 12.3049 5.50866C12.2814 5.51763 12.261 5.53328 12.2462 5.55369C12.2314 5.5741 12.2229 5.59838 12.2217 5.62355L12.0659 8.48249C12.0643 8.51569 12.05 8.54705 12.026 8.57031C12.002 8.59356 11.9701 8.607 11.9365 8.60794Z" stroke="#8094A0" stroke-width="0.264106"/>
<path d="M22.1171 7.2518C22.1572 7.12233 22.1442 6.98223 22.081 6.86234C22.0178 6.74245 21.9095 6.65257 21.78 6.61249L19.8248 6.00723C19.7606 5.98738 19.6933 5.98036 19.6264 5.98656C19.5596 5.99276 19.4947 6.01206 19.4353 6.04336C19.3759 6.07466 19.3233 6.11735 19.2804 6.16899C19.2376 6.22062 19.2053 6.2802 19.1854 6.34431L19.1737 6.38215C19.1337 6.51163 19.1467 6.65172 19.2099 6.77161C19.2731 6.89151 19.3813 6.98138 19.5108 7.02146L21.4661 7.62672C21.5302 7.64657 21.5976 7.65359 21.6644 7.64739C21.7312 7.64119 21.7962 7.62189 21.8556 7.59059C21.9149 7.55929 21.9675 7.5166 22.0104 7.46497C22.0533 7.41333 22.0856 7.35376 22.1054 7.28965L22.1171 7.2518Z" stroke="#F9CEA8" stroke-width="0.264106"/>
<path d="M21.4828 16.0448C22.453 17.0123 23.6304 17.5036 25.0152 17.5185C26.0884 17.53 27.9173 17.5322 30.502 17.5251C30.9246 17.5251 31.2851 17.3442 31.1583 16.8688C31.0879 16.6021 30.9149 16.4692 30.6394 16.47C28.839 16.4744 27.044 16.467 25.2542 16.4476C23.8281 16.4317 22.7241 16.0501 21.9265 14.8497C21.9135 14.8298 21.9058 14.8067 21.9041 14.7824C21.8671 13.8704 21.8741 12.9583 21.9252 12.0463C22.0295 10.1909 20.8542 10.5118 19.576 10.5356C19.3356 10.54 19.1939 10.6606 19.1508 10.8974C19.0438 11.4982 19.4307 11.5735 19.9246 11.5775C20.1755 11.5792 20.4326 11.5863 20.6958 11.5986C20.7296 11.6003 20.7616 11.615 20.7849 11.6395C20.8083 11.6641 20.8213 11.6968 20.8212 11.7307V14.7586C20.8212 14.7836 20.8139 14.808 20.8001 14.8286C20.3714 15.5021 19.8515 16.0968 19.2406 16.6127C18.7057 17.0643 19.1943 17.9662 19.815 17.4763C20.3538 17.0502 20.8454 16.5757 21.29 16.0527C21.3019 16.0389 21.3165 16.0277 21.3328 16.0198C21.3492 16.0118 21.367 16.0073 21.3851 16.0066C21.4032 16.0059 21.4212 16.0089 21.4381 16.0155C21.4549 16.022 21.4701 16.032 21.4828 16.0448Z" stroke="#F9CEA8" stroke-width="0.264106"/>
<path d="M28.5357 20.9701C28.6211 20.7791 28.7021 20.5836 28.7787 20.3838C29.0045 19.7975 28.7048 19.3075 28.0313 19.6548C28.0025 19.6693 27.9799 19.6942 27.9679 19.7248C27.5625 20.7984 27.0171 21.7809 26.073 22.4663C25.8634 22.6186 25.8045 22.8153 25.896 23.0565C26.2724 24.0469 27.5255 22.5547 27.7857 22.2021C27.7979 22.1853 27.8139 22.1717 27.8323 22.1623C27.8506 22.1529 27.8709 22.148 27.8913 22.148H30.9061C30.9307 22.148 30.9549 22.1411 30.9759 22.1281C30.9969 22.115 31.0139 22.0963 31.0249 22.0741C31.363 21.3847 31.0249 21.1589 30.4056 21.1576C29.8228 21.1576 29.2396 21.1572 28.6559 21.1563C28.6339 21.1562 28.6122 21.1507 28.5929 21.1401C28.5736 21.1296 28.5572 21.1144 28.5452 21.0958C28.5333 21.0773 28.5262 21.0561 28.5245 21.0342C28.5229 21.0122 28.5267 20.9902 28.5357 20.9701Z" stroke="#BDD6DF" stroke-width="0.264106"/>
<path d="M24.3761 22.2427C24.8479 22.2066 25.3224 22.1965 25.7996 22.2123C26.5655 22.2361 26.5985 21.2536 25.6425 21.2576C25.3616 21.2585 25.0768 21.2536 24.7881 21.2431C24.7548 21.2421 24.7231 21.2284 24.6995 21.2048C24.676 21.1813 24.6623 21.1496 24.6613 21.1163C24.6516 20.8469 24.6468 20.5771 24.6468 20.3068C24.6468 19.6981 24.2467 19.3521 23.7 19.8288C23.6862 19.8404 23.6751 19.8549 23.6674 19.8713C23.6597 19.8877 23.6555 19.9056 23.6551 19.9239L23.6181 21.115C23.6171 21.1486 23.6033 21.1807 23.5795 21.2045C23.5557 21.2283 23.5236 21.2421 23.49 21.2431C23.1308 21.2536 22.7725 21.262 22.4151 21.2682C21.7046 21.2787 21.6769 22.2216 22.456 22.2071C22.6814 22.2027 22.9094 22.2163 23.14 22.248C23.1711 22.2524 23.1995 22.2675 23.2203 22.2907C23.2411 22.314 23.2529 22.3438 23.2536 22.3748C23.3302 24.7293 23.144 26.7787 21.9767 28.8889C21.9605 28.9179 21.9563 28.9524 21.9648 28.9853C22.0783 29.437 22.3464 29.5655 22.769 29.3709C22.794 29.3597 22.8147 29.3413 22.8284 29.3181C23.6128 27.9782 24.0772 26.5344 24.2216 24.9868C24.2249 24.9534 24.2408 24.9225 24.2661 24.9005C24.2913 24.8784 24.3241 24.8668 24.3576 24.8679L25.072 24.8904C25.0897 24.8911 25.1072 24.8952 25.1233 24.9027C25.1394 24.9101 25.1538 24.9207 25.1657 24.9337C25.1777 24.9468 25.1869 24.962 25.1927 24.9786C25.1986 24.9952 25.2011 25.0128 25.2001 25.0304L25.0139 28.0781C24.9954 28.3775 24.8537 28.5166 24.5887 28.4954L23.9878 28.4466C23.7677 28.429 23.626 28.5293 23.5626 28.7476C23.442 29.157 23.5802 29.3965 23.9773 29.466C25.7164 29.7711 26.003 28.6843 26.0835 27.2264C26.1275 26.4244 26.1689 25.6215 26.2076 24.8178C26.2433 24.0941 25.8841 23.8947 25.2027 23.8973C24.9316 23.8991 24.6578 23.8947 24.3813 23.8841C24.3472 23.8828 24.315 23.8683 24.2914 23.8436C24.2677 23.819 24.2545 23.7862 24.2546 23.7521V22.3748C24.2545 22.3415 24.2669 22.3094 24.2894 22.2849C24.312 22.2605 24.3429 22.2454 24.3761 22.2427Z" stroke="#BDD6DF" stroke-width="0.264106"/>
<path d="M11.218 20.6965C11.4804 20.7309 11.4817 20.7749 11.222 20.8286C10.3601 21.0091 9.60479 21.3942 8.95597 21.9841C8.93034 22.0077 8.91498 22.0403 8.91325 22.075C8.91152 22.1096 8.92355 22.1434 8.94673 22.1689L9.15141 22.3987C9.17399 22.4237 9.20519 22.4392 9.23875 22.4422C9.27231 22.4451 9.30574 22.4352 9.33232 22.4146L9.77734 22.0593C9.91996 21.9458 9.99127 21.9801 9.99127 22.1623L9.99259 23.5964C9.99259 23.7417 10.0498 23.7694 10.1643 23.6796L10.5459 23.3772C10.5619 23.3645 10.5747 23.3483 10.5834 23.33C10.5921 23.3117 10.5965 23.2917 10.5961 23.2716L10.5829 21.7305C10.5826 21.7012 10.5919 21.6726 10.6093 21.6493C10.6267 21.6259 10.6513 21.6089 10.6793 21.6011L11.2788 21.436C11.2983 21.4306 11.3188 21.4297 11.3387 21.4334C11.3586 21.4371 11.3773 21.4453 11.3935 21.4574C11.4098 21.4696 11.423 21.4853 11.4321 21.5033C11.4413 21.5213 11.4462 21.5412 11.4465 21.5615L11.4716 23.3482C11.4719 23.3743 11.4646 23.3999 11.4505 23.4218C11.4364 23.4437 11.4162 23.4608 11.3923 23.471C8.77638 24.6093 9.30195 28.4613 12.1358 28.695C15.2377 28.9512 16.2215 24.7836 13.3705 23.4644C13.3477 23.4538 13.3283 23.437 13.3147 23.416C13.3012 23.3949 13.2939 23.3705 13.2939 23.3455V21.543C13.294 21.5225 13.2988 21.5023 13.308 21.4839C13.3171 21.4655 13.3303 21.4495 13.3465 21.4371C13.3627 21.4248 13.3815 21.4163 13.4015 21.4124C13.4215 21.4086 13.442 21.4094 13.4616 21.4149L14.0994 21.5971C14.1274 21.6048 14.1521 21.6215 14.1696 21.6447C14.187 21.6679 14.1963 21.6962 14.1958 21.7252L14.18 23.401C14.18 23.4204 14.1843 23.4397 14.1928 23.4575C14.2012 23.4753 14.2135 23.4911 14.2288 23.504L14.6052 23.8143C14.7505 23.934 14.8226 23.8997 14.8218 23.7113L14.8099 22.0923C14.809 21.9488 14.8658 21.9207 14.9802 22.0078L15.4952 22.404C15.5097 22.4152 15.5264 22.4233 15.5442 22.4276C15.5621 22.432 15.5806 22.4326 15.5988 22.4294C15.6169 22.4261 15.6342 22.4192 15.6496 22.4089C15.6649 22.3986 15.678 22.3852 15.688 22.3697L15.8214 22.157C15.8374 22.1316 15.8442 22.1013 15.8406 22.0713C15.837 22.0413 15.8232 22.0133 15.8016 21.992C15.1669 21.3775 14.415 20.9901 13.5461 20.8299C13.1958 20.7657 13.1984 20.7212 13.5541 20.6965C13.5866 20.6939 13.6192 20.693 13.6518 20.6939C13.6693 20.6943 13.6868 20.6911 13.7031 20.6847C13.7195 20.6783 13.7343 20.6687 13.7469 20.6566C13.7594 20.6444 13.7694 20.6299 13.7762 20.6138C13.783 20.5978 13.7865 20.5806 13.7865 20.5632L13.7904 19.9029C13.7904 19.8675 13.7765 19.8336 13.7518 19.8086C13.727 19.7836 13.6934 19.7695 13.6584 19.7695H11.0913C11.0737 19.7695 11.0563 19.773 11.0401 19.7798C11.0239 19.7866 11.0092 19.7966 10.9969 19.8091C10.9846 19.8217 10.975 19.8366 10.9685 19.8529C10.962 19.8692 10.9589 19.8867 10.9592 19.9042L10.9698 20.55C10.9701 20.5814 10.9818 20.6117 11.0027 20.6352C11.0235 20.6587 11.0522 20.6739 11.0833 20.6781L11.218 20.6965Z" stroke="#F9EDEC" stroke-width="0.264106"/>
<path d="M5.45034 20.0613C5.04362 19.9891 4.85523 20.1885 4.88516 20.6595C4.90012 20.8945 5.02073 21.0446 5.24698 21.1098C5.85619 21.2841 6.4381 21.502 6.99272 21.7634C7.72694 22.1107 7.94218 21.1784 7.45359 20.7915C7.2806 20.6542 5.95082 20.1511 5.45034 20.0613Z" stroke="#F9EDEC" stroke-width="0.264106"/>
<path d="M21.8741 21.4398C21.8929 21.3767 21.8991 21.3105 21.8924 21.2449C21.8856 21.1794 21.866 21.1158 21.8346 21.0578C21.8033 20.9998 21.7608 20.9486 21.7097 20.9071C21.6586 20.8655 21.5997 20.8344 21.5366 20.8156L19.775 20.2904C19.7119 20.2716 19.6456 20.2654 19.5801 20.2722C19.5145 20.279 19.451 20.2986 19.393 20.3299C19.335 20.3613 19.2838 20.4037 19.2422 20.4549C19.2007 20.506 19.1696 20.5648 19.1508 20.628L19.1349 20.6811C19.1161 20.7443 19.1099 20.8105 19.1167 20.8761C19.1234 20.9416 19.1431 21.0052 19.1744 21.0632C19.2057 21.1211 19.2482 21.1724 19.2993 21.2139C19.3505 21.2555 19.4093 21.2866 19.4725 21.3054L21.234 21.8305C21.2972 21.8494 21.3634 21.8556 21.429 21.8488C21.4945 21.842 21.5581 21.8224 21.616 21.7911C21.674 21.7597 21.7252 21.7173 21.7668 21.6661C21.8084 21.615 21.8394 21.5562 21.8583 21.493L21.8741 21.4398Z" stroke="#BDD6DF" stroke-width="0.264106"/>
<path d="M7.02278 23.9975C6.56324 23.7466 5.74847 23.4006 5.13707 23.2726C5.10643 23.2658 5.07407 23.2705 5.04595 23.2858C4.60577 23.5243 4.55559 23.8536 4.89541 24.2735C4.91176 24.2942 4.93337 24.3093 4.95747 24.3171C5.59573 24.5213 6.20801 24.7859 6.79433 25.1107C6.8191 25.1244 6.84745 25.1295 6.87488 25.1253C7.5259 25.0421 7.46912 24.2405 7.02278 23.9975Z" stroke="#F9EDEC" stroke-width="0.264106"/>
<path d="M29.9276 25.9109C29.7551 25.9048 29.722 25.8335 29.8286 25.697C30.201 25.2199 30.4906 24.6947 30.6975 24.1216C30.9101 23.5327 30.4624 23.2804 29.9368 23.2765C29.0477 23.2677 28.1594 23.2672 27.272 23.2752C26.9023 23.2778 26.5563 23.4521 26.6448 23.8654C26.6976 24.1067 26.8473 24.2273 27.0937 24.2273L29.3796 24.2286C29.5407 24.2286 29.5777 24.2964 29.4905 24.4319L29.1643 24.9403C29.1533 24.9574 29.1376 24.9709 29.1191 24.9793C29.1006 24.9877 29.0801 24.9907 29.06 24.9879C29.009 24.9808 28.9711 24.9514 28.9465 24.8994C28.9385 24.8832 28.9273 24.8687 28.9134 24.8569C28.8996 24.8451 28.8834 24.8362 28.8659 24.8307C28.3733 24.6776 28.1528 24.9945 28.1568 25.4408C28.1577 25.5694 28.1506 25.6979 28.1356 25.8264C28.1318 25.8584 28.1164 25.8879 28.0923 25.9093C28.0682 25.9307 28.0371 25.9425 28.0049 25.9426C27.5242 25.9439 25.7679 25.7155 26.5061 26.8736C26.5183 26.8922 26.5348 26.9075 26.5542 26.9181C26.5736 26.9287 26.5951 26.9343 26.617 26.9343L28.0181 26.9357C28.0531 26.9357 28.0867 26.9496 28.1115 26.9743C28.1363 26.9991 28.1502 27.0327 28.1502 27.0677L28.1515 28.8121C28.1515 28.8319 28.1472 28.8513 28.1387 28.8692C28.1302 28.887 28.1179 28.9026 28.1026 28.9151C28.0872 28.9275 28.0693 28.9363 28.0501 28.9409C28.031 28.9455 28.011 28.9457 27.9917 28.9416C27.7936 28.8984 27.5933 28.8817 27.3909 28.8914C26.9657 28.9138 26.6408 29.2875 26.9472 29.6652C27.2245 30.0072 27.9442 29.8989 28.3152 29.8131C28.994 29.6573 29.1432 29.2255 29.1406 28.5494C29.1388 28.0564 29.1401 27.562 29.1445 27.0664C29.1449 27.0316 29.1589 26.9984 29.1837 26.9739C29.2084 26.9494 29.2418 26.9357 29.2766 26.9357H30.7873C30.8164 26.9357 30.8447 26.9264 30.8678 26.9093C31.5241 26.4088 31.0804 25.9598 30.4703 25.9321C30.2872 25.9241 30.1063 25.9171 29.9276 25.9109Z" stroke="#BDD6DF" stroke-width="0.264106"/>
<path d="M8.87058 24.3929C8.87058 24.3747 8.86334 24.3572 8.85047 24.3443C8.83759 24.3315 8.82012 24.3242 8.80191 24.3242H8.21295C8.19474 24.3242 8.17728 24.3315 8.1644 24.3443C8.15152 24.3572 8.14429 24.3747 8.14429 24.3929V26.9283C8.14429 26.9465 8.15152 26.964 8.1644 26.9769C8.17728 26.9897 8.19474 26.997 8.21295 26.997H8.80191C8.82012 26.997 8.83759 26.9897 8.85047 26.9769C8.86334 26.964 8.87058 26.9465 8.87058 26.9283V24.3929Z" stroke="#F9EDEC" stroke-width="0.264106"/>
<path d="M16.5969 24.3625C16.5969 24.3534 16.5933 24.3446 16.5868 24.3382C16.5804 24.3317 16.5717 24.3281 16.5626 24.3281H15.934C15.9249 24.3281 15.9162 24.3317 15.9097 24.3382C15.9033 24.3446 15.8997 24.3534 15.8997 24.3625V26.9639C15.8997 26.973 15.9033 26.9817 15.9097 26.9882C15.9162 26.9946 15.9249 26.9982 15.934 26.9982H16.5626C16.5717 26.9982 16.5804 26.9946 16.5868 26.9882C16.5933 26.9817 16.5969 26.973 16.5969 26.9639V24.3625Z" stroke="#F9EDEC" stroke-width="0.264106"/>
<path d="M30.8691 30.7619C30.8444 30.7398 30.8124 30.7275 30.7793 30.7275C28.92 30.7311 27.0981 30.7302 25.3136 30.7249C23.9535 30.7209 22.732 30.4674 21.9515 29.2842C21.8547 29.1381 21.8054 28.9651 21.8036 28.7652C21.7966 27.869 21.7896 26.9737 21.7825 26.0793C21.7706 24.7838 20.7578 25.0149 19.8585 25.0176C19.2154 25.0202 18.8721 25.3966 19.2933 26.0132C19.3051 26.0311 19.3212 26.0458 19.3401 26.056C19.359 26.0661 19.3802 26.0714 19.4016 26.0714L20.6165 26.0753C20.6513 26.0753 20.6847 26.089 20.7094 26.1135C20.7341 26.138 20.7482 26.1713 20.7485 26.206C20.7538 27.0477 20.7573 27.8924 20.7591 28.7401C20.7604 29.5655 19.9364 30.4357 19.3184 30.9005C18.884 31.2267 18.7981 31.6889 19.3541 31.9768C19.3732 31.9866 19.3944 31.9916 19.4158 31.9913C19.4372 31.9911 19.4582 31.9856 19.4769 31.9754C20.1926 31.5916 20.7855 31.0744 21.2556 30.4238C21.2673 30.4078 21.2824 30.3946 21.2999 30.3853C21.3173 30.3759 21.3366 30.3706 21.3564 30.3697C21.3762 30.3688 21.3959 30.3724 21.4141 30.3801C21.4323 30.3879 21.4486 30.3997 21.4616 30.4146C21.9643 30.9859 22.588 31.3618 23.3328 31.5423C23.9825 31.6999 24.6419 31.7787 25.311 31.7787C27.01 31.7813 28.7091 31.7844 30.4082 31.7879C31.0685 31.7892 31.532 31.3693 30.8691 30.7619Z" stroke="#BDD6DF" stroke-width="0.264106"/>
<path d="M4.96401 31.8949C5.45525 32.1247 5.75368 31.8593 5.96629 31.4142C6.60983 30.0629 7.12836 28.6645 7.52187 27.2189C7.77674 26.2813 6.75861 25.9063 6.5011 26.8624C6.07589 28.4391 5.50675 29.9546 4.79366 31.409C4.68626 31.6282 4.74304 31.7901 4.96401 31.8949Z" stroke="#F9EDEC" stroke-width="0.264106"/>
<path d="M11.3914 28.9856C10.9407 28.8298 10.5199 28.6004 10.129 28.2976C10.1139 28.2859 10.0964 28.2776 10.0778 28.2733C10.0592 28.269 10.0399 28.2688 10.0212 28.2727C10.0025 28.2766 9.98481 28.2845 9.96946 28.2958C9.95411 28.3072 9.9414 28.3218 9.93223 28.3385L8.80714 30.4052C8.79801 30.4219 8.79261 30.4404 8.79132 30.4594C8.79003 30.4784 8.79286 30.4975 8.79964 30.5153C8.80641 30.5332 8.81697 30.5493 8.83057 30.5626C8.84417 30.576 8.86051 30.5862 8.87845 30.5927L12.3871 31.8419C12.4161 31.8521 12.448 31.8517 12.4769 31.8406L15.8786 30.598C15.8967 30.5914 15.9132 30.5809 15.9269 30.5674C15.9406 30.5538 15.9511 30.5374 15.9578 30.5194C15.9645 30.5014 15.9671 30.4822 15.9655 30.4632C15.9639 30.4441 15.9581 30.4257 15.9486 30.4091L14.7601 28.3201C14.7509 28.304 14.7384 28.2901 14.7235 28.2792C14.7085 28.2683 14.6914 28.2607 14.6732 28.2568C14.655 28.2529 14.6362 28.2529 14.618 28.2568C14.5997 28.2606 14.5825 28.2682 14.5673 28.2791C13.5676 29.0094 12.5997 29.4042 11.3914 28.9856Z" stroke="#F9EDEC" stroke-width="0.264106"/>
<path d="M28.9081 10.0177C28.9081 10.0037 28.9026 9.99022 28.8927 9.98032C28.8828 9.97041 28.8693 9.96484 28.8553 9.96484H24.6956C24.6816 9.96484 24.6682 9.97041 24.6583 9.98032C24.6484 9.99022 24.6428 10.0037 24.6428 10.0177V10.6383C24.6428 10.6523 24.6484 10.6658 24.6583 10.6757C24.6682 10.6856 24.6816 10.6911 24.6956 10.6911H28.8553C28.8693 10.6911 28.8828 10.6856 28.8927 10.6757C28.9026 10.6658 28.9081 10.6523 28.9081 10.6383V10.0177Z" stroke="#F9CEA8" stroke-width="0.264106"/>
<path d="M28.9145 11.7519C28.9145 11.741 28.9102 11.7306 28.9025 11.7229C28.8949 11.7153 28.8844 11.7109 28.8736 11.7109H24.6928C24.6819 11.7109 24.6715 11.7153 24.6638 11.7229C24.6562 11.7306 24.6519 11.741 24.6519 11.7519V12.4016C24.6519 12.407 24.6529 12.4123 24.655 12.4172C24.657 12.4222 24.66 12.4267 24.6638 12.4305C24.6676 12.4343 24.6722 12.4373 24.6771 12.4394C24.6821 12.4415 24.6874 12.4425 24.6928 12.4425H28.8736C28.879 12.4425 28.8843 12.4415 28.8893 12.4394C28.8942 12.4373 28.8987 12.4343 28.9025 12.4305C28.9063 12.4267 28.9094 12.4222 28.9114 12.4172C28.9135 12.4123 28.9145 12.407 28.9145 12.4016V11.7519Z" stroke="#F9CEA8" stroke-width="0.264106"/>
<path d="M28.9146 13.5309C28.9146 13.5134 28.9077 13.4966 28.8953 13.4842C28.8829 13.4718 28.8661 13.4648 28.8486 13.4648H24.7101C24.6926 13.4648 24.6758 13.4718 24.6634 13.4842C24.651 13.4966 24.644 13.5134 24.644 13.5309V14.2572C24.644 14.2747 24.651 14.2915 24.6634 14.3038C24.6758 14.3162 24.6926 14.3232 24.7101 14.3232H28.8486C28.8661 14.3232 28.8829 14.3162 28.8953 14.3038C28.9077 14.2915 28.9146 14.2747 28.9146 14.2572V13.5309Z" stroke="#F9CEA8" stroke-width="0.264106"/>
<path d="M7.08855 9.67529C7.08856 9.66992 7.08751 9.66459 7.08546 9.65962C7.08341 9.65465 7.0804 9.65014 7.07661 9.64633C7.07281 9.64252 7.06831 9.6395 7.06334 9.63743C7.05838 9.63537 7.05306 9.6343 7.04768 9.63429L6.20519 9.63281C6.19981 9.6328 6.19448 9.63385 6.18951 9.6359C6.18454 9.63795 6.18003 9.64096 6.17622 9.64476C6.17241 9.64855 6.16939 9.65306 6.16732 9.65802C6.16526 9.66299 6.16419 9.66831 6.16418 9.67368L6.1626 10.5822C6.16259 10.5876 6.16364 10.5929 6.16569 10.5979C6.16774 10.6028 6.17075 10.6074 6.17454 10.6112C6.17834 10.615 6.18284 10.618 6.18781 10.6201C6.19277 10.6221 6.19809 10.6232 6.20347 10.6232L7.04597 10.6247C7.05134 10.6247 7.05667 10.6236 7.06164 10.6216C7.06661 10.6195 7.07112 10.6165 7.07493 10.6127C7.07874 10.6089 7.08176 10.6044 7.08383 10.5995C7.08589 10.5945 7.08696 10.5892 7.08697 10.5838L7.08855 9.67529Z" stroke="#8094A0" stroke-width="0.264106"/>
<path d="M9.03448 9.69341C9.03447 9.68595 9.03298 9.67857 9.03012 9.67169C9.02725 9.6648 9.02306 9.65855 9.01778 9.65328C9.0125 9.64802 9.00623 9.64385 8.99934 9.64101C8.99244 9.63816 8.98506 9.63671 8.9776 9.63672L8.1668 9.63814C8.15934 9.63816 8.15196 9.63964 8.14507 9.6425C8.13819 9.64537 8.13194 9.64956 8.12667 9.65484C8.12141 9.66012 8.11724 9.66639 8.11439 9.67328C8.11155 9.68018 8.1101 9.68756 8.11011 9.69502L8.11164 10.5719C8.11165 10.5793 8.11313 10.5867 8.116 10.5936C8.11886 10.6005 8.12305 10.6067 8.12834 10.612C8.13362 10.6172 8.13988 10.6214 8.14678 10.6243C8.15367 10.6271 8.16106 10.6286 8.16851 10.6285L8.97932 10.6271C8.98678 10.6271 8.99416 10.6256 9.00104 10.6228C9.00793 10.6199 9.01418 10.6157 9.01944 10.6104C9.02471 10.6051 9.02888 10.5989 9.03172 10.592C9.03456 10.5851 9.03602 10.5777 9.03601 10.5702L9.03448 9.69341Z" stroke="#8094A0" stroke-width="0.264106"/>
<path d="M9.04313 11.7394C9.04314 11.7312 9.04155 11.7231 9.03844 11.7156C9.03534 11.7081 9.03078 11.7012 9.02502 11.6954C9.01927 11.6897 9.01243 11.6851 9.00491 11.6819C8.99739 11.6788 8.98932 11.6772 8.98117 11.6772L8.17566 11.6758C8.16751 11.6758 8.15943 11.6774 8.15189 11.6805C8.14436 11.6836 8.13751 11.6881 8.13173 11.6939C8.12596 11.6996 8.12137 11.7065 8.11824 11.714C8.11511 11.7215 8.11349 11.7296 8.11347 11.7377L8.11157 12.8311C8.11156 12.8393 8.11315 12.8474 8.11626 12.8549C8.11936 12.8624 8.12392 12.8693 8.12968 12.8751C8.13543 12.8808 8.14226 12.8854 8.14979 12.8885C8.15731 12.8917 8.16538 12.8933 8.17353 12.8933L8.97904 12.8947C8.98719 12.8947 8.99527 12.8931 9.0028 12.89C9.01034 12.8869 9.01719 12.8824 9.02297 12.8766C9.02874 12.8709 9.03333 12.864 9.03646 12.8565C9.03959 12.849 9.04121 12.8409 9.04122 12.8327L9.04313 11.7394Z" stroke="#8094A0" stroke-width="0.264106"/>
<path d="M7.08764 11.7152C7.08762 11.7105 7.08667 11.7058 7.08486 11.7015C7.08304 11.6972 7.0804 11.6933 7.07707 11.69C7.07374 11.6867 7.0698 11.6841 7.06546 11.6823C7.06113 11.6806 7.05649 11.6797 7.0518 11.6797L6.19611 11.6842C6.19143 11.6842 6.1868 11.6851 6.18248 11.6869C6.17817 11.6888 6.17425 11.6914 6.17096 11.6947C6.16766 11.6981 6.16506 11.702 6.16329 11.7063C6.16152 11.7107 6.16062 11.7153 6.16065 11.72L6.16649 12.8372C6.16652 12.8418 6.16747 12.8465 6.16928 12.8508C6.17109 12.8551 6.17374 12.859 6.17707 12.8623C6.1804 12.8656 6.18434 12.8682 6.18868 12.87C6.19301 12.8718 6.19765 12.8727 6.20233 12.8726L7.05802 12.8682C7.06271 12.8681 7.06734 12.8672 7.07165 12.8654C7.07597 12.8636 7.07989 12.8609 7.08318 12.8576C7.08647 12.8542 7.08908 12.8503 7.09085 12.846C7.09262 12.8416 7.09352 12.837 7.09349 12.8323L7.08764 11.7152Z" stroke="#8094A0" stroke-width="0.264106"/>
<path d="M13.7761 26.0117C13.7761 25.6408 13.6288 25.2851 13.3665 25.0229C13.1043 24.7606 12.7486 24.6133 12.3777 24.6133C12.0068 24.6133 11.6511 24.7606 11.3888 25.0229C11.1266 25.2851 10.9792 25.6408 10.9792 26.0117C10.9792 26.3826 11.1266 26.7383 11.3888 27.0006C11.6511 27.2628 12.0068 27.4102 12.3777 27.4102C12.7486 27.4102 13.1043 27.2628 13.3665 27.0006C13.6288 26.7383 13.7761 26.3826 13.7761 26.0117Z" stroke="#F9EDEC" stroke-width="0.264106"/>
<path d="M32.9786 31.1987C32.9781 31.4758 32.9231 31.7501 32.8166 32.0059C32.7101 32.2618 32.5542 32.4941 32.3579 32.6897C32.1616 32.8854 31.9287 33.0404 31.6725 33.146C31.4163 33.2516 31.1418 33.3057 30.8647 33.3052L5.10652 33.2602C4.82941 33.2598 4.5551 33.2047 4.29926 33.0982C4.04343 32.9917 3.81107 32.8359 3.61546 32.6396C3.41985 32.4433 3.26482 32.2104 3.15922 31.9542C3.05362 31.698 2.99952 31.4235 3 31.1464L3.0437 6.10652C3.04418 5.82941 3.09924 5.5551 3.20574 5.29926C3.31223 5.04343 3.46808 4.81107 3.66437 4.61546C3.86066 4.41985 4.09356 4.26482 4.34977 4.15922C4.60597 4.05362 4.88047 3.99952 5.15759 4L30.9158 4.04497C31.1929 4.04545 31.4672 4.10051 31.723 4.20701C31.9789 4.3135 32.2112 4.46934 32.4068 4.66564C32.6025 4.86193 32.7575 5.09483 32.8631 5.35104C32.9687 5.60724 33.0228 5.88174 33.0223 6.15886L32.9786 31.1987ZM32.294 6.17097C32.294 5.78537 32.1408 5.41556 31.8682 5.1429C31.5955 4.87024 31.2257 4.71706 30.8401 4.71706H5.17429C4.78869 4.71706 4.41889 4.87024 4.14623 5.1429C3.87357 5.41556 3.72039 5.78537 3.72039 6.17097V31.1237C3.72039 31.5093 3.87357 31.8791 4.14623 32.1517C4.41889 32.4244 4.78869 32.5776 5.17429 32.5776H30.8401C31.2257 32.5776 31.5955 32.4244 31.8682 32.1517C32.1408 31.8791 32.294 31.5093 32.294 31.1237V6.17097Z" fill="black"/>
<path d="M28.8988 6.89984L30.6987 6.93286C30.7238 6.9337 30.7479 6.94099 30.7687 6.95399C31.4765 7.41353 31.0037 7.92325 30.4003 7.92061C29.4072 7.91533 28.4159 7.91577 27.4264 7.92193C27.4003 7.92189 27.3748 7.92966 27.3531 7.94425C27.3315 7.95884 27.3147 7.97959 27.3049 8.00381L27.0065 8.74858C26.9986 8.76832 26.9956 8.78966 26.9978 8.8108C26.9999 8.83194 27.0071 8.85225 27.0188 8.87C27.0305 8.88776 27.0462 8.90244 27.0648 8.9128C27.0833 8.92315 27.1041 8.92888 27.1253 8.9295C27.9177 8.95239 28.5119 8.95591 28.9081 8.94006C29.6528 8.91101 29.9671 9.29792 29.9671 10.0216C29.968 11.4636 29.9662 12.9056 29.9618 14.3476C29.9605 15.0211 29.6581 15.3393 29.0005 15.342C27.5444 15.3481 26.0887 15.3486 24.6335 15.3433C23.9521 15.3407 23.5995 15.0554 23.5969 14.374C23.5925 12.9276 23.5921 11.4812 23.5956 10.0348C23.5982 8.74066 24.5622 8.92289 25.5869 8.9427C25.6102 8.94308 25.633 8.93742 25.6532 8.92629C25.6734 8.91516 25.6902 8.89895 25.7018 8.87932L26.1587 8.12001C26.238 7.98708 26.2001 7.92017 26.0452 7.91929C25.0865 7.91665 24.1273 7.91665 23.1677 7.91929C22.5827 7.92193 22.0822 7.57463 22.6316 6.9936C22.6546 6.97055 22.6845 6.95611 22.7161 6.95266C23.453 6.88928 24.1903 6.87431 24.928 6.90777C25.1076 6.91657 25.1454 6.84746 25.0416 6.70044C24.891 6.4874 24.7321 6.288 24.5648 6.10224C24.1528 5.64666 24.4962 5.33766 25.0468 5.29804C25.064 5.29681 25.0814 5.29909 25.098 5.30476C25.1145 5.31043 25.1299 5.31936 25.1432 5.33106C25.5368 5.67703 25.8546 6.07715 26.0967 6.53142C26.1112 6.55704 26.1163 6.58693 26.1112 6.61593L26.0835 6.77307C26.0802 6.79208 26.0811 6.81158 26.0862 6.8302C26.0912 6.84881 26.1003 6.86609 26.1128 6.88082C26.1252 6.89555 26.1408 6.90737 26.1583 6.91544C26.1758 6.92352 26.1949 6.92766 26.2142 6.92757H27.1597C27.1944 6.92757 27.2276 6.9138 27.2521 6.88928C27.5946 6.54946 27.9362 6.10885 28.2768 5.56743C28.6664 4.94678 29.6489 5.3984 29.1629 6.09168C29.0485 6.25454 28.923 6.45879 28.7866 6.7044C28.7753 6.72419 28.7694 6.74658 28.7694 6.76935C28.7695 6.79212 28.7755 6.81448 28.7868 6.83423C28.7981 6.85397 28.8144 6.87041 28.8341 6.88192C28.8537 6.89343 28.876 6.89961 28.8988 6.89984ZM28.9081 10.0189C28.9081 10.0049 28.9025 9.99149 28.8926 9.98158C28.8827 9.97168 28.8692 9.96611 28.8552 9.96611H24.6956C24.6816 9.96611 24.6681 9.97168 24.6582 9.98158C24.6483 9.99149 24.6428 10.0049 24.6428 10.0189V10.6396C24.6428 10.6536 24.6483 10.667 24.6582 10.6769C24.6681 10.6868 24.6816 10.6924 24.6956 10.6924H28.8552C28.8692 10.6924 28.8827 10.6868 28.8926 10.6769C28.9025 10.667 28.9081 10.6536 28.9081 10.6396V10.0189ZM28.9147 11.7501C28.9147 11.7393 28.9104 11.7289 28.9027 11.7212C28.895 11.7135 28.8846 11.7092 28.8737 11.7092H24.6929C24.6821 11.7092 24.6717 11.7135 24.664 11.7212C24.6563 11.7289 24.652 11.7393 24.652 11.7501V12.3998C24.652 12.4052 24.6531 12.4105 24.6551 12.4155C24.6572 12.4205 24.6602 12.425 24.664 12.4288C24.6678 12.4326 24.6723 12.4356 24.6773 12.4377C24.6822 12.4397 24.6876 12.4408 24.6929 12.4408H28.8737C28.8791 12.4408 28.8844 12.4397 28.8894 12.4377C28.8944 12.4356 28.8989 12.4326 28.9027 12.4288C28.9065 12.425 28.9095 12.4205 28.9115 12.4155C28.9136 12.4105 28.9147 12.4052 28.9147 12.3998V11.7501ZM28.9147 13.5302C28.9147 13.5127 28.9077 13.4959 28.8953 13.4835C28.8829 13.4711 28.8661 13.4642 28.8486 13.4642H24.7101C24.6926 13.4642 24.6758 13.4711 24.6634 13.4835C24.651 13.4959 24.6441 13.5127 24.6441 13.5302V14.2565C24.6441 14.274 24.651 14.2908 24.6634 14.3032C24.6758 14.3156 24.6926 14.3225 24.7101 14.3225H28.8486C28.8661 14.3225 28.8829 14.3156 28.8953 14.3032C28.9077 14.2908 28.9147 14.274 28.9147 14.2565V13.5302Z" fill="#F29C50"/>
<path d="M8.1175 7.7919L8.10825 8.50102C8.10808 8.51854 8.11136 8.53591 8.1179 8.55216C8.12444 8.56841 8.13412 8.58321 8.14638 8.59572C8.15864 8.60823 8.17325 8.6182 8.18936 8.62506C8.20548 8.63192 8.22279 8.63554 8.2403 8.63572C9.07752 8.63836 10.06 8.48253 10.0587 9.70006C10.0578 10.7582 10.0582 11.8151 10.06 12.8707C10.0613 14.1014 9.06431 13.8597 8.23502 13.9033C8.20128 13.905 8.1695 13.9197 8.14636 13.9443C8.12322 13.9689 8.11051 14.0016 8.11089 14.0354L8.11221 14.7115C8.11256 14.7464 8.12658 14.7798 8.15127 14.8045C8.17596 14.8292 8.20935 14.8432 8.24427 14.8435L9.9702 14.8554C9.99691 14.8554 10.0227 14.8632 10.0441 14.8779C10.4606 15.164 10.4786 15.4844 10.0983 15.8392C10.0745 15.862 10.0424 15.8748 10.0085 15.8749H8.24295C8.20792 15.8749 8.17433 15.8888 8.14957 15.9135C8.12481 15.9383 8.11089 15.9719 8.11089 16.0069V17.2073C8.11086 17.2372 8.10111 17.266 8.08316 17.2891C7.73366 17.7302 7.40837 17.7126 7.10729 17.2363C7.09351 17.2157 7.08616 17.1913 7.08616 17.1663L7.08748 16.0069C7.08748 15.9719 7.07357 15.9383 7.04881 15.9135C7.02404 15.8888 6.99045 15.8749 6.95543 15.8749H5.22026C5.19195 15.8749 5.16416 15.8656 5.14102 15.8484C4.72021 15.5289 4.71669 15.2058 5.13046 14.8792C5.15356 14.8612 5.18236 14.8515 5.21233 14.8514H6.95543C6.99045 14.8514 7.02404 14.8375 7.04881 14.8128C7.07357 14.788 7.08748 14.7544 7.08748 14.7194V14.0367C7.0875 14.0023 7.07413 13.9693 7.05022 13.9447C7.0263 13.92 6.99372 13.9057 6.95939 13.9046C6.24234 13.8822 5.20177 14.0684 5.18064 13.0106C5.15863 11.8847 5.15335 10.76 5.16479 9.63668C5.17668 8.52875 6.00993 8.63572 6.95543 8.63439C6.99045 8.63439 7.02404 8.62048 7.04881 8.59572C7.07357 8.57095 7.08748 8.53736 7.08748 8.50234V7.78662C7.08748 7.75159 7.07357 7.718 7.04881 7.69324C7.02404 7.66847 6.99045 7.65456 6.95543 7.65456H5.14234C5.12004 7.65454 5.09816 7.64896 5.07876 7.63834C5.05936 7.62771 5.04307 7.6124 5.03142 7.59382C4.19156 6.27593 6.42722 6.60342 6.95675 6.5889C6.99074 6.58821 7.02312 6.57432 7.04703 6.55016C7.07094 6.526 7.08451 6.49347 7.08484 6.45948L7.09541 5.78733C7.09543 5.75825 7.10522 5.73029 7.12314 5.7081C7.44799 5.29434 7.76844 5.29522 8.08448 5.71074C8.10245 5.73386 8.1122 5.7622 8.11221 5.7913L8.11089 6.46609C8.11089 6.50111 8.12481 6.5347 8.14957 6.55946C8.17433 6.58423 8.20792 6.59814 8.24295 6.59814H9.79325C10.0855 6.59814 10.2669 6.73547 10.3373 7.01014C10.571 7.92395 8.73154 7.65456 8.24691 7.66116C8.21257 7.66185 8.17985 7.67588 8.15569 7.70029C8.13153 7.7247 8.11783 7.75756 8.1175 7.7919ZM7.08828 9.6771C7.08828 9.67172 7.08723 9.6664 7.08518 9.66143C7.08314 9.65646 7.08013 9.65194 7.07633 9.64813C7.07254 9.64432 7.06803 9.6413 7.06307 9.63924C7.0581 9.63717 7.05278 9.6361 7.0474 9.6361L6.20491 9.63462C6.19953 9.63461 6.19421 9.63566 6.18924 9.63771C6.18427 9.63976 6.17975 9.64276 6.17594 9.64656C6.17213 9.65035 6.16911 9.65486 6.16705 9.65983C6.16498 9.66479 6.16391 9.67011 6.16391 9.67549L6.16232 10.584C6.16231 10.5894 6.16336 10.5947 6.16541 10.5997C6.16746 10.6047 6.17047 10.6092 6.17426 10.613C6.17806 10.6168 6.18257 10.6198 6.18753 10.6219C6.19249 10.6239 6.19782 10.625 6.20319 10.625L7.04569 10.6265C7.05106 10.6265 7.05639 10.6255 7.06136 10.6234C7.06633 10.6214 7.07085 10.6183 7.07465 10.6145C7.07846 10.6108 7.08148 10.6062 7.08355 10.6013C7.08561 10.5963 7.08668 10.591 7.08669 10.5856L7.08828 9.6771ZM9.0345 9.69265C9.03449 9.6852 9.033 9.67781 9.03014 9.67093C9.02727 9.66405 9.02308 9.65779 9.0178 9.65253C9.01252 9.64726 9.00625 9.64309 8.99936 9.64025C8.99246 9.63741 8.98508 9.63595 8.97762 9.63596L8.16682 9.63739C8.15936 9.6374 8.15198 9.63888 8.14509 9.64175C8.13821 9.64461 8.13196 9.6488 8.12669 9.65409C8.12143 9.65937 8.11726 9.66563 8.11441 9.67253C8.11157 9.67942 8.11011 9.68681 8.11013 9.69426L8.11166 10.5711C8.11167 10.5786 8.11315 10.5859 8.11602 10.5928C8.11888 10.5997 8.12307 10.606 8.12836 10.6112C8.13364 10.6165 8.1399 10.6207 8.1468 10.6235C8.15369 10.6263 8.16108 10.6278 8.16853 10.6278L8.97934 10.6264C8.9868 10.6263 8.99418 10.6249 9.00106 10.622C9.00795 10.6191 9.0142 10.6149 9.01946 10.6097C9.02473 10.6044 9.0289 10.5981 9.03174 10.5912C9.03458 10.5843 9.03604 10.5769 9.03603 10.5695L9.0345 9.69265ZM9.04282 11.7411C9.04283 11.7329 9.04124 11.7249 9.03813 11.7173C9.03503 11.7098 9.03047 11.7029 9.02471 11.6972C9.01896 11.6914 9.01213 11.6868 9.0046 11.6837C8.99708 11.6805 8.98901 11.6789 8.98086 11.6789L8.17535 11.6775C8.1672 11.6775 8.15912 11.6791 8.15158 11.6822C8.14405 11.6853 8.1372 11.6899 8.13142 11.6956C8.12565 11.7014 8.12106 11.7082 8.11793 11.7157C8.1148 11.7233 8.11318 11.7313 8.11316 11.7395L8.11126 12.8329C8.11125 12.841 8.11284 12.8491 8.11595 12.8566C8.11905 12.8642 8.12361 12.871 8.12937 12.8768C8.13512 12.8826 8.14195 12.8871 8.14948 12.8903C8.157 12.8934 8.16507 12.895 8.17322 12.895L8.97873 12.8964C8.98688 12.8965 8.99496 12.8949 9.00249 12.8918C9.01003 12.8887 9.01688 12.8841 9.02266 12.8783C9.02843 12.8726 9.03302 12.8658 9.03615 12.8582C9.03928 12.8507 9.0409 12.8426 9.04092 12.8345L9.04282 11.7411ZM7.08719 11.7154C7.08717 11.7107 7.08622 11.7061 7.08441 11.7018C7.08259 11.6975 7.07995 11.6935 7.07662 11.6903C7.07329 11.687 7.06935 11.6844 7.06501 11.6826C7.06068 11.6808 7.05604 11.6799 7.05135 11.6799L6.19566 11.6844C6.19098 11.6844 6.18635 11.6854 6.18203 11.6872C6.17772 11.689 6.1738 11.6917 6.17051 11.695C6.16721 11.6983 6.16461 11.7023 6.16284 11.7066C6.16107 11.7109 6.16017 11.7156 6.16019 11.7203L6.16604 12.8374C6.16607 12.8421 6.16702 12.8467 6.16883 12.851C6.17064 12.8554 6.17329 12.8593 6.17662 12.8626C6.17995 12.8659 6.18389 12.8685 6.18822 12.8702C6.19256 12.872 6.1972 12.8729 6.20188 12.8729L7.05757 12.8684C7.06225 12.8684 7.06689 12.8674 7.0712 12.8656C7.07552 12.8638 7.07944 12.8612 7.08273 12.8578C7.08602 12.8545 7.08863 12.8506 7.0904 12.8462C7.09217 12.8419 7.09307 12.8372 7.09304 12.8326L7.08719 11.7154Z" fill="#012840"/>
<path d="M12.0659 8.48249L12.2217 5.62355C12.2229 5.59838 12.2314 5.5741 12.2462 5.55369C12.261 5.53328 12.2814 5.51763 12.3049 5.50866C13.018 5.22475 13.2518 5.5562 13.228 6.19401C13.2016 6.95024 13.1677 7.70558 13.1263 8.46004C13.1245 8.49443 13.1362 8.52818 13.1589 8.55408C13.1815 8.57998 13.2135 8.59599 13.2478 8.5987C13.445 8.61366 13.64 8.62027 13.8328 8.61851C14.5644 8.60926 14.9737 8.85224 14.975 9.62475C14.9786 11.7887 14.979 13.9684 14.9764 16.164C14.9764 16.1931 14.9866 16.222 15.0054 16.2459C15.2378 16.5408 15.5134 16.6196 15.8321 16.4823C16.0816 16.374 16.1582 16.127 16.3907 15.9554C16.6838 15.7401 17.1064 15.9646 17.1552 16.2829C17.179 16.4413 17.1323 16.6125 17.0153 16.7965C16.6191 17.4225 16.039 17.6765 15.2748 17.5585C14.0797 17.3736 13.9292 16.4611 13.9252 15.3519C13.9191 13.5146 13.9177 11.6755 13.9213 9.83471C13.9214 9.81743 13.9182 9.80029 13.9117 9.78428C13.9052 9.76826 13.8956 9.7537 13.8834 9.74142C13.8713 9.72914 13.8568 9.71939 13.8409 9.71274C13.8249 9.70608 13.8078 9.70266 13.7905 9.70266H13.1065C13.074 9.70253 13.0426 9.71463 13.0184 9.7366C12.9943 9.75857 12.979 9.78884 12.9758 9.82151C12.7161 12.3736 12.0703 14.8193 11.0385 17.1584C10.789 17.7262 10.2753 17.8384 9.92799 17.2151C9.91781 17.1968 9.91214 17.1763 9.91145 17.1554C9.91076 17.1345 9.91507 17.1138 9.92402 17.095C11.0095 14.7841 11.6733 12.3578 11.9154 9.81623C11.9172 9.79792 11.9152 9.77943 11.9095 9.76194C11.9038 9.74445 11.8945 9.72836 11.8821 9.71468C11.8698 9.701 11.8548 9.69005 11.838 9.68252C11.8212 9.67499 11.803 9.67106 11.7846 9.67097C11.5417 9.67097 11.2978 9.67009 11.0531 9.66833C10.1617 9.66172 10.2027 8.61586 10.9818 8.61851C11.3013 8.61939 11.6196 8.61586 11.9365 8.60794C11.9701 8.607 12.002 8.59356 12.026 8.57031C12.05 8.54705 12.0643 8.51569 12.0659 8.48249Z" fill="#012840"/>
<path d="M21.7799 6.61185L19.8246 6.00659C19.555 5.92313 19.2688 6.07404 19.1853 6.34366L19.1736 6.3815C19.0901 6.65112 19.241 6.93735 19.5107 7.02081L21.4659 7.62607C21.7356 7.70954 22.0218 7.55862 22.1053 7.289L22.117 7.25116C22.2004 6.98154 22.0495 6.69531 21.7799 6.61185Z" fill="#F29C50"/>
<path d="M21.29 16.0527C20.8454 16.5757 20.3538 17.0502 19.815 17.4763C19.1943 17.9662 18.7057 17.0643 19.2406 16.6127C19.8515 16.0968 20.3714 15.5021 20.8001 14.8286C20.8139 14.808 20.8212 14.7836 20.8212 14.7586V11.7307C20.8213 11.6968 20.8083 11.6641 20.7849 11.6395C20.7616 11.615 20.7296 11.6003 20.6958 11.5986C20.4326 11.5863 20.1755 11.5792 19.9246 11.5775C19.4307 11.5735 19.0438 11.4982 19.1508 10.8974C19.1939 10.6606 19.3356 10.54 19.576 10.5356C20.8542 10.5118 22.0295 10.1909 21.9252 12.0463C21.8741 12.9583 21.8671 13.8704 21.9041 14.7824C21.9058 14.8067 21.9135 14.8298 21.9265 14.8497C22.7241 16.0501 23.8281 16.4317 25.2542 16.4476C27.044 16.467 28.839 16.4744 30.6394 16.47C30.9149 16.4692 31.0879 16.6021 31.1583 16.8688C31.2851 17.3442 30.9246 17.5251 30.502 17.5251C27.9173 17.5322 26.0884 17.53 25.0152 17.5185C23.6304 17.5036 22.453 17.0123 21.4828 16.0448C21.4701 16.032 21.4549 16.022 21.4381 16.0155C21.4212 16.0089 21.4032 16.0059 21.3851 16.0066C21.367 16.0073 21.3492 16.0118 21.3328 16.0198C21.3165 16.0277 21.3019 16.0389 21.29 16.0527Z" fill="#F29C50"/>
<path d="M28.5357 20.9701C28.5267 20.9902 28.5229 21.0122 28.5245 21.0342C28.5262 21.0561 28.5333 21.0773 28.5452 21.0958C28.5572 21.1144 28.5736 21.1296 28.5929 21.1401C28.6122 21.1507 28.6339 21.1562 28.6559 21.1563C29.2396 21.1572 29.8228 21.1576 30.4056 21.1576C31.0249 21.1589 31.363 21.3847 31.0249 22.0741C31.0139 22.0963 30.9969 22.115 30.9759 22.1281C30.9549 22.1411 30.9307 22.148 30.9061 22.148H27.8913C27.8709 22.148 27.8506 22.1529 27.8323 22.1623C27.8139 22.1717 27.7979 22.1853 27.7857 22.2021C27.5255 22.5547 26.2724 24.0469 25.896 23.0565C25.8045 22.8153 25.8634 22.6186 26.073 22.4663C27.0171 21.7809 27.5625 20.7984 27.9679 19.7248C27.9799 19.6942 28.0025 19.6693 28.0313 19.6548C28.7048 19.3075 29.0045 19.7975 28.7787 20.3838C28.7021 20.5836 28.6211 20.7791 28.5357 20.9701Z" fill="#7AACBF"/>
<path d="M24.2546 22.3748V23.7521C24.2545 23.7862 24.2677 23.819 24.2914 23.8436C24.315 23.8683 24.3472 23.8828 24.3813 23.8841C24.6578 23.8947 24.9316 23.8991 25.2027 23.8973C25.8841 23.8947 26.2433 24.0941 26.2076 24.8178C26.1689 25.6215 26.1275 26.4244 26.0835 27.2264C26.003 28.6843 25.7164 29.7711 23.9773 29.466C23.5802 29.3965 23.442 29.157 23.5626 28.7476C23.626 28.5293 23.7677 28.429 23.9878 28.4466L24.5887 28.4954C24.8537 28.5166 24.9954 28.3775 25.0139 28.0781L25.2001 25.0304C25.2011 25.0128 25.1986 24.9952 25.1927 24.9786C25.1869 24.962 25.1777 24.9468 25.1657 24.9337C25.1538 24.9207 25.1394 24.9101 25.1233 24.9027C25.1072 24.8952 25.0897 24.8911 25.072 24.8904L24.3576 24.8679C24.324 24.8668 24.2913 24.8784 24.2661 24.9005C24.2408 24.9225 24.2249 24.9534 24.2216 24.9868C24.0772 26.5344 23.6128 27.9782 22.8284 29.3181C22.8147 29.3413 22.794 29.3597 22.769 29.3709C22.3464 29.5655 22.0783 29.437 21.9648 28.9853C21.9563 28.9524 21.9605 28.9179 21.9767 28.8889C23.144 26.7787 23.3302 24.7293 23.2536 22.3748C23.2529 22.3438 23.2411 22.314 23.2203 22.2907C23.1995 22.2675 23.1711 22.2524 23.14 22.248C22.9094 22.2163 22.6814 22.2027 22.456 22.2071C21.6769 22.2216 21.7046 21.2787 22.4151 21.2682C22.7725 21.262 23.1308 21.2536 23.49 21.2431C23.5236 21.2421 23.5557 21.2283 23.5795 21.2045C23.6033 21.1807 23.6171 21.1486 23.6181 21.115L23.6551 19.9239C23.6555 19.9056 23.6597 19.8877 23.6674 19.8713C23.6751 19.8549 23.6862 19.8404 23.7 19.8288C24.2467 19.3521 24.6468 19.6981 24.6468 20.3068C24.6468 20.5771 24.6516 20.8469 24.6613 21.1163C24.6623 21.1496 24.676 21.1813 24.6995 21.2048C24.7231 21.2284 24.7548 21.2421 24.7881 21.2431C25.0768 21.2536 25.3616 21.2585 25.6425 21.2576C26.5985 21.2536 26.5655 22.2361 25.7996 22.2123C25.3224 22.1965 24.8479 22.2066 24.3761 22.2427C24.3429 22.2454 24.312 22.2605 24.2894 22.2849C24.2669 22.3094 24.2545 22.3415 24.2546 22.3748Z" fill="#7AACBF"/>
<path d="M11.218 20.6965L11.0833 20.6781C11.0522 20.6739 11.0235 20.6587 11.0027 20.6352C10.9818 20.6117 10.9701 20.5814 10.9698 20.55L10.9592 19.9042C10.9589 19.8867 10.962 19.8692 10.9685 19.8529C10.975 19.8366 10.9846 19.8217 10.9969 19.8091C11.0092 19.7966 11.0239 19.7866 11.0401 19.7798C11.0563 19.773 11.0737 19.7695 11.0913 19.7695H13.6584C13.6934 19.7695 13.727 19.7836 13.7518 19.8086C13.7765 19.8336 13.7904 19.8675 13.7904 19.9029L13.7865 20.5632C13.7865 20.5806 13.783 20.5978 13.7762 20.6138C13.7694 20.6299 13.7594 20.6444 13.7469 20.6566C13.7343 20.6687 13.7195 20.6783 13.7031 20.6847C13.6868 20.6911 13.6693 20.6943 13.6518 20.6939C13.6192 20.693 13.5866 20.6939 13.5541 20.6965C13.1984 20.7212 13.1958 20.7657 13.5461 20.8299C14.415 20.9901 15.1669 21.3775 15.8016 21.992C15.8232 22.0133 15.837 22.0413 15.8406 22.0713C15.8442 22.1013 15.8374 22.1316 15.8214 22.157L15.688 22.3697C15.678 22.3852 15.6649 22.3986 15.6496 22.4089C15.6342 22.4192 15.6169 22.4261 15.5988 22.4294C15.5806 22.4326 15.5621 22.432 15.5442 22.4276C15.5264 22.4233 15.5097 22.4152 15.4952 22.404L14.9802 22.0078C14.8658 21.9207 14.809 21.9488 14.8099 22.0923L14.8218 23.7113C14.8226 23.8997 14.7505 23.934 14.6052 23.8143L14.2288 23.504C14.2135 23.4911 14.2012 23.4753 14.1928 23.4575C14.1843 23.4397 14.18 23.4204 14.18 23.401L14.1958 21.7252C14.1963 21.6962 14.187 21.6679 14.1696 21.6447C14.1521 21.6215 14.1274 21.6048 14.0994 21.5971L13.4616 21.4149C13.442 21.4094 13.4215 21.4086 13.4015 21.4124C13.3815 21.4163 13.3627 21.4247 13.3465 21.4371C13.3303 21.4495 13.3171 21.4655 13.308 21.4839C13.2988 21.5023 13.294 21.5225 13.2939 21.543V23.3455C13.2939 23.3705 13.3012 23.3949 13.3147 23.416C13.3283 23.437 13.3477 23.4538 13.3705 23.4644C16.2215 24.7836 15.2377 28.9512 12.1358 28.695C9.30195 28.4613 8.77638 24.6093 11.3923 23.471C11.4162 23.4608 11.4364 23.4437 11.4505 23.4218C11.4646 23.3999 11.4719 23.3743 11.4716 23.3482L11.4465 21.5615C11.4462 21.5412 11.4413 21.5213 11.4321 21.5033C11.423 21.4853 11.4098 21.4696 11.3935 21.4574C11.3773 21.4453 11.3586 21.4371 11.3387 21.4334C11.3188 21.4297 11.2983 21.4306 11.2788 21.436L10.6793 21.6011C10.6513 21.6089 10.6267 21.6259 10.6093 21.6493C10.5919 21.6726 10.5826 21.7012 10.5829 21.7305L10.5961 23.2716C10.5965 23.2917 10.5921 23.3117 10.5834 23.33C10.5747 23.3483 10.5619 23.3645 10.5459 23.3772L10.1643 23.6796C10.0498 23.7694 9.99259 23.7417 9.99259 23.5964L9.99127 22.1623C9.99127 21.9801 9.91996 21.9458 9.77734 22.0593L9.33232 22.4146C9.30574 22.4352 9.27231 22.4451 9.23875 22.4422C9.20519 22.4392 9.17399 22.4237 9.15141 22.3987L8.94673 22.1689C8.92355 22.1434 8.91152 22.1096 8.91325 22.075C8.91498 22.0403 8.93034 22.0077 8.95597 21.9841C9.60479 21.3942 10.3601 21.0091 11.222 20.8286C11.4817 20.7749 11.4804 20.7309 11.218 20.6965ZM13.7759 26.013C13.7759 25.6421 13.6286 25.2864 13.3663 25.0241C13.1041 24.7619 12.7484 24.6146 12.3775 24.6146C12.0066 24.6146 11.6509 24.7619 11.3886 25.0241C11.1264 25.2864 10.979 25.6421 10.979 26.013C10.979 26.3839 11.1264 26.7396 11.3886 27.0018C11.6509 27.2641 12.0066 27.4114 12.3775 27.4114C12.7484 27.4114 13.1041 27.2641 13.3663 27.0018C13.6286 26.7396 13.7759 26.3839 13.7759 26.013Z" fill="#F2DAD8"/>
<path d="M5.45034 20.0613C5.95082 20.1511 7.2806 20.6542 7.45359 20.7915C7.94218 21.1784 7.72694 22.1107 6.99272 21.7634C6.4381 21.502 5.85619 21.2841 5.24698 21.1098C5.02073 21.0446 4.90012 20.8945 4.88516 20.6595C4.85523 20.1885 5.04362 19.9891 5.45034 20.0613Z" fill="#F2DAD8"/>
<path d="M21.5364 20.813L19.7748 20.2879C19.5092 20.2087 19.2298 20.3598 19.1506 20.6254L19.1347 20.6786C19.0556 20.9442 19.2067 21.2236 19.4723 21.3028L21.2338 21.828C21.4994 21.9071 21.7789 21.756 21.8581 21.4904L21.8739 21.4373C21.9531 21.1717 21.802 20.8922 21.5364 20.813Z" fill="#7AACBF"/>
<path d="M5.13707 23.2726C5.74847 23.4006 6.56324 23.7466 7.02278 23.9975C7.46912 24.2405 7.5259 25.0421 6.87488 25.1253C6.84745 25.1295 6.8191 25.1244 6.79433 25.1107C6.20801 24.7859 5.59573 24.5213 4.95747 24.3171C4.93337 24.3093 4.91176 24.2942 4.89541 24.2735C4.55559 23.8536 4.60577 23.5243 5.04595 23.2858C5.07407 23.2705 5.10643 23.2658 5.13707 23.2726Z" fill="#F2DAD8"/>
<path d="M29.9276 25.9109C30.1063 25.9171 30.2872 25.9241 30.4703 25.9321C31.0804 25.9598 31.5241 26.4088 30.8678 26.9093C30.8447 26.9264 30.8164 26.9357 30.7873 26.9357H29.2766C29.2418 26.9357 29.2084 26.9494 29.1837 26.9739C29.1589 26.9984 29.1449 27.0316 29.1445 27.0664C29.1401 27.562 29.1388 28.0564 29.1406 28.5494C29.1432 29.2255 28.994 29.6573 28.3152 29.8131C27.9442 29.8989 27.2245 30.0072 26.9472 29.6652C26.6408 29.2875 26.9657 28.9138 27.3909 28.8914C27.5933 28.8817 27.7936 28.8984 27.9917 28.9416C28.011 28.9457 28.031 28.9455 28.0501 28.9409C28.0693 28.9363 28.0872 28.9275 28.1026 28.9151C28.1179 28.9026 28.1302 28.887 28.1387 28.8692C28.1472 28.8513 28.1515 28.8319 28.1515 28.8121L28.1502 27.0677C28.1502 27.0327 28.1363 26.9991 28.1115 26.9743C28.0867 26.9496 28.0531 26.9357 28.0181 26.9357L26.617 26.9343C26.5951 26.9343 26.5736 26.9287 26.5542 26.9181C26.5348 26.9075 26.5183 26.8922 26.5061 26.8736C25.7679 25.7155 27.5242 25.9439 28.0049 25.9426C28.0371 25.9425 28.0682 25.9307 28.0923 25.9093C28.1164 25.8879 28.1318 25.8584 28.1356 25.8264C28.1506 25.6979 28.1577 25.5694 28.1568 25.4408C28.1528 24.9945 28.3733 24.6776 28.8659 24.8307C28.8834 24.8362 28.8996 24.8451 28.9134 24.8569C28.9273 24.8687 28.9385 24.8832 28.9465 24.8994C28.9711 24.9514 29.009 24.9808 29.06 24.9879C29.0801 24.9907 29.1006 24.9877 29.1191 24.9793C29.1376 24.9709 29.1533 24.9574 29.1643 24.9403L29.4905 24.4319C29.5777 24.2964 29.5407 24.2286 29.3796 24.2286L27.0937 24.2273C26.8473 24.2273 26.6976 24.1067 26.6448 23.8654C26.5563 23.4521 26.9023 23.2778 27.272 23.2752C28.1594 23.2672 29.0477 23.2677 29.9368 23.2765C30.4624 23.2804 30.9101 23.5327 30.6975 24.1216C30.4906 24.6947 30.201 25.2199 29.8286 25.697C29.722 25.8335 29.7551 25.9048 29.9276 25.9109Z" fill="#7AACBF"/>
<path d="M8.80191 24.3242H8.21295C8.17503 24.3242 8.14429 24.355 8.14429 24.3929V26.9283C8.14429 26.9662 8.17503 26.997 8.21295 26.997H8.80191C8.83983 26.997 8.87058 26.9662 8.87058 26.9283V24.3929C8.87058 24.355 8.83983 24.3242 8.80191 24.3242Z" fill="#F2DAD8"/>
<path d="M16.5626 24.3281H15.934C15.915 24.3281 15.8997 24.3435 15.8997 24.3625V26.9639C15.8997 26.9829 15.915 26.9982 15.934 26.9982H16.5626C16.5815 26.9982 16.5969 26.9829 16.5969 26.9639V24.3625C16.5969 24.3435 16.5815 24.3281 16.5626 24.3281Z" fill="#F2DAD8"/>
<path d="M30.8691 30.7619C31.532 31.3693 31.0685 31.7892 30.4082 31.7879C28.7091 31.7844 27.01 31.7813 25.311 31.7787C24.6419 31.7787 23.9825 31.6999 23.3328 31.5423C22.588 31.3618 21.9643 30.9859 21.4616 30.4146C21.4486 30.3997 21.4323 30.3879 21.4141 30.3801C21.3959 30.3724 21.3762 30.3688 21.3564 30.3697C21.3366 30.3706 21.3173 30.3759 21.2999 30.3853C21.2824 30.3946 21.2673 30.4078 21.2556 30.4238C20.7855 31.0744 20.1926 31.5916 19.4769 31.9754C19.4582 31.9856 19.4372 31.9911 19.4158 31.9913C19.3944 31.9916 19.3732 31.9866 19.3541 31.9768C18.7981 31.6889 18.884 31.2267 19.3184 30.9005C19.9364 30.4357 20.7604 29.5655 20.7591 28.7401C20.7573 27.8924 20.7538 27.0477 20.7485 26.206C20.7482 26.1713 20.7341 26.138 20.7094 26.1135C20.6847 26.089 20.6513 26.0753 20.6165 26.0753L19.4016 26.0714C19.3802 26.0714 19.359 26.0661 19.3401 26.056C19.3212 26.0458 19.3051 26.0311 19.2933 26.0132C18.8721 25.3966 19.2154 25.0202 19.8585 25.0176C20.7578 25.0149 21.7706 24.7838 21.7825 26.0793C21.7896 26.9737 21.7966 27.869 21.8036 28.7652C21.8054 28.9651 21.8547 29.1381 21.9515 29.2842C22.732 30.4674 23.9535 30.7209 25.3136 30.7249C27.0981 30.7302 28.92 30.7311 30.7793 30.7275C30.8124 30.7275 30.8444 30.7398 30.8691 30.7619Z" fill="#7AACBF"/>
<path d="M4.96401 31.8949C4.74304 31.7901 4.68626 31.6282 4.79366 31.409C5.50675 29.9546 6.07589 28.4391 6.5011 26.8624C6.75861 25.9063 7.77674 26.2813 7.52187 27.2189C7.12836 28.6645 6.60983 30.0629 5.96629 31.4142C5.75368 31.8593 5.45525 32.1247 4.96401 31.8949Z" fill="#F2DAD8"/>
<path d="M11.3914 28.9856C12.5997 29.4042 13.5676 29.0094 14.5673 28.2791C14.5825 28.2682 14.5997 28.2606 14.618 28.2568C14.6362 28.2529 14.655 28.2529 14.6732 28.2568C14.6914 28.2607 14.7085 28.2683 14.7235 28.2792C14.7384 28.2901 14.7509 28.304 14.7601 28.3201L15.9486 30.4091C15.9581 30.4257 15.9639 30.4441 15.9655 30.4632C15.9671 30.4822 15.9645 30.5014 15.9578 30.5194C15.9511 30.5374 15.9406 30.5538 15.9269 30.5674C15.9132 30.5809 15.8967 30.5914 15.8786 30.598L12.4769 31.8406C12.448 31.8517 12.4161 31.8521 12.3871 31.8419L8.87845 30.5927C8.86051 30.5862 8.84417 30.576 8.83057 30.5626C8.81697 30.5493 8.80641 30.5332 8.79964 30.5153C8.79286 30.4975 8.79003 30.4784 8.79132 30.4594C8.79261 30.4404 8.79801 30.4219 8.80714 30.4052L9.93223 28.3385C9.9414 28.3218 9.95411 28.3072 9.96946 28.2958C9.98481 28.2845 10.0025 28.2766 10.0212 28.2727C10.0399 28.2688 10.0592 28.269 10.0778 28.2733C10.0964 28.2776 10.1139 28.2859 10.129 28.2976C10.5199 28.6004 10.9407 28.8298 11.3914 28.9856Z" fill="#F2DAD8"/>
</g>
<defs>
<clipPath id="clip0_1007_8026">
<rect width="30" height="29.2857" fill="white" transform="translate(3 4)"/>
</clipPath>
</defs>
</svg>
