<svg width="93" height="54" viewBox="0 0 93 54" fill="none" xmlns="http://www.w3.org/2000/svg">
<path d="M39.5588 12.5297L35.9291 16.4322L33.3364 19.5273L32.792 22.2994L33.4661 24.91L34.6328 26.6594V29.2162L38.781 32.3113L38.3921 36.7521L39.3255 35.7832L41.1144 35.8101L42.7996 37.694L45.3923 38.5014L47.9849 37.9632L49.2812 37.0212L51.7442 36.6175L55.2443 35.2718L56.1777 33.657C56.1777 33.657 58.5888 37.694 61.4407 36.0254C61.4407 36.0254 63.9815 38.4745 68.1039 33.7915C68.1039 33.7915 72.6151 40.1432 77.93 36.3753C77.93 36.3753 85.8376 39.2012 87.1339 29.5123C87.1339 29.5123 89.7265 28.3011 88.5598 21.8418L86.045 19.5542C86.045 19.5542 86.2783 14.5751 80.1856 16.1631C79.0967 16.4591 77.1522 15.9208 77.1522 15.9208L75.8559 15.3826L72.0965 11.4801L68.9853 10.5381L65.4853 11.6146C65.4853 11.6146 58.7444 12.1529 58.0962 16.19C58.0962 16.19 52.1331 9.59611 46.17 13.0949C46.17 13.068 42.4107 10.5112 39.5588 12.5297Z" fill="#F4F7F9"/>
<path d="M29.1379 21.9766C31.1084 22.7301 33.0788 23.4568 35.0232 24.2104C35.127 24.2373 35.2047 24.2911 35.2047 24.4257C35.2307 24.7756 35.2566 25.1255 35.3084 25.4753C35.4381 26.8479 35.5677 28.1936 35.6973 29.5662C35.6973 29.7008 35.7492 29.7277 35.8529 29.7815C37.3566 30.2929 38.8604 30.8312 40.39 31.3425C40.4419 31.3695 40.4937 31.3695 40.5456 31.3964C40.1308 33.4687 39.7419 35.5411 39.353 37.5865C40.1567 37.7211 40.9604 37.8287 41.7382 37.9633C42.516 38.0979 43.2938 38.3401 44.0197 38.6631C43.9938 38.6631 43.9938 38.6631 43.9679 38.6631C42.6716 38.4208 41.3752 38.2594 40.053 38.2594C38.653 38.2863 37.3048 38.5016 35.9825 38.9591C34.5825 39.4705 33.338 40.251 32.1195 41.0853C30.8491 41.9735 29.6046 42.8885 28.3083 43.6959C25.223 45.6068 21.9045 46.5757 18.3007 46.495C15.9154 46.4411 13.6339 45.9298 11.4042 45.0955C8.78566 44.1266 6.37449 42.8078 4.11889 41.1122C4.06704 41.0853 4.01518 41.0315 3.98926 41.0046C3.98926 40.9777 4.01519 40.9776 4.01519 40.9507C5.54485 41.2199 7.12636 41.3544 8.65602 41.7312C8.68195 41.6774 8.7338 41.5967 8.75973 41.5428C10.1079 39.0399 11.5598 36.5907 12.8302 34.0339C13.0635 33.5495 13.3487 33.065 13.608 32.5806C13.8154 32.2038 13.8154 32.2038 14.2043 32.3114C14.671 32.4191 15.1117 32.4998 15.5784 32.5806C15.5784 32.5537 15.5784 32.5267 15.5784 32.5267C15.5525 32.4998 15.5265 32.4729 15.5006 32.446C14.7487 31.6655 14.2561 30.7504 13.971 29.6739C13.5821 28.2475 13.6598 26.821 13.8932 25.3946C14.1006 24.1566 14.7228 23.1339 15.708 22.3534C16.071 22.0573 16.4858 21.8151 16.8747 21.5729C18.0155 20.8462 19.26 20.5771 20.5822 20.8462C22.0859 21.1692 23.2267 22.0573 24.0045 23.403C25.1453 25.3677 25.249 27.467 24.523 29.5931C23.9008 31.4502 22.7082 32.8497 20.9452 33.6302C20.9192 33.6302 20.8933 33.6571 20.8674 33.684C20.8933 33.7109 20.9192 33.7109 20.9192 33.7109C21.8267 33.8993 22.7341 34.0877 23.6415 34.2761C23.7971 34.303 23.8489 34.3838 23.9008 34.5453C24.4712 36.8868 25.0416 39.2552 25.6119 41.5967C25.6897 41.8658 25.7416 42.1349 25.8193 42.431C25.8971 42.4041 25.949 42.3772 26.0008 42.3503C26.649 42.0273 27.3231 41.7312 27.9453 41.3814C29.2935 40.6547 30.6417 39.928 32.0158 39.2013C33.2603 38.5554 34.5825 38.071 35.9566 37.8287C36.3196 37.7749 36.7085 37.7211 37.0974 37.6404C36.9937 37.6134 36.9418 37.6134 36.8381 37.5865C36.8381 37.5058 36.8381 37.3981 36.8381 37.3174C36.864 35.5411 36.89 33.7648 36.9159 31.9616C36.9159 31.827 36.89 31.7732 36.7603 31.6924C35.801 31.1541 34.8418 30.6159 33.8566 30.0507C33.8047 30.0238 33.7529 29.9969 33.701 29.943C33.9343 29.1087 33.9343 28.3013 33.8047 27.4939C33.6492 26.4712 33.2084 25.6099 32.3528 25.0447C31.6269 24.5603 30.9009 24.0758 30.1231 23.6452C27.7638 22.3264 25.3008 21.2768 22.786 20.3079C22.6563 20.2541 22.6304 20.2003 22.6045 20.0657C22.5526 19.0968 22.4748 18.1548 22.423 17.1859C22.3971 16.8899 22.3971 16.5938 22.3711 16.2978C22.4489 16.3247 22.5008 16.3516 22.5267 16.3785C22.5008 15.5173 22.4748 14.6829 22.4489 13.8486C22.423 12.7182 22.4489 11.5609 22.6823 10.4306C22.76 10.0807 22.8897 9.75773 23.0452 9.43477C23.123 9.27328 23.2526 9.19254 23.46 9.21946C24.2119 9.27328 24.9638 9.3002 25.6897 9.40785C26.7786 9.56934 27.8157 9.94613 28.749 10.619C29.6046 11.238 30.2009 12.0723 30.4861 13.1219C30.512 13.2296 30.512 13.3642 30.4861 13.4987C29.9935 15.0597 29.5009 16.5938 29.0083 18.1548C28.9046 18.4509 28.8268 18.7469 28.7231 19.043C28.8787 19.1237 29.0083 19.1775 29.1639 19.2314C29.2676 19.2583 29.2935 19.3121 29.2676 19.4467C29.1379 20.2541 29.0083 21.0615 28.8528 21.8958C29.0083 21.9496 29.0602 21.9766 29.1379 21.9766ZM20.7896 27.2516C21.0489 26.3904 20.7637 25.5292 20.0637 25.0716C19.7266 24.8563 19.3377 24.8025 18.9748 24.7487C18.197 24.641 17.4451 24.5065 16.6673 24.3988C15.6562 24.2642 14.8006 24.9909 14.671 26.0405C14.5673 27.0094 15.1895 27.9514 16.3043 28.086C17.1599 28.1936 18.0414 28.3551 18.897 28.4628C18.9488 28.4628 18.9748 28.4628 19.0007 28.4897C19.8044 28.5435 20.5303 28.0321 20.7896 27.2516ZM18.5599 35.0566C18.1451 35.0028 17.7562 34.949 17.3673 34.9221C17.3414 34.9221 17.2636 35.0028 17.2636 35.0566C17.0303 35.8371 16.7969 36.6176 16.5895 37.3981C16.0451 39.309 15.5006 41.2468 14.9302 43.1577C14.9043 43.2115 14.9043 43.2653 14.8784 43.3461C15.2414 43.3999 15.6043 43.4537 15.9673 43.5075C16.8488 40.7085 17.7044 37.8826 18.5599 35.0566ZM20.3489 35.2719C19.4414 38.071 18.534 40.87 17.6266 43.669C17.6784 43.669 17.7044 43.6959 17.7562 43.6959C18.197 43.7229 18.6377 43.7229 19.0525 43.7498C19.1562 43.7498 19.2081 43.7229 19.234 43.6152C19.6488 41.7851 20.0896 39.9549 20.5303 38.1248C20.7378 37.2636 20.9452 36.3754 21.1526 35.5142C21.1526 35.4873 21.1526 35.4334 21.1785 35.3796C20.8674 35.3527 20.6341 35.3258 20.3489 35.2719ZM22.5526 35.5411C22.2156 38.2325 21.8785 40.8969 21.5415 43.6152C22.0859 43.5075 22.6304 43.3999 23.1489 43.2922C23.1749 43.2922 23.2267 43.1846 23.2267 43.1307C23.2526 42.4579 23.2526 41.7851 23.2786 41.1122C23.3045 39.3628 23.3563 37.6134 23.3823 35.8371C23.3823 35.7833 23.3823 35.7026 23.3823 35.6218C23.0971 35.6218 22.8378 35.5949 22.5526 35.5411ZM12.6487 42.9154C13.6598 40.1972 14.671 37.4789 15.6821 34.7337C15.3191 34.6798 14.9821 34.6529 14.645 34.5991C14.6191 34.5991 14.5413 34.6798 14.5154 34.7337C14.0747 35.9179 13.608 37.0752 13.1672 38.2594C12.6228 39.6589 12.1042 41.0315 11.5598 42.431C11.5339 42.4848 11.5079 42.5656 11.482 42.6463C11.8968 42.727 12.2598 42.8078 12.6487 42.9154ZM19.1822 21.4921C20.7378 21.8958 21.7748 22.9185 22.2934 24.4526C22.9934 26.6326 22.5785 28.5973 21.023 30.266C20.3748 30.9388 19.5711 31.3425 18.6636 31.504C18.6377 31.504 18.6118 31.504 18.6118 31.5309C19.1044 31.5848 19.597 31.5309 20.0637 31.3695C21.8267 30.7773 22.8897 29.4586 23.3304 27.6284C23.7193 26.0674 23.486 24.5872 22.5785 23.2415C21.723 21.9496 20.5044 21.3306 18.9748 21.4114C19.0266 21.4652 19.1044 21.4921 19.1822 21.4921Z" fill="#41538C"/>
<path d="M58.2553 17.1597C57.996 16.6752 57.7367 16.1908 57.4515 15.7333C56.8552 14.7644 56.1293 13.8762 55.2478 13.1495C53.4329 11.6424 51.3848 11.1579 49.1292 11.8038C48.6106 11.9653 48.1439 12.1806 47.6513 12.369C47.5736 12.396 47.5217 12.3959 47.4439 12.3421C45.8106 11.1848 44.0735 10.3774 42.0512 10.3236C40.2623 10.2698 38.7845 10.9964 37.5659 12.3152C36.7881 13.1764 36.1918 14.1723 35.7252 15.2488C35.5437 15.6525 35.3881 16.0831 35.2326 16.5137C35.2066 16.5945 35.1548 16.6483 35.077 16.6752C34.1955 16.9713 33.4177 17.4826 32.7955 18.2362C32.3029 18.8552 31.9917 19.5819 31.9658 20.4162C31.9658 20.6315 32.0436 20.8738 32.1214 21.0891C32.2769 21.6004 32.5621 22.058 32.8214 22.3002C33.2881 21.439 34.0399 21.116 34.8955 21.116C35.0511 20.497 35.2066 19.878 35.3881 19.2859C35.7252 18.1286 36.2178 17.052 36.8919 16.0562C37.7474 14.7913 38.8623 13.8224 40.3141 13.3648C41.4031 13.015 42.5179 13.0419 43.6327 13.2841C44.4365 13.4456 45.2143 13.7147 45.9661 14.0646C46.0698 14.1184 46.1217 14.1184 46.2254 14.0646C48.2995 13.0419 50.4773 12.6651 52.7329 13.2034C54.0292 13.4994 55.17 14.1453 56.1812 15.0066C56.9071 15.6256 57.5553 16.3523 58.1256 17.1328C58.1516 17.1597 58.1775 17.1866 58.2034 17.2404C58.2293 17.1866 58.2294 17.1597 58.2553 17.1597Z" fill="#41538C"/>
<path d="M57.1644 31.9889C57.0607 32.3657 56.957 32.7425 56.8533 33.1193C56.594 33.8998 56.2311 34.6533 55.7644 35.2993C54.7533 36.6719 53.431 37.3716 51.7458 37.3178C51.3828 37.3178 50.9939 37.2371 50.631 37.1832C50.5532 37.1832 50.5273 37.1832 50.4754 37.2371C49.5421 38.3136 48.4531 39.2018 47.079 39.5786C45.8605 39.9284 44.6938 39.7131 43.6308 38.9865C42.9567 38.5289 42.3863 37.9368 41.8678 37.2909C41.6863 37.0487 41.5048 36.7795 41.3234 36.5104C41.2974 36.4566 41.2456 36.4296 41.1937 36.4296C40.5196 36.3758 39.8974 36.1874 39.3529 35.7568C38.9122 35.4069 38.5751 34.9494 38.4196 34.4111C38.3677 34.2496 38.3937 34.0882 38.4196 33.9267C38.4455 33.5499 38.5492 33.1731 38.7048 32.9578C39.1715 33.4691 39.7418 33.5499 40.3381 33.4153C40.5456 33.819 40.753 34.2227 40.9863 34.5995C41.4271 35.3262 41.9456 35.999 42.5678 36.5642C43.3715 37.2909 44.3049 37.7753 45.3938 37.8292C46.2235 37.883 46.9753 37.6677 47.7013 37.2909C48.2198 37.0218 48.7124 36.6988 49.1791 36.322C49.2309 36.2682 49.2828 36.2682 49.3606 36.2682C50.968 36.618 52.5236 36.4835 54.0273 35.703C54.857 35.2724 55.557 34.6264 56.1274 33.8459C56.5422 33.2807 56.8533 32.6617 57.1126 32.0158C57.1126 31.9889 57.1385 31.962 57.1385 31.9351C57.1385 31.9889 57.1385 31.9889 57.1644 31.9889Z" fill="#41538C"/>
<path d="M57.8662 16.7548C57.9699 16.378 58.0736 15.9743 58.2033 15.5975C58.4884 14.7901 58.8514 14.0635 59.344 13.3906C60.407 12.018 61.7811 11.3721 63.4922 11.5067C63.8811 11.5336 64.27 11.6143 64.633 11.6951C64.7108 11.6951 64.7367 11.6951 64.7886 11.6412C65.7738 10.5647 66.8886 9.70344 68.3146 9.38047C69.585 9.08442 70.7517 9.35356 71.8406 10.1341C72.5406 10.6454 73.111 11.2644 73.6295 11.9642C73.8369 12.2333 74.0184 12.5294 74.1999 12.7985C74.2258 12.8523 74.2777 12.8793 74.3295 12.8793C75.0036 12.96 75.6518 13.2022 76.2222 13.6598C76.6888 14.0365 76.9999 14.521 77.1555 15.0862C77.2074 15.2477 77.1814 15.4361 77.1555 15.5975C77.1296 15.9743 76.9999 16.3511 76.8444 16.5664C76.3777 16.0012 75.7814 15.8936 75.1592 16.0282C74.9517 15.5975 74.7443 15.1938 74.511 14.7901C74.0702 14.0096 73.5517 13.3099 72.9036 12.6909C72.0739 11.9104 71.1406 11.3721 70.0257 11.2644C69.1961 11.1837 68.3923 11.3721 67.6405 11.6951C67.096 11.9373 66.5775 12.2602 66.1108 12.6101C66.059 12.6639 66.0071 12.664 65.9293 12.637C64.27 12.2064 62.6626 12.2872 61.1329 13.0138C60.2514 13.4444 59.5514 14.0635 58.9551 14.844C58.5403 15.4091 58.2032 16.0282 57.9181 16.6741C57.9181 16.701 57.8921 16.7279 57.8921 16.7548C57.8921 16.7548 57.8921 16.7548 57.8662 16.7548Z" fill="#41538C"/>
<path d="M87.7071 25.6638C87.8367 25.4216 87.9923 25.2063 88.1219 24.9641C88.3812 24.4527 88.5886 23.9144 88.6923 23.3492C88.8997 22.165 88.5886 21.1423 87.733 20.2811C87.5515 20.0927 87.3182 19.9312 87.1108 19.7428C87.0849 19.7159 87.0589 19.689 87.0589 19.6351C87.1627 18.6393 87.0589 17.6435 86.5923 16.7285C86.1774 15.921 85.5033 15.4097 84.6218 15.1944C84.0515 15.0598 83.4811 15.0329 82.9107 15.0867C82.6774 15.1136 82.47 15.1405 82.2366 15.1675C82.1848 15.1675 82.1588 15.1675 82.1329 15.1405C81.7699 14.8176 81.381 14.5754 80.8884 14.4946C80.4995 14.4139 80.1106 14.4677 79.7477 14.6292C79.644 14.683 79.5662 14.7638 79.4884 14.8714C79.3069 15.0598 79.1773 15.302 79.1514 15.4904C79.644 15.4904 79.9551 15.7596 80.1884 16.1364C80.4995 16.0556 80.7847 15.9749 81.0959 15.921C81.6662 15.8134 82.2625 15.7596 82.8589 15.8134C83.6107 15.8941 84.3107 16.1633 84.8811 16.7015C85.2959 17.1052 85.5552 17.6166 85.7367 18.1818C85.8663 18.5855 85.9441 18.9892 85.97 19.4198C85.97 19.4737 85.996 19.5006 86.0478 19.5275C87.0071 20.2272 87.7071 21.0885 88.0441 22.2458C88.2256 22.8917 88.2516 23.5645 88.1219 24.2374C88.0441 24.7218 87.8886 25.1794 87.6812 25.61C87.6812 25.61 87.6812 25.6369 87.7071 25.6638C87.6812 25.6638 87.6812 25.6638 87.7071 25.6638Z" fill="#41538C"/>
<path d="M56.4395 33.8721C56.5172 34.0874 56.595 34.3296 56.6987 34.5449C56.9061 35.0024 57.1395 35.4331 57.4765 35.8098C58.1765 36.5903 59.0321 36.9402 60.0432 36.7787C60.2766 36.7518 60.5099 36.6711 60.7173 36.6173C60.7692 36.6173 60.7692 36.6173 60.821 36.6442C61.4433 37.2632 62.1433 37.7207 63.0248 37.8553C63.8026 37.9899 64.5026 37.7746 65.1248 37.2632C65.5396 36.9402 65.8508 36.5365 66.1359 36.079C66.2397 35.9175 66.3434 35.7291 66.4471 35.5676C66.473 35.5407 66.4989 35.5138 66.5248 35.5138C66.9397 35.4331 67.3026 35.2716 67.6397 34.9755C67.8989 34.7333 68.0804 34.4372 68.1582 34.0605C68.1841 33.9528 68.1582 33.8451 68.1323 33.7644C68.1064 33.5222 68.0026 33.3069 67.8989 33.1992C67.6397 33.5491 67.2767 33.6298 66.9137 33.6029C66.81 33.8721 66.7063 34.1143 66.5767 34.3834C66.3434 34.8679 66.0582 35.3254 65.6952 35.7291C65.2285 36.2405 64.6841 36.5903 64.01 36.698C63.5174 36.7787 63.0248 36.698 62.5581 36.5365C62.2211 36.402 61.9099 36.2405 61.5988 36.0521C61.5729 36.0252 61.521 36.0252 61.4951 36.0252C60.5099 36.3481 59.5506 36.375 58.5913 35.9982C58.0469 35.7829 57.6061 35.4331 57.2172 35.0024C56.9321 34.6795 56.7246 34.3296 56.5172 33.9528C56.4654 33.899 56.4654 33.8721 56.4395 33.8721Z" fill="#41538C"/>
<path d="M68.4688 34.4647C68.728 34.8146 68.9614 35.1914 69.2206 35.5412C69.7651 36.2679 70.4132 36.9139 71.1651 37.4252C72.7207 38.4748 74.38 38.6632 76.143 37.9097C76.5319 37.7482 76.9208 37.506 77.2838 37.2906C77.3615 37.2637 77.3875 37.2637 77.4652 37.2906C78.8393 38.0711 80.2912 38.5556 81.8987 38.3941C83.3246 38.2595 84.4654 37.5329 85.3469 36.3217C85.9173 35.5413 86.3062 34.68 86.6173 33.7649C86.721 33.4151 86.8247 33.0383 86.9284 32.6884C86.9543 32.6077 86.9803 32.5807 87.0321 32.5538C87.7321 32.2039 88.3025 31.7464 88.7433 31.0736C89.1062 30.5084 89.2877 29.8894 89.2618 29.2165C89.2618 29.0281 89.1581 28.8666 89.0803 28.6782C88.9247 28.2745 88.6655 27.9247 88.4321 27.7632C88.121 28.5168 87.5506 28.8397 86.8506 28.9474C86.7729 29.4587 86.6951 29.9701 86.5914 30.4815C86.384 31.4504 86.0728 32.3923 85.6062 33.2536C85.0099 34.384 84.2061 35.2721 83.0654 35.7835C82.2098 36.1603 81.3283 36.2679 80.4209 36.1872C79.7727 36.1334 79.1245 35.9719 78.5023 35.7835C78.4245 35.7566 78.3727 35.7566 78.2949 35.8104C76.7134 36.86 75.0022 37.3714 73.1355 37.1561C72.0725 37.0215 71.1392 36.6447 70.2577 36.0257C69.6354 35.5951 69.0651 35.0568 68.5725 34.4916C68.5465 34.4647 68.5206 34.4378 68.4947 34.4109C68.4688 34.4647 68.4688 34.4647 68.4688 34.4647Z" fill="#41538C"/>
<path d="M41.6869 9.35407C41.6869 9.4079 41.6609 9.46172 41.635 9.51555C41.5832 9.56938 41.5313 9.59629 41.4795 9.59629C41.4017 9.59629 41.3498 9.56938 41.298 9.51555L40.7276 8.78888L40.1572 8.84271L40.209 9.51555C40.209 9.65012 40.1572 9.73086 40.0016 9.75777C39.8461 9.75777 39.7683 9.70395 39.7683 9.56938L39.6387 7.92764C39.6387 7.81999 39.6646 7.73925 39.7164 7.65851C39.7683 7.57777 39.872 7.55085 39.9757 7.55085L40.8313 7.47011C41.0128 7.44319 41.1943 7.49702 41.3239 7.63159C41.4535 7.73925 41.5313 7.90073 41.5572 8.08912C41.5572 8.22369 41.5313 8.33135 41.4795 8.46592C41.4276 8.57357 41.3239 8.65431 41.2202 8.73506L41.635 9.30024C41.6609 9.27333 41.6869 9.30024 41.6869 9.35407ZM41.1165 8.08912C41.1165 7.92764 41.0128 7.87381 40.8313 7.87381L40.1572 7.92764C40.1053 7.92764 40.0794 7.98147 40.0794 8.0353L40.1053 8.41209L40.8572 8.35826C40.935 8.35826 40.9868 8.33135 41.0387 8.27752C41.0906 8.22369 41.1165 8.16986 41.1165 8.08912Z" fill="#41538C"/>
<path d="M43.8402 8.6541C43.8142 9.00397 43.7105 9.2462 43.529 9.43459C43.3476 9.62299 43.0624 9.73065 42.7253 9.67682C42.3883 9.6499 42.1549 9.51534 41.9994 9.27311C41.8438 9.0578 41.792 8.78867 41.8179 8.4657C41.8438 8.14274 41.9734 7.90051 42.1549 7.71212C42.3623 7.52372 42.6216 7.44298 42.9327 7.46989C43.2438 7.4968 43.4772 7.63137 43.6327 7.8736C43.8142 8.06199 43.8661 8.33113 43.8402 8.6541ZM43.3994 8.62718C43.4253 8.43878 43.3994 8.25039 43.3216 8.11582C43.2438 7.95434 43.0883 7.8736 42.9068 7.84668C42.7253 7.81977 42.5698 7.8736 42.4401 8.03508C42.3364 8.14273 42.2846 8.30422 42.2586 8.51953C42.2327 8.70792 42.2586 8.86941 42.3623 9.00398C42.4401 9.16546 42.5957 9.2462 42.7772 9.27311C42.9587 9.30003 43.1142 9.2462 43.2438 9.11163C43.3216 8.97706 43.3994 8.81558 43.3994 8.62718Z" fill="#41538C"/>
<path d="M45.9386 10.2418C45.9126 10.2956 45.8608 10.3495 45.8089 10.3764C45.7571 10.4033 45.6793 10.4033 45.6015 10.3764C45.5237 10.3495 45.4719 10.2687 45.446 10.1611L45.3941 9.81119L44.4089 9.46131L44.1756 9.70353C44.0978 9.78427 44.02 9.81119 43.9422 9.78427C43.8904 9.75736 43.8385 9.73045 43.7867 9.64971C43.7607 9.59588 43.7348 9.51514 43.7607 9.46131C43.7607 9.4344 43.7867 9.38057 43.8126 9.35365L45.1608 7.98106C45.2385 7.90031 45.3163 7.90032 45.42 7.92723C45.5237 7.95414 45.6015 8.03488 45.6015 8.14254L45.8867 10.0803C45.9386 10.188 45.9386 10.2149 45.9386 10.2418ZM45.3682 9.38057L45.2645 8.60007L44.7459 9.16526L45.3682 9.38057Z" fill="#41538C"/>
<path d="M47.8053 11.5877C47.7275 11.7223 47.6238 11.7223 47.4942 11.6415C47.3645 11.5608 47.3646 11.4532 47.4423 11.3186L47.9609 10.5381L47.1571 10.9956C47.0794 11.0494 46.9757 11.0494 46.8979 10.9687C46.8201 10.9149 46.7682 10.8341 46.7942 10.7265L46.9238 9.75759L46.4053 10.565C46.3275 10.6996 46.2238 10.6996 46.0941 10.6188C45.9904 10.5381 45.9645 10.4304 46.0423 10.2959L47.0016 8.81561C47.0794 8.68104 47.1831 8.65413 47.3127 8.73487C47.4164 8.81561 47.4423 8.89635 47.4423 8.97709L47.2608 10.4304L48.5053 9.73068C48.5831 9.67685 48.6868 9.67685 48.7646 9.73068C48.8942 9.81142 48.9201 9.91907 48.8164 10.0536L47.8053 11.5877Z" fill="#41538C"/>
<path d="M49.9049 10.2691C49.9309 10.4306 49.879 10.5113 49.7234 10.5382C49.5938 10.5652 49.4901 10.5113 49.4642 10.3498L49.1012 8.60045C49.0753 8.43897 49.1271 8.35823 49.2568 8.33132C49.4123 8.3044 49.4901 8.35823 49.542 8.51971L49.9049 10.2691Z" fill="#41538C"/>
<path d="M52.0582 10.081C52.0582 10.2425 52.0064 10.3232 51.8767 10.3232C51.7989 10.3232 51.7212 10.2963 51.6434 10.2155L50.6063 8.92368L50.6323 10.1348C50.6323 10.2963 50.5545 10.377 50.3989 10.377C50.2693 10.377 50.1915 10.2963 50.1915 10.1617L50.1396 8.38541C50.1396 8.22393 50.1915 8.14318 50.3471 8.14318C50.4508 8.14318 50.5285 8.1701 50.5804 8.25084L51.5915 9.51578L51.5656 8.33158C51.5656 8.1701 51.6175 8.08936 51.773 8.08936C51.9286 8.08936 52.0064 8.1701 52.0064 8.30467L52.0582 10.081Z" fill="#41538C"/>
<path d="M54.1058 10.5109C54.0539 10.6993 53.9761 10.7801 53.8206 10.7262C53.6909 10.6993 53.6391 10.6186 53.665 10.484C53.5095 10.5648 53.3021 10.5917 53.0687 10.5378C52.7835 10.4571 52.5761 10.2956 52.4465 10.0534C52.3428 9.81118 52.3168 9.54204 52.3687 9.24599C52.4465 8.92302 52.5761 8.6808 52.8095 8.51932C53.0428 8.35784 53.3021 8.30401 53.6132 8.38475C54.028 8.49241 54.2873 8.70771 54.391 9.03068C54.4169 9.08451 54.4169 9.13834 54.391 9.19216C54.365 9.24599 54.3391 9.29982 54.3132 9.32673C54.2613 9.35365 54.2354 9.35364 54.1836 9.35364C54.0798 9.32673 54.028 9.2729 54.0021 9.19216C53.9243 8.97685 53.7687 8.8692 53.5354 8.78846C53.3798 8.76154 53.2243 8.78846 53.0687 8.92303C52.9391 9.03068 52.8613 9.19216 52.8354 9.35364C52.7835 9.54204 52.8094 9.73044 52.8613 9.86501C52.9391 10.0265 53.0687 10.1341 53.2502 10.1611C53.4835 10.2149 53.6909 10.1341 53.8206 9.91883L53.5095 9.83809C53.3798 9.81118 53.328 9.73044 53.3539 9.59587C53.3798 9.4613 53.4576 9.40747 53.5872 9.43438L54.0798 9.54204C54.2613 9.59587 54.3132 9.67661 54.2873 9.86501L54.1058 10.5109Z" fill="#41538C"/>
<path d="M59.1347 10.2417C59.3421 10.5108 59.4458 10.7531 59.4458 11.0222C59.4458 11.3182 59.3162 11.5605 59.0569 11.7758C58.7977 11.9911 58.5384 12.0718 58.2532 12.018C57.994 11.9642 57.7606 11.8296 57.5791 11.5874C57.3717 11.3452 57.2939 11.076 57.2939 10.8069C57.2939 10.5108 57.4236 10.2686 57.6828 10.0533C57.9162 9.83798 58.1754 9.75724 58.4606 9.81107C58.694 9.8649 58.9273 9.99946 59.1347 10.2417ZM58.7977 10.5647C58.668 10.4032 58.5384 10.3224 58.4088 10.2686C58.2273 10.2148 58.0717 10.2686 57.9421 10.3763C57.7865 10.5108 57.7347 10.6723 57.7347 10.8338C57.7347 10.9953 57.8125 11.1568 57.9421 11.2913C58.0717 11.4528 58.2014 11.5335 58.331 11.5605C58.4866 11.6143 58.668 11.5605 58.7977 11.4259C58.9532 11.2913 59.0051 11.1568 59.0051 10.9684C59.0051 10.8607 58.9273 10.6992 58.7977 10.5647Z" fill="#41538C"/>
<path d="M61.5478 10.2154C61.5737 10.2692 61.5737 10.3231 61.5219 10.3769C61.4959 10.4307 61.4441 10.4846 61.3922 10.4846C61.3145 10.5115 61.2626 10.5115 61.1848 10.4576L60.433 9.91937L59.8885 10.1347L60.1218 10.7537C60.1737 10.8883 60.1218 10.969 59.9922 11.0228C59.8626 11.0767 59.7589 11.0497 59.707 10.9152L59.1366 9.38109C59.1107 9.27344 59.1107 9.1927 59.1366 9.11195C59.1885 9.03121 59.2403 8.97739 59.344 8.92356L60.1478 8.60059C60.3293 8.51985 60.4848 8.51985 60.6663 8.60059C60.8219 8.65442 60.9256 8.78899 61.0033 8.95047C61.0552 9.08504 61.0552 9.1927 61.0293 9.32726C61.0033 9.46183 60.9515 9.56949 60.8478 9.65023L61.4182 10.0539C61.4959 10.1347 61.5219 10.1616 61.5478 10.2154ZM60.6404 9.16578C60.5885 9.03121 60.4848 8.97739 60.3033 9.05813L59.6811 9.30035C59.6292 9.32726 59.6292 9.35418 59.6292 9.43492L59.7589 9.7848L60.4589 9.51566C60.5367 9.48875 60.5885 9.43492 60.6144 9.38109C60.6663 9.30035 60.6663 9.21961 60.6404 9.16578Z" fill="#41538C"/>
<path d="M63.4391 9.70383C63.4391 9.91914 63.3872 10.0806 63.2576 10.1883C63.128 10.2959 62.9724 10.3498 62.7391 10.3767L61.9094 10.4036C61.6761 10.4036 61.5464 10.2959 61.5464 10.0806L61.5205 8.60037C61.5205 8.49271 61.5464 8.41197 61.6242 8.35814C61.6761 8.30431 61.7538 8.2774 61.8575 8.2774L62.6872 8.25049C63.1279 8.25049 63.3613 8.41197 63.3613 8.76185C63.3613 8.97716 63.2835 9.11173 63.1539 9.21938C63.2317 9.24629 63.3094 9.30012 63.3613 9.38086C63.4131 9.46161 63.4391 9.56926 63.4391 9.70383ZM62.8946 8.84259C62.8946 8.70802 62.8168 8.65419 62.6872 8.65419H62.1427C62.0131 8.65419 61.9613 8.70802 61.9613 8.81567V9.0579L62.6872 9.03098C62.8168 9.0579 62.8946 8.97716 62.8946 8.84259ZM62.9983 9.67692C62.9983 9.59618 62.9724 9.54235 62.9205 9.51543C62.8687 9.48852 62.8168 9.46161 62.7131 9.46161L61.9353 9.48852V9.78457C61.9353 9.89222 61.9872 9.94605 62.1168 9.94605H62.7131C62.9205 9.91914 62.9983 9.8384 62.9983 9.67692Z" fill="#41538C"/>
<path d="M64.995 9.43434C65.0728 9.56891 65.0728 9.67656 64.9432 9.7573C64.8394 9.83804 64.7357 9.81113 64.632 9.70348L63.6468 8.25014C63.5691 8.11557 63.5691 8.00791 63.6987 7.92717C63.8283 7.84643 63.932 7.84643 64.0098 7.981L64.995 9.43434Z" fill="#41538C"/>
<path d="M66.2147 6.77042C66.2406 6.82425 66.2406 6.85116 66.2147 6.90499C66.1888 6.95882 66.1629 7.01264 66.111 7.03956L65.5925 7.3087L66.2406 8.68129C66.3184 8.84277 66.2925 8.92352 66.1629 9.00426C66.0332 9.085 65.9295 9.03117 65.8517 8.8966L65.2036 7.52401L64.711 7.76623C64.6591 7.79314 64.6073 7.79314 64.5554 7.76623C64.5036 7.73931 64.4517 7.7124 64.4517 7.65857C64.4258 7.60475 64.4258 7.55092 64.4258 7.49709C64.4517 7.44326 64.4776 7.41635 64.5295 7.38944L65.9295 6.66276C65.9814 6.63585 66.0332 6.63585 66.0851 6.66276C66.1369 6.68968 66.1888 6.71659 66.2147 6.77042Z" fill="#41538C"/>
<path d="M34.8916 23.2949C34.8916 23.2949 35.5398 10.5109 46.04 14.1442L48.6326 15.1669L46.4548 13.4714C46.4807 13.4983 34.8916 7.14664 34.8916 23.2949Z" fill="#D4E2E8"/>
<path d="M46.6885 13.7405C46.6885 13.7405 53.896 10.5647 57.7591 16.701C57.7591 16.701 53.6108 12.341 46.6885 13.7405Z" fill="#D4E2E8"/>
<path d="M40.3369 33.4154C40.3369 33.4154 48.4778 37.9908 52.1075 33.0117C52.1075 33.0117 45.5222 43.6157 40.3369 33.4154Z" fill="#D4E2E8"/>
<path d="M49.332 36.2948C49.332 36.2948 55.1396 37.5867 57.0581 32.0425C57.0581 32.0425 54.7507 35.8373 49.4357 36.1334" fill="#D4E2E8"/>
<path d="M58.0693 16.3788C58.0693 16.3788 61.7509 8.49312 69.0362 14.6833C69.0362 14.6833 62.2435 11.0768 58.0693 16.3788Z" fill="#D4E2E8"/>
<path d="M66.0029 12.7449C66.0029 12.7449 71.3956 7.65819 75.1809 16.0284C75.1809 16.0284 71.9919 9.70364 66.0029 12.7449Z" fill="#D4E2E8"/>
<path d="M57.2421 32.0151L56.4902 33.926C56.4902 33.926 58.1755 38.0438 62.583 35.4063C62.583 35.4063 56.7236 37.1287 57.2421 32.0151Z" fill="#D4E2E8"/>
<path d="M61.4658 35.972C61.4658 35.972 65.6918 39.1478 67.2993 32.231C67.2993 32.231 65.9511 37.0216 61.4658 35.972Z" fill="#D4E2E8"/>
<path d="M67.2996 32.231L66.8848 33.5766C66.8848 33.5766 67.8181 33.6036 67.87 33.1729C67.87 33.1729 68.2329 33.4959 68.1033 34.1687C68.1033 34.1687 72.5367 39.9552 78.448 35.6759C78.448 35.6759 72.7442 38.1789 68.57 34.0342C68.57 34.0342 68.0774 33.2268 68.0255 32.7961C67.9737 32.3655 67.6107 34.0342 67.2996 32.231Z" fill="#D4E2E8"/>
<path d="M77.332 34.5716C77.332 34.5716 78.1358 36.6978 81.6099 36.2672C81.6099 36.2672 85.9137 36.6709 86.8471 29.0274C86.8471 29.0005 84.7989 39.1739 77.332 34.5716Z" fill="#D4E2E8"/>
<path d="M75.1807 16.028C75.1807 16.028 76.7881 16.5125 77.0992 17.912C77.0992 17.912 77.3326 15.4628 75.1807 16.028Z" fill="#D4E2E8"/>
<path d="M76.8672 16.5668C76.8672 16.5668 77.5672 14.6021 79.8747 15.7055L80.1339 16.1361L80.1858 16.2438C80.2117 16.2707 79.045 15.3826 76.8672 16.5668Z" fill="#D4E2E8"/>
<path d="M86.0451 20.2541C86.0451 20.2541 85.5525 15.5711 80.082 16.1363C80.082 16.1632 86.0192 13.6333 86.0451 20.2541Z" fill="#D4E2E8"/>
<path d="M86.0459 19.5273C86.0459 19.5273 89.2349 22.9454 86.3311 27.0901C86.3311 27.0901 90.946 23.4298 86.0459 19.5273Z" fill="#D4E2E8"/>
<path d="M88.7403 22.7842C88.7403 22.7842 89.0514 27.6286 86.8477 29.0012C86.8477 29.0012 89.9329 28.8398 88.7403 22.7842Z" fill="#D4E2E8"/>
<path d="M76.6658 25.0894L77.5497 25.2138C78.1306 25.2971 78.4202 25.6449 78.4183 26.2571L78.358 28.6806C78.353 28.8477 78.4928 28.9801 78.8022 29.0765C79.2976 29.2753 79.9625 29.438 80.8463 29.5624C81.7795 29.6844 82.6601 29.7812 83.4633 29.8538C84.1645 29.9035 84.7669 29.958 85.2705 30.0173C85.4713 30.0354 85.6046 30.1125 85.7165 30.2184C85.8317 30.3519 85.8793 30.5444 85.8842 30.7946C85.8709 31.1013 85.823 31.3262 85.7094 31.4151C85.6024 31.5594 85.4328 31.5953 85.1579 31.5807L81.1469 31.0504C79.6574 30.8438 78.6057 30.5606 78.0166 30.1994C77.9327 30.12 77.8521 30.0682 77.778 30.0718C77.7286 30.0742 77.6825 30.1042 77.615 30.1631C77.4306 30.2833 77.2462 30.4034 76.9877 30.5272C76.8461 30.5896 76.726 30.6232 76.6272 30.628C76.5252 30.6051 76.4231 30.5822 76.3392 30.5027C76.1928 30.315 76.0431 30.0996 75.9362 29.8265C75.8919 29.6617 75.8508 29.5246 75.8623 29.4128C75.8739 29.3009 75.9135 29.2155 76.0271 29.1266C76.381 28.9705 76.6823 28.789 76.9095 28.6111C76.9803 28.5799 77.0199 28.4945 77.0133 28.4392L77.0634 26.7674C77.0536 26.6844 77.0223 26.6303 76.9483 26.6339L76.6454 26.5928C76.4166 26.5482 76.2587 26.4723 76.1649 26.3099C76.0777 26.2028 76.0301 26.0103 76.0252 25.7601C76.0204 25.51 76.0995 25.3392 76.2098 25.2226C76.2708 25.1084 76.4403 25.0724 76.6658 25.0894ZM80.745 20.3301C80.9705 20.3471 81.1284 20.423 81.2189 20.5577C81.3588 20.6901 81.4031 20.8549 81.4047 21.0774L81.3962 21.6343L81.8999 21.6935C82.1254 21.7105 82.2833 21.7864 82.3952 21.8923C82.4232 21.9188 82.4265 21.9464 82.4265 21.9464C82.4479 21.9176 82.4907 21.8599 82.5088 21.8033C82.6489 21.5184 82.7889 21.2334 82.8828 20.9785C82.9307 20.7536 83.0904 20.6346 83.3159 20.6516C83.5167 20.6697 83.6746 20.7456 83.8112 20.8503C83.9758 20.9815 84.0448 21.1451 84.0645 21.3111C84.0497 21.3953 84.0381 21.5072 84.0051 21.6479L85.442 21.8291C85.6428 21.8473 85.8008 21.9231 85.86 22.0038C85.9472 22.1109 85.9915 22.2757 85.9684 22.4993C85.9699 22.7219 85.9402 22.8902 85.848 22.9503C85.7624 23.0657 85.5928 23.1017 85.392 23.0835L83.3989 22.8178C83.2523 23.0474 83.1024 23.2494 82.9739 23.4225C82.9525 23.4513 82.9311 23.4802 82.9097 23.5091L85.0017 23.7701C85.2551 23.8135 85.4658 23.9147 85.6122 24.1024C85.7586 24.2901 85.8309 24.4814 85.8358 24.7316C85.8275 24.8711 85.7764 25.0683 85.633 25.3256C85.4222 25.6418 85.2081 25.9303 84.9874 26.1635L85.4911 26.2227C85.6919 26.2409 85.8499 26.3168 85.9091 26.3974C85.993 26.4768 86.0127 26.6428 86.0142 26.8653C86.0092 27.0325 85.9763 27.1732 85.912 27.2598C85.8017 27.3764 85.6568 27.4111 85.456 27.393L84.9524 27.3338C84.9885 27.6381 85.018 27.8871 84.9981 28.1384C84.9831 28.64 84.8562 29.0356 84.6635 29.2953C84.4675 29.5273 84.2337 29.6498 83.9589 29.6352C83.4552 29.576 83.0685 29.4555 82.8545 29.3267C82.5419 29.2026 82.3889 28.9596 82.3956 28.5975C82.3973 28.4027 82.455 28.2608 82.5654 28.1442C82.6263 28.03 82.7712 27.9952 82.972 28.0133C82.9967 28.0122 83.0773 28.0639 83.2106 28.141C83.3439 28.218 83.4492 28.2686 83.5479 28.2638C83.6747 28.2856 83.7538 28.1148 83.7638 27.7805C83.7754 27.6686 83.7244 27.4485 83.6669 27.173L82.7337 27.051C82.5576 27.0317 82.4243 26.9546 82.3157 26.8764C82.2877 26.8499 82.2598 26.8234 82.2532 26.7681C82.2415 27.2973 82.1952 27.7447 82.1605 28.0802C82.0829 28.4735 81.9396 28.7308 81.7305 28.8521C81.5 29.0023 81.2103 29.0719 80.8301 29.0067L80.5026 28.9669C80.3265 28.9475 80.1965 28.8981 80.0599 28.7934C79.9299 28.744 79.8427 28.6369 79.8016 28.4998C79.7638 28.3903 79.7474 28.252 79.7524 28.0848C79.7096 28.1425 79.6914 28.199 79.6486 28.2567C79.5234 28.4575 79.3358 28.55 79.0823 28.5066C78.8288 28.4631 78.6708 28.3873 78.5491 28.1984C78.4587 28.0636 78.4176 27.9265 78.4259 27.787C78.4374 27.6751 78.4704 27.5344 78.5314 27.4202C78.8147 26.8779 79.0323 26.1997 79.184 25.3855C79.2699 24.8528 79.3377 23.9592 79.363 22.7059L79.2856 22.6818C79.0848 22.6637 78.9268 22.5878 78.8117 22.4543C78.7245 22.3472 78.6768 22.1547 78.672 21.9045C78.6672 21.6543 78.7216 21.4848 78.8384 21.4235C78.9274 21.3358 79.1002 21.3275 79.3257 21.3444L80.0055 21.423L80.0139 20.8661C80.0157 20.6713 80.07 20.5017 80.2018 20.3563C80.3499 20.3492 80.5195 20.3132 80.745 20.3301ZM79.9682 27.6014C80.039 27.5702 80.0851 27.5402 80.1345 27.5378L80.36 27.5548C80.4094 27.5524 80.4373 27.5789 80.4867 27.5765C80.6414 27.6247 80.7435 27.6476 80.8175 27.644C80.8916 27.6405 80.941 27.6381 80.9838 27.5804C81.0299 27.5503 81.0662 27.4373 81.0991 27.2966C81.1306 26.9334 81.1473 26.237 81.1741 25.2063C81.1791 25.0391 81.1199 24.9585 80.9685 24.938L80.5389 24.8752C80.5009 25.1831 80.4811 25.4344 80.4332 25.6593C80.3061 26.4723 80.1594 27.1193 79.9682 27.6014ZM82.3375 26.0128C82.3589 25.984 82.3836 25.9828 82.3803 25.9551C82.4725 25.895 82.5927 25.8614 82.7935 25.8796L83.3745 25.9629C83.3301 25.7981 83.3137 25.6598 83.3286 25.5756C83.3303 25.3808 83.4159 25.2653 83.5328 25.2041C83.6497 25.1428 83.7978 25.1357 83.974 25.155C84.1254 25.1756 84.2307 25.2261 84.2866 25.2791C84.4217 25.1613 84.4826 25.0471 84.4975 24.9629C84.4909 24.9076 84.4597 24.8534 84.4103 24.8558L82.924 24.6769C82.7726 24.6564 82.6393 24.5793 82.5521 24.4722C82.4649 24.3651 82.4238 24.228 82.4288 24.0608C82.4306 23.866 82.4915 23.7518 82.5805 23.664L82.5311 23.6664C82.3797 23.6459 82.2184 23.5423 82.0753 23.3823C82.016 23.3017 81.9815 23.2199 81.9437 23.1104C81.919 23.1116 81.8943 23.1128 81.8696 23.1139L80.6336 22.9509C80.617 23.2299 80.6251 23.5077 80.6052 23.7591L81.387 23.8606C81.8413 23.9222 82.1046 24.0486 82.2016 24.2387C82.3201 24.3999 82.3643 24.9821 82.3309 25.9575L82.3375 26.0128Z" fill="#FFE252"/>
<path d="M78.3881 21.0086C78.4536 21.5609 78.1152 22.0493 77.5982 22.0742C77.1058 22.0979 76.635 21.6763 76.5663 21.0964C76.5009 20.5441 76.8392 20.0557 77.3562 20.0308C77.8486 20.0071 78.3227 20.4564 78.3881 21.0086Z" fill="#FFE252"/>
<path d="M77.2354 23.0703C77.3139 23.733 76.9083 24.2802 76.3174 24.3086C75.7266 24.3371 75.1967 23.835 75.1182 23.1722C75.0397 22.5095 75.4453 21.9623 76.0362 21.9339C76.6024 21.9066 77.1569 22.4075 77.2354 23.0703Z" fill="#FFE252"/>
<path d="M63.6349 25.4806C63.8198 25.3767 63.9996 25.3279 64.1495 25.3332C64.3493 25.3403 64.4892 25.4556 64.5916 25.7076C64.6515 25.8752 64.6864 26.042 64.6914 26.2629C64.7787 26.9558 64.8511 27.5378 64.8835 28.0079C64.9159 28.4781 64.9359 28.8099 64.9184 29.0025C64.9558 29.4176 64.8034 29.7157 64.4836 29.9252C64.2763 30.0006 64.074 30.021 63.8791 29.9589C63.7093 29.8977 63.5719 29.7549 63.492 29.5314C63.4471 29.1987 63.4022 28.3142 63.3575 26.8779C63.33 26.6286 63.3276 26.3802 63.3176 26.2143C63.3276 25.8284 63.4251 25.5835 63.6349 25.4806ZM66.4275 25.3587L72.0128 24.8391C72.2901 24.8214 72.5149 24.8293 72.7097 24.8914C72.8496 25.0067 72.937 25.1478 72.9444 25.3412C72.9394 25.6721 72.8145 25.9436 72.5647 26.2106C72.2524 26.6134 71.7378 27.0367 70.9908 27.5344C71.6103 27.6116 72.2847 27.6354 73.0141 27.6061C73.2889 27.6158 73.4262 27.7586 73.4462 28.0904C73.4511 28.3113 73.4112 28.4755 73.3512 28.5837C73.2862 28.7469 73.1513 28.8525 72.8965 28.8987C72.4669 28.9387 71.9898 28.9494 71.4902 28.9317C70.7184 28.8767 69.9541 28.7393 69.2472 28.5211C68.0682 29.0864 67.009 29.4352 66.0998 29.5133C65.8725 29.5329 65.7276 29.4726 65.6402 29.3315C65.5528 29.1905 65.4929 29.0228 65.4854 28.8294C65.468 28.4701 65.6403 28.2279 66 28.1303C66.4821 28.0646 66.9967 27.9172 67.5887 27.7451C67.3764 27.5996 67.1666 27.4266 67.0043 27.2829C66.8419 27.1392 66.7595 26.9432 66.7571 26.6947C66.7621 26.6397 66.7671 26.5847 66.7996 26.5031L66.4698 26.5466C66.1951 26.5369 66.0352 26.3657 66.0203 25.9789C66.0054 25.5921 66.1478 25.404 66.4275 25.3587ZM66.5702 22.6875L72.4353 22.1226C72.8399 22.0817 73.0472 22.2822 73.0572 22.724L73.067 23.7176C73.077 24.1594 72.8796 24.4008 72.475 24.4416L66.6099 25.0065C66.2053 25.0473 65.998 24.8469 65.988 24.4051L65.9782 23.4114C65.9682 22.9696 66.1656 22.7283 66.5702 22.6875ZM67.1103 18.6783L71.8113 18.2378C72.2409 18.1978 72.4457 18.4258 72.4532 18.8951L72.5029 21.1041C72.5103 21.5734 72.3104 21.8423 71.8808 21.8822L67.1798 22.3228C66.7501 22.3627 66.5203 22.1339 66.5129 21.6646L66.4632 19.4555C66.4558 18.9862 66.6781 18.7458 67.1103 18.6783ZM68.1088 23.9559L68.1063 23.4316L67.3719 23.516C67.297 23.5133 67.267 23.5674 67.257 23.6775L67.2595 23.9259C67.252 24.0084 67.2994 24.0376 67.3744 24.0403L68.1088 23.9559ZM67.8645 20.0294L71.0992 19.73L71.0943 19.5091C71.0818 19.3708 71.0368 19.314 70.9344 19.3379L68.0518 19.6221C67.9245 19.6452 67.8695 19.6985 67.882 19.8369L67.8645 20.0294ZM70.9617 20.9668C71.0641 20.9428 71.1191 20.8896 71.1316 20.7521L71.1266 20.5312L67.8918 20.8305L67.8968 21.0514C67.9093 21.1898 67.9542 21.2466 68.0816 21.2235L70.9617 20.9668ZM67.9636 26.3788C68.3882 26.6697 68.8178 26.9057 69.2274 27.0857C70.1667 26.6775 70.6962 26.3652 70.7637 26.1744C70.7687 26.1194 70.7213 26.0902 70.6438 26.115L67.9636 26.3788ZM70.0047 23.7747L70.0022 23.2504L69.093 23.3286L69.0954 23.8529L70.0047 23.7747ZM71.6733 23.6131C71.7732 23.6166 71.8031 23.5625 71.8106 23.48L71.8082 23.2316C71.8157 23.1491 71.7707 23.0923 71.6683 23.1163L70.9864 23.1749L70.9888 23.6992L71.6733 23.6131ZM64.7196 20.4422C64.2899 20.7581 63.7254 20.6278 63.4657 20.1771C63.206 19.7265 63.3634 19.0974 63.7931 18.7816C64.2228 18.4657 64.7873 18.596 65.047 19.0467C65.3067 19.4973 65.1493 20.1264 64.7196 20.4422ZM64.3871 22.7205C64.3271 23.3806 63.805 23.8863 63.2055 23.8651C62.606 23.8438 62.1789 23.3045 62.2389 22.6444C62.299 21.9844 62.8211 21.4787 63.4206 21.4999C64.0201 21.5211 64.4446 22.088 64.3871 22.7205Z" fill="#6FE2CF"/>
<path d="M52.29 25.0429L53.2756 25.1655C53.8167 25.2426 54.0344 25.5556 53.926 26.1322L53.5256 28.3569C53.5116 28.4947 53.6247 28.6099 53.8648 28.7025C54.2704 28.8848 54.8805 29.0199 55.6424 29.1335C56.4789 29.2501 57.2933 29.3381 58.0332 29.4232C58.6765 29.4767 59.2176 29.5537 59.6621 29.5992C59.8332 29.6338 59.9519 29.6939 60.0401 29.8081C60.1283 29.9223 60.1584 30.1171 60.1112 30.3365C60.0556 30.6386 59.9615 30.8285 59.8537 30.9071C59.7403 31.0409 59.5608 31.089 59.3151 31.0515L55.7235 30.5476C54.3707 30.355 53.4488 30.0966 52.9578 29.7726C52.9137 29.7155 52.8447 29.6574 52.7702 29.6544C52.7205 29.6524 52.6431 29.677 52.563 29.7291C52.3502 29.8589 52.1402 29.9611 51.8557 30.0603C51.701 30.1094 51.5712 30.1596 51.4469 30.1546C51.3475 30.1506 51.2786 30.0925 51.2096 30.0344C51.1022 29.8641 51.0003 29.6387 50.926 29.3867C50.8903 29.247 50.9043 29.1092 50.9155 28.999C50.9267 28.8888 51.0096 28.8091 51.1174 28.7305C51.5318 28.5811 51.8716 28.4288 52.1368 28.2735C52.2418 28.2223 52.2723 28.1682 52.3027 28.1141L52.5807 26.6038C52.5891 26.5211 52.5671 26.4926 52.4705 26.461L52.0536 26.389C51.8328 26.3524 51.6672 26.2628 51.6343 26.0955C51.5709 25.9823 51.538 25.815 51.5908 25.5405C51.638 25.3211 51.7073 25.1302 51.8427 25.025C51.9145 25.0555 52.0664 25.034 52.29 25.0429ZM57.0254 20.6686C57.2214 20.7041 57.3649 20.7652 57.4503 20.9069C57.5137 21.0201 57.5907 21.2445 57.687 21.5251C57.7612 21.777 57.7941 21.9443 57.8078 22.0555L58.4731 22.1376C58.6225 21.8946 58.8024 21.5975 58.985 21.2729C59.1345 21.0299 59.3693 20.9287 59.7144 20.9702C59.9104 21.0057 60.0539 21.0668 60.1697 21.1545C60.2828 21.2697 60.3185 21.4094 60.3017 21.5747C60.2933 21.6574 60.1411 21.9279 59.8756 22.3322L60.8363 22.4538C61.0074 22.4883 61.104 22.5199 61.195 22.6065C61.2612 22.6921 61.2969 22.8319 61.2469 23.0789C61.1997 23.2983 61.1609 23.435 61.1056 23.4881C60.995 23.5944 60.8403 23.6435 60.6443 23.6079L58.5517 23.3303L58.3026 23.8182L59.8044 24.0168C60.3206 24.0929 60.5135 24.4049 60.43 24.9825L59.8127 28.3604C59.7043 28.937 59.4058 29.174 58.8868 29.1255L54.9749 28.5811C54.4587 28.505 54.2658 28.193 54.3742 27.6164L54.9914 24.2385C55.0998 23.6619 55.3983 23.4249 55.9174 23.4734L56.903 23.596L57.1272 23.1071L55.3797 22.8709C55.2334 22.8374 55.1148 22.7773 55.0486 22.6916C54.9825 22.606 54.9495 22.4387 54.9967 22.2193C55.044 21.9999 55.1076 21.8641 55.2154 21.7854C55.2956 21.7333 55.4226 21.7107 55.5937 21.7453L56.4799 21.8639C56.3973 21.6946 56.3147 21.5253 56.2321 21.356C56.2128 21.2999 56.1936 21.2438 56.1964 21.2162C56.2464 20.9692 56.3625 20.8079 56.5449 20.7323C56.6747 20.6821 56.8514 20.6616 57.0254 20.6686ZM58.4352 28.1668C58.5097 28.1698 58.5622 28.1442 58.5982 28.035L58.6622 27.6503L55.7828 27.258L55.7188 27.6427C55.7105 27.7254 55.7297 27.7815 55.8015 27.812L58.4352 28.1668ZM55.9192 26.4059L58.7986 26.7982L58.9014 26.2767L56.022 25.8844L55.9192 26.4059ZM56.1584 25.0323L59.0378 25.4246L59.1018 25.0399C59.1102 24.9572 59.0909 24.9011 58.9943 24.8696L56.3358 24.5138C56.2612 24.5108 56.2087 24.5364 56.1975 24.6466L56.1584 25.0323Z" fill="#6EB3E5"/>
<path d="M54.2387 20.5761C54.2561 21.1004 53.8386 21.5875 53.2711 21.6417C52.7307 21.6934 52.2575 21.3179 52.2392 20.7673C52.2218 20.243 52.6394 19.756 53.2068 19.7018C53.7472 19.6501 54.2213 20.0518 54.2387 20.5761Z" fill="#6EB3E5"/>
<path d="M53.1023 22.6292C53.1232 23.2584 52.6263 23.8056 51.9779 23.8676C51.3294 23.9296 50.7995 23.4806 50.7786 22.8514C50.7577 22.2222 51.2546 21.675 51.9031 21.613C52.5245 21.5536 53.0815 22 53.1023 22.6292Z" fill="#6EB3E5"/>
<path fill-rule="evenodd" clip-rule="evenodd" d="M39.1268 19.2232L40.4759 19.0908L40.431 18.7867C40.4066 18.6208 40.4313 18.4511 40.5339 18.3034L40.5544 18.2738C40.616 18.1851 40.7596 18.1461 40.981 18.1289C41.2024 18.1118 41.3787 18.1261 41.4893 18.2014C41.6287 18.3025 41.7269 18.4627 41.7555 18.6562L41.8003 18.9604L43.0264 18.8375C43.2232 18.8223 43.3503 18.8404 43.4609 18.9157C43.5716 18.991 43.6412 19.1255 43.6819 19.402C43.7146 19.6231 43.7144 19.7909 43.6734 19.85C43.5953 19.9959 43.46 20.0903 43.2385 20.1074L42.1355 20.2208C42.0617 20.2265 42.0207 20.2856 42.0329 20.3685L42.09 20.7556C42.1022 20.8385 42.1596 20.89 42.2334 20.8843L42.9182 20.8033C43.4553 20.7338 43.7954 21.0151 43.8851 21.6233L44.3421 24.3844C44.4523 24.9631 44.1075 25.4931 43.5908 25.5331L43.0045 25.6064C42.9307 25.6122 42.8896 25.6713 42.9018 25.7542L42.963 26.1689C42.9752 26.2519 43.0326 26.3034 43.1064 26.2977L44.2832 26.1786C44.4801 26.1634 44.6072 26.1815 44.7178 26.2568C44.8244 26.3045 44.898 26.4666 44.9347 26.7154C45.1082 25.1919 45.0766 23.6284 44.7869 22.001L44.6644 21.3393C44.6522 21.2564 44.5948 21.2049 44.521 21.2106L44.2996 21.2277C44.1028 21.243 43.9429 21.1714 43.7954 21.0151C43.6807 20.9121 43.6357 20.7758 43.5785 20.5565C43.5459 20.3353 43.5665 20.1379 43.6692 19.9902C43.7512 19.872 43.8948 19.8329 44.0383 19.7938L44.0383 19.7938L44.2598 19.7767C44.3336 19.771 44.3746 19.7119 44.3624 19.6289L44.1584 18.4143C44.1053 18.0549 44.2736 17.8461 44.6386 17.7899C45.0322 17.7594 45.2822 17.9358 45.3598 18.2934L45.5638 19.508C45.576 19.5909 45.6334 19.6424 45.7072 19.6367L46.392 19.5557C46.6872 19.5329 46.9168 19.571 47.134 19.694L47.1627 19.7198C47.3594 19.8723 47.4986 20.1412 47.5516 20.5006L48.633 26.8207C48.6574 26.9865 48.7435 27.0638 48.8665 27.0542C48.9157 27.0504 48.9567 26.9913 48.961 26.8512C49.0062 26.6519 48.9819 26.3183 48.9372 25.8463C48.9331 25.8187 48.929 25.791 48.9536 25.7891C49.007 25.6452 49.1178 25.5527 49.3146 25.5375C49.4377 25.528 49.5442 25.5756 49.6549 25.651C49.7696 25.7539 49.8597 25.8588 49.8842 26.0247C49.9944 26.6034 49.9981 27.1344 49.9239 27.6435L49.9279 27.6712C49.821 28.1269 49.6854 28.3891 49.4476 28.4634L49.423 28.4653L48.7874 28.5425C48.3445 28.5767 48.0371 28.5166 47.8322 28.3088C47.6602 28.1543 47.5456 27.8836 47.4557 27.4431L46.3866 21.206C46.3702 21.0954 46.2883 21.0458 46.1653 21.0553L45.8208 21.082L45.9637 21.8819C46.3473 24.1453 46.403 26.2103 46.1309 28.0769C46.1099 28.6099 45.9252 28.8759 45.5849 28.9302C45.3388 28.9492 45.1339 28.9091 44.9945 28.8081L44.9659 28.7823C44.8471 28.6517 44.7693 28.462 44.7367 28.2408C44.7303 28.1976 44.744 28.0847 44.766 27.9029C44.7722 27.8519 44.7791 27.7954 44.7863 27.7336C44.8151 27.5916 44.8234 27.4791 44.8317 27.3666L44.8317 27.3666C44.7455 27.4571 44.6307 27.5219 44.4831 27.5334L43.3062 27.6524C43.2324 27.6581 43.1914 27.7172 43.2036 27.8002L43.3546 28.6554C43.3913 28.9042 43.3666 29.0739 43.2845 29.1921C43.1778 29.3122 43.0178 29.4085 42.7964 29.4256C42.5749 29.4428 42.4192 29.3989 42.2798 29.2978C42.1405 29.1968 42.0669 29.0347 42.0302 28.7858L41.8791 27.9307C41.8669 27.8477 41.8095 27.7962 41.7357 27.8019L40.5097 27.9248C40.3375 27.9381 40.2063 27.8924 40.0916 27.7894C39.981 27.7141 39.8827 27.5539 39.846 27.305C39.8093 27.0562 39.834 26.8865 39.9202 26.7959C39.9818 26.7073 40.0966 26.6425 40.2934 26.6272L41.5195 26.5044C41.5933 26.4987 41.6343 26.4396 41.6221 26.3566L41.5609 25.9419C41.5487 25.8589 41.4914 25.8075 41.4175 25.8132L40.7574 25.8922C40.2202 25.9618 39.9047 25.6786 39.7904 25.0722L39.2884 22.1749C39.1741 21.5685 39.3999 21.2434 39.9411 21.2016L40.6505 21.1187C40.7243 21.113 40.7654 21.0539 40.7532 20.9709L40.6961 20.5838C40.6838 20.5009 40.6265 20.4494 40.5527 20.4551L39.3266 20.578C39.1544 20.5913 39.0273 20.5732 38.9126 20.4702C38.802 20.3949 38.7037 20.2347 38.667 19.9859C38.6303 19.737 38.655 19.5673 38.7371 19.4491C38.8151 19.3033 38.93 19.2385 39.1268 19.2232ZM40.7274 24.7596C40.7599 24.9805 40.6366 25.1576 40.4396 25.1729C40.2426 25.1881 40.0704 25.0339 40.0378 24.813C40.0053 24.5921 40.1286 24.415 40.3256 24.3998C40.5226 24.3845 40.6948 24.5388 40.7274 24.7596ZM43.2641 24.7591C43.4611 24.7438 43.5844 24.5667 43.5519 24.3458C43.4947 24.1269 43.3225 23.9726 43.1501 23.986C42.9531 24.0012 42.8298 24.1783 42.8623 24.3992C42.8949 24.6201 43.0671 24.7743 43.2641 24.7591ZM40.9121 23.9515L40.0328 24.0482L39.7637 22.5252C39.736 22.3343 39.8595 22.1867 40.0465 22.1445L40.5916 22.074L40.9121 23.9515ZM43.5847 23.5819L42.7032 23.6787L42.362 21.829L42.9084 21.7586C43.0999 21.7435 43.2872 21.8668 43.3149 22.0578L43.5847 23.5819Z" fill="#E86D6D"/>
</svg>
