<svg width="150" height="36" viewBox="0 0 150 36" fill="none" xmlns="http://www.w3.org/2000/svg">
<path d="M54.716 15.784H48.902C48.602 15.784 48.344 15.676 48.128 15.46C47.912 15.244 47.804 14.986 47.804 14.686V11.536C47.804 11.224 47.912 10.966 48.128 10.762C48.344 10.546 48.602 10.438 48.902 10.438H54.716C55.016 10.438 55.274 10.546 55.49 10.762C55.706 10.966 55.814 11.224 55.814 11.536V14.686C55.814 14.986 55.706 15.244 55.49 15.46C55.274 15.676 55.016 15.784 54.716 15.784ZM42.962 12.49C42.77 12.442 42.614 12.346 42.494 12.202C42.386 12.046 42.332 11.878 42.332 11.698C42.332 11.47 42.404 11.284 42.548 11.14C42.692 10.996 42.86 10.924 43.052 10.924C43.088 10.924 43.124 10.93 43.16 10.942C43.196 10.942 43.232 10.948 43.268 10.96C43.676 11.08 44.084 11.218 44.492 11.374C44.912 11.518 45.296 11.668 45.644 11.824C45.812 11.896 45.938 12.01 46.022 12.166C46.118 12.322 46.166 12.49 46.166 12.67C46.166 12.718 46.166 12.766 46.166 12.814C46.166 12.862 46.154 12.91 46.13 12.958C46.082 13.114 45.992 13.234 45.86 13.318C45.74 13.39 45.608 13.426 45.464 13.426C45.344 13.426 45.236 13.402 45.14 13.354C44.828 13.186 44.48 13.03 44.096 12.886C43.724 12.73 43.346 12.598 42.962 12.49ZM54.176 12.454C54.248 12.454 54.284 12.418 54.284 12.346V11.896C54.284 11.824 54.248 11.788 54.176 11.788H49.442C49.37 11.788 49.334 11.824 49.334 11.896V12.346C49.334 12.418 49.37 12.454 49.442 12.454H54.176ZM49.442 13.786C49.37 13.786 49.334 13.822 49.334 13.894V14.344C49.334 14.416 49.37 14.452 49.442 14.452H54.176C54.248 14.452 54.284 14.416 54.284 14.344V13.894C54.284 13.822 54.248 13.786 54.176 13.786H49.442ZM42.746 16.612C42.554 16.552 42.392 16.444 42.26 16.288C42.14 16.132 42.08 15.958 42.08 15.766C42.08 15.55 42.152 15.37 42.296 15.226C42.452 15.082 42.626 15.01 42.818 15.01C42.854 15.01 42.89 15.016 42.926 15.028C42.962 15.028 42.998 15.034 43.034 15.046C43.382 15.142 43.742 15.268 44.114 15.424C44.498 15.568 44.858 15.724 45.194 15.892C45.362 15.976 45.494 16.096 45.59 16.252C45.686 16.408 45.734 16.576 45.734 16.756C45.734 16.984 45.662 17.17 45.518 17.314C45.374 17.458 45.206 17.53 45.014 17.53C44.906 17.53 44.786 17.494 44.654 17.422C44.39 17.278 44.09 17.134 43.754 16.99C43.43 16.846 43.094 16.72 42.746 16.612ZM56.21 19.834H47.552C47.252 19.834 46.994 19.726 46.778 19.51C46.562 19.294 46.454 19.036 46.454 18.736V17.332C46.454 17.02 46.562 16.762 46.778 16.558C46.994 16.342 47.252 16.234 47.552 16.234H56.21C56.522 16.234 56.78 16.342 56.984 16.558C57.2 16.774 57.308 17.032 57.308 17.332V18.736C57.308 19.036 57.2 19.294 56.984 19.51C56.768 19.726 56.51 19.834 56.21 19.834ZM49.586 17.638C49.586 17.566 49.55 17.53 49.478 17.53H48.056C47.984 17.53 47.948 17.566 47.948 17.638V18.43C47.948 18.502 47.984 18.538 48.056 18.538H49.478C49.55 18.538 49.586 18.502 49.586 18.43V17.638ZM51.188 17.53C51.116 17.53 51.08 17.566 51.08 17.638V18.43C51.08 18.502 51.116 18.538 51.188 18.538H52.43C52.502 18.538 52.538 18.502 52.538 18.43V17.638C52.538 17.566 52.502 17.53 52.43 17.53H51.188ZM54.032 18.43C54.032 18.502 54.068 18.538 54.14 18.538H55.688C55.76 18.538 55.796 18.502 55.796 18.43V17.638C55.796 17.566 55.76 17.53 55.688 17.53H54.14C54.068 17.53 54.032 17.566 54.032 17.638V18.43ZM45.194 18.826C45.434 18.826 45.626 18.91 45.77 19.078C45.926 19.234 46.004 19.414 46.004 19.618C46.004 19.702 45.998 19.768 45.986 19.816C45.854 20.332 45.674 20.932 45.446 21.616C45.23 22.3 44.984 22.996 44.708 23.704C44.432 24.4 44.144 25.048 43.844 25.648C43.652 26.008 43.358 26.188 42.962 26.188C42.914 26.188 42.866 26.182 42.818 26.17C42.782 26.17 42.74 26.164 42.692 26.152C42.536 26.116 42.416 26.032 42.332 25.9C42.248 25.78 42.206 25.648 42.206 25.504C42.206 25.396 42.23 25.294 42.278 25.198C42.722 24.37 43.13 23.458 43.502 22.462C43.886 21.454 44.198 20.44 44.438 19.42C44.486 19.24 44.576 19.096 44.708 18.988C44.852 18.88 45.014 18.826 45.194 18.826ZM57.236 24.55C57.44 24.574 57.602 24.658 57.722 24.802C57.842 24.946 57.902 25.102 57.902 25.27C57.902 25.522 57.806 25.726 57.614 25.882C57.422 26.038 57.206 26.104 56.966 26.08C56.198 25.984 55.388 25.822 54.536 25.594C53.696 25.378 52.862 25.084 52.034 24.712C51.986 24.7 51.938 24.7 51.89 24.712C51.05 25.108 50.144 25.426 49.172 25.666C48.2 25.918 47.198 26.074 46.166 26.134C45.938 26.146 45.74 26.068 45.572 25.9C45.416 25.744 45.338 25.552 45.338 25.324C45.338 25.132 45.404 24.964 45.536 24.82C45.668 24.676 45.83 24.598 46.022 24.586C47.51 24.478 48.866 24.214 50.09 23.794C50.186 23.758 50.192 23.71 50.108 23.65C49.988 23.566 49.874 23.488 49.766 23.416C49.658 23.332 49.544 23.248 49.424 23.164C49.256 23.032 49.172 22.858 49.172 22.642C49.172 22.426 49.244 22.258 49.388 22.138C49.412 22.114 49.436 22.096 49.46 22.084C49.496 22.06 49.532 22.042 49.568 22.03C49.616 22.006 49.64 21.982 49.64 21.958C49.64 21.934 49.61 21.922 49.55 21.922H47.246C47.03 21.922 46.85 21.85 46.706 21.706C46.562 21.55 46.49 21.37 46.49 21.166C46.49 20.962 46.562 20.788 46.706 20.644C46.85 20.488 47.03 20.41 47.246 20.41H55.184C55.4 20.41 55.58 20.488 55.724 20.644C55.868 20.788 55.94 20.956 55.94 21.148C55.94 21.28 55.898 21.406 55.814 21.526C55.286 22.306 54.596 22.996 53.744 23.596C53.66 23.656 53.666 23.704 53.762 23.74C54.854 24.136 56.012 24.406 57.236 24.55ZM50.558 22.084C50.99 22.396 51.434 22.672 51.89 22.912C51.938 22.924 51.986 22.924 52.034 22.912C52.466 22.66 52.868 22.372 53.24 22.048C53.288 22.024 53.306 22 53.294 21.976C53.282 21.94 53.252 21.922 53.204 21.922H50.162C50.294 21.934 50.426 21.988 50.558 22.084ZM68.612 14.614C68.612 14.326 68.732 14.098 68.972 13.93C69.968 13.186 70.694 12.142 71.15 10.798C71.294 10.438 71.546 10.258 71.906 10.258C72.122 10.258 72.296 10.33 72.428 10.474C72.572 10.618 72.644 10.786 72.644 10.978C72.644 11.014 72.638 11.05 72.626 11.086C72.626 11.122 72.62 11.158 72.608 11.194C72.56 11.362 72.5 11.53 72.428 11.698C72.356 11.854 72.278 12.016 72.194 12.184C72.158 12.268 72.188 12.31 72.284 12.31H74.804C75.008 12.31 75.176 12.382 75.308 12.526C75.452 12.658 75.524 12.826 75.524 13.03C75.524 13.222 75.452 13.396 75.308 13.552C75.176 13.696 75.008 13.768 74.804 13.768H71.348C71.288 13.768 71.24 13.792 71.204 13.84C71.048 14.032 70.886 14.218 70.718 14.398C70.55 14.566 70.376 14.722 70.196 14.866C70.124 14.938 70.112 14.974 70.16 14.974C70.184 14.962 70.232 14.956 70.304 14.956H74.066C74.33 14.956 74.546 15.04 74.714 15.208C74.894 15.376 74.984 15.574 74.984 15.802C74.984 15.85 74.984 15.892 74.984 15.928C74.984 15.964 74.972 16.006 74.948 16.054C74.708 16.834 74.33 17.548 73.814 18.196C73.754 18.28 73.778 18.322 73.886 18.322H74.804C75.008 18.322 75.176 18.394 75.308 18.538C75.452 18.682 75.53 18.856 75.542 19.06C75.542 19.252 75.47 19.426 75.326 19.582C75.182 19.726 75.008 19.798 74.804 19.798H73.058C72.986 19.798 72.95 19.834 72.95 19.906V22.156C72.95 23.14 72.146 23.596 70.538 23.524C70.346 23.512 70.178 23.428 70.034 23.272C69.902 23.116 69.836 22.942 69.836 22.75C69.836 22.546 69.902 22.378 70.034 22.246C70.178 22.114 70.346 22.048 70.538 22.048C70.658 22.048 70.772 22.054 70.88 22.066C71 22.078 71.102 22.084 71.186 22.084C71.282 22.084 71.354 22.072 71.402 22.048C71.462 22.012 71.492 21.946 71.492 21.85V19.906C71.492 19.834 71.456 19.798 71.384 19.798H69.944C69.752 19.798 69.578 19.726 69.422 19.582C69.278 19.426 69.206 19.252 69.206 19.06C69.206 18.856 69.278 18.682 69.422 18.538C69.578 18.394 69.752 18.322 69.944 18.322H71.384C71.456 18.322 71.492 18.286 71.492 18.214V17.602C71.492 17.398 71.564 17.224 71.708 17.08C71.852 16.936 72.026 16.864 72.23 16.864C72.398 16.864 72.554 16.924 72.698 17.044C72.758 17.092 72.812 17.092 72.86 17.044C72.92 16.96 72.974 16.876 73.022 16.792C73.07 16.696 73.118 16.606 73.166 16.522C73.214 16.438 73.19 16.396 73.094 16.396H70.304C70.112 16.396 69.944 16.324 69.8 16.18C69.656 16.036 69.584 15.868 69.584 15.676C69.584 15.568 69.602 15.472 69.638 15.388C69.674 15.292 69.692 15.244 69.692 15.244C69.584 15.316 69.464 15.352 69.332 15.352C69.152 15.352 68.984 15.286 68.828 15.154C68.684 15.022 68.612 14.842 68.612 14.614ZM65.336 13.984C65.336 13.912 65.3 13.876 65.228 13.876H64.634C64.442 13.876 64.274 13.804 64.13 13.66C63.986 13.516 63.914 13.348 63.914 13.156C63.914 12.952 63.986 12.784 64.13 12.652C64.274 12.508 64.442 12.436 64.634 12.436H65.696C65.768 12.436 65.804 12.4 65.804 12.328V11.122C65.804 10.918 65.876 10.744 66.02 10.6C66.164 10.444 66.344 10.366 66.56 10.366C66.764 10.366 66.938 10.438 67.082 10.582C67.238 10.726 67.316 10.906 67.316 11.122V12.328C67.316 12.4 67.352 12.436 67.424 12.436H68.756C68.96 12.436 69.128 12.508 69.26 12.652C69.404 12.784 69.476 12.952 69.476 13.156C69.476 13.348 69.404 13.516 69.26 13.66C69.128 13.804 68.96 13.876 68.756 13.876H66.92C66.848 13.876 66.812 13.912 66.812 13.984V15.64C66.812 15.712 66.848 15.748 66.92 15.748H68.216C68.516 15.748 68.768 15.856 68.972 16.072C69.188 16.288 69.29 16.546 69.278 16.846C69.254 17.374 69.224 17.95 69.188 18.574C69.164 19.186 69.134 19.756 69.098 20.284C69.062 20.812 69.026 21.196 68.99 21.436C68.81 22.504 68.132 23.038 66.956 23.038C66.836 23.038 66.716 23.032 66.596 23.02C66.476 23.008 66.35 22.99 66.218 22.966C66.05 22.942 65.912 22.864 65.804 22.732C65.696 22.588 65.642 22.426 65.642 22.246C65.642 21.994 65.732 21.796 65.912 21.652C66.104 21.496 66.314 21.442 66.542 21.49C66.638 21.502 66.728 21.52 66.812 21.544C66.896 21.556 66.974 21.562 67.046 21.562C67.31 21.562 67.466 21.442 67.514 21.202C67.55 21.022 67.58 20.722 67.604 20.302C67.628 19.882 67.652 19.408 67.676 18.88C67.712 18.34 67.742 17.812 67.766 17.296C67.766 17.224 67.73 17.188 67.658 17.188H66.884C66.812 17.188 66.776 17.224 66.776 17.296C66.704 18.1 66.536 18.964 66.272 19.888C66.02 20.812 65.642 21.682 65.138 22.498C65.018 22.714 64.826 22.822 64.562 22.822C64.406 22.822 64.262 22.774 64.13 22.678C63.926 22.534 63.824 22.324 63.824 22.048C63.824 21.904 63.86 21.772 63.932 21.652C64.304 21.04 64.586 20.404 64.778 19.744C64.982 19.084 65.126 18.454 65.21 17.854C65.294 17.242 65.336 16.726 65.336 16.306V13.984ZM60.692 12.724C60.524 12.688 60.38 12.598 60.26 12.454C60.152 12.31 60.098 12.154 60.098 11.986C60.098 11.758 60.176 11.572 60.332 11.428C60.488 11.284 60.668 11.212 60.872 11.212C60.944 11.212 60.998 11.218 61.034 11.23C61.37 11.302 61.736 11.398 62.132 11.518C62.528 11.626 62.912 11.746 63.284 11.878C63.656 12.01 63.842 12.28 63.842 12.688C63.842 12.904 63.764 13.078 63.608 13.21C63.464 13.342 63.29 13.408 63.086 13.408C63.05 13.408 63.008 13.408 62.96 13.408C62.924 13.396 62.882 13.384 62.834 13.372C62.498 13.24 62.138 13.12 61.754 13.012C61.382 12.904 61.028 12.808 60.692 12.724ZM68.18 24.37H74.768C74.972 24.37 75.146 24.442 75.29 24.586C75.446 24.73 75.524 24.904 75.524 25.108C75.524 25.324 75.452 25.51 75.308 25.666C75.164 25.834 74.984 25.918 74.768 25.918H68.18C66.956 25.918 65.942 25.78 65.138 25.504C64.334 25.228 63.662 24.79 63.122 24.19C63.086 24.13 63.038 24.136 62.978 24.208C62.714 24.568 62.402 24.91 62.042 25.234C61.694 25.558 61.322 25.828 60.926 26.044C60.842 26.092 60.74 26.116 60.62 26.116C60.5 26.116 60.38 26.074 60.26 25.99C60.14 25.918 60.05 25.81 59.99 25.666C59.954 25.57 59.936 25.474 59.936 25.378C59.936 25.078 60.068 24.832 60.332 24.64C60.716 24.364 61.064 24.046 61.376 23.686C61.688 23.314 61.94 22.93 62.132 22.534C62.156 22.498 62.168 22.45 62.168 22.39V18.826C62.168 18.754 62.132 18.718 62.06 18.718H60.854C60.65 18.718 60.47 18.64 60.314 18.484C60.17 18.328 60.098 18.148 60.098 17.944C60.098 17.74 60.17 17.56 60.314 17.404C60.47 17.248 60.65 17.17 60.854 17.17H62.51C62.834 17.17 63.11 17.29 63.338 17.53C63.578 17.758 63.698 18.034 63.698 18.358V22.246C63.698 22.282 63.71 22.324 63.734 22.372C64.058 22.924 64.43 23.344 64.85 23.632C65.282 23.92 65.768 24.118 66.308 24.226C66.86 24.322 67.484 24.37 68.18 24.37ZM91.76 10.456C91.976 10.456 92.162 10.534 92.318 10.69C92.486 10.834 92.57 11.02 92.57 11.248V24.082C92.57 25.414 91.718 26.08 90.014 26.08C89.906 26.08 89.792 26.074 89.672 26.062C89.552 26.062 89.426 26.056 89.294 26.044C89.09 26.02 88.916 25.93 88.772 25.774C88.64 25.63 88.574 25.456 88.574 25.252C88.574 25.012 88.664 24.808 88.844 24.64C89.024 24.472 89.234 24.4 89.474 24.424C89.618 24.436 89.75 24.448 89.87 24.46C89.99 24.46 90.092 24.46 90.176 24.46C90.488 24.46 90.692 24.43 90.788 24.37C90.896 24.298 90.95 24.202 90.95 24.082V11.248C90.95 11.032 91.028 10.846 91.184 10.69C91.34 10.534 91.532 10.456 91.76 10.456ZM78.818 11.158H86.072C86.276 11.158 86.45 11.23 86.594 11.374C86.738 11.518 86.81 11.692 86.81 11.896C86.81 12.088 86.738 12.262 86.594 12.418C86.45 12.562 86.276 12.634 86.072 12.634H82.976C82.928 12.634 82.892 12.664 82.868 12.724C82.748 13.336 82.586 13.948 82.382 14.56C82.358 14.644 82.388 14.686 82.472 14.686H85.28C85.592 14.686 85.844 14.8 86.036 15.028C86.228 15.244 86.3 15.496 86.252 15.784C86.036 17.008 85.67 18.166 85.154 19.258C84.638 20.338 84.026 21.322 83.318 22.21C82.61 23.098 81.86 23.866 81.068 24.514C80.276 25.15 79.49 25.63 78.71 25.954C78.626 25.99 78.536 26.008 78.44 26.008C78.248 26.008 78.074 25.936 77.918 25.792C77.774 25.648 77.702 25.456 77.702 25.216C77.702 24.868 77.87 24.604 78.206 24.424C79.058 24.004 79.82 23.5 80.492 22.912C81.164 22.312 81.758 21.67 82.274 20.986C82.31 20.938 82.31 20.89 82.274 20.842C82.082 20.53 81.854 20.218 81.59 19.906C81.338 19.594 81.086 19.312 80.834 19.06C80.678 18.916 80.6 18.742 80.6 18.538C80.6 18.346 80.672 18.178 80.816 18.034C80.984 17.89 81.164 17.818 81.356 17.818C81.572 17.818 81.752 17.89 81.896 18.034C82.352 18.49 82.76 18.964 83.12 19.456C83.168 19.552 83.216 19.552 83.264 19.456C83.564 18.928 83.816 18.406 84.02 17.89C84.224 17.362 84.386 16.846 84.506 16.342C84.53 16.258 84.5 16.216 84.416 16.216H81.824C81.752 16.216 81.71 16.24 81.698 16.288C81.362 16.972 80.99 17.62 80.582 18.232C80.174 18.844 79.742 19.39 79.286 19.87C79.142 20.014 78.962 20.086 78.746 20.086C78.494 20.086 78.284 19.984 78.116 19.78C77.984 19.612 77.918 19.432 77.918 19.24C77.918 18.988 78.014 18.766 78.206 18.574C78.95 17.866 79.58 17.014 80.096 16.018C80.624 15.01 81.014 13.924 81.266 12.76V12.724C81.266 12.664 81.23 12.634 81.158 12.634H78.818C78.626 12.634 78.458 12.562 78.314 12.418C78.17 12.274 78.098 12.1 78.098 11.896C78.098 11.692 78.17 11.518 78.314 11.374C78.458 11.23 78.626 11.158 78.818 11.158ZM88.574 13.354V22.426C88.574 22.642 88.496 22.828 88.34 22.984C88.196 23.14 88.01 23.218 87.782 23.218C87.554 23.218 87.362 23.14 87.206 22.984C87.062 22.828 86.99 22.642 86.99 22.426V13.354C86.99 13.138 87.068 12.952 87.224 12.796C87.38 12.64 87.566 12.562 87.782 12.562C88.01 12.562 88.196 12.64 88.34 12.796C88.496 12.952 88.574 13.138 88.574 13.354ZM104.234 22.336C104.234 22.408 104.27 22.444 104.342 22.444H110.282C110.486 22.444 110.66 22.522 110.804 22.678C110.96 22.822 111.038 23.002 111.038 23.218C111.038 23.422 110.96 23.602 110.804 23.758C110.66 23.914 110.486 23.992 110.282 23.992H104.342C104.27 23.992 104.234 24.028 104.234 24.1V25.36C104.234 25.576 104.156 25.762 104 25.918C103.844 26.074 103.658 26.152 103.442 26.152C103.226 26.152 103.04 26.074 102.884 25.918C102.728 25.762 102.65 25.576 102.65 25.36V24.1C102.65 24.028 102.614 23.992 102.542 23.992H96.638C96.434 23.992 96.254 23.92 96.098 23.776C95.954 23.62 95.882 23.434 95.882 23.218C95.882 23.014 95.954 22.834 96.098 22.678C96.254 22.522 96.434 22.444 96.638 22.444H102.542C102.614 22.444 102.65 22.408 102.65 22.336V21.544C102.65 21.472 102.614 21.436 102.542 21.436H99.302C98.966 21.436 98.684 21.322 98.456 21.094C98.228 20.854 98.114 20.572 98.114 20.248V15.622C98.114 15.298 98.228 15.022 98.456 14.794C98.684 14.554 98.966 14.434 99.302 14.434H102.542C102.614 14.434 102.65 14.398 102.65 14.326V13.534C102.65 13.462 102.614 13.426 102.542 13.426H96.998C96.794 13.426 96.614 13.354 96.458 13.21C96.302 13.054 96.224 12.868 96.224 12.652C96.224 12.436 96.302 12.256 96.458 12.112C96.614 11.956 96.794 11.878 96.998 11.878H102.542C102.614 11.878 102.65 11.842 102.65 11.77V11.23C102.65 11.014 102.728 10.834 102.884 10.69C103.04 10.534 103.226 10.456 103.442 10.456C103.658 10.456 103.844 10.534 104 10.69C104.156 10.834 104.234 11.014 104.234 11.23V11.77C104.234 11.842 104.27 11.878 104.342 11.878H109.922C110.126 11.878 110.306 11.956 110.462 12.112C110.618 12.256 110.696 12.436 110.696 12.652C110.696 12.856 110.618 13.036 110.462 13.192C110.318 13.348 110.138 13.426 109.922 13.426H104.342C104.27 13.426 104.234 13.462 104.234 13.534V14.326C104.234 14.398 104.27 14.434 104.342 14.434H107.618C107.942 14.434 108.218 14.554 108.446 14.794C108.686 15.022 108.806 15.298 108.806 15.622V20.248C108.806 20.572 108.692 20.854 108.464 21.094C108.236 21.322 107.954 21.436 107.618 21.436H104.342C104.27 21.436 104.234 21.472 104.234 21.544V22.336ZM102.56 17.188C102.632 17.188 102.668 17.152 102.668 17.08V16.072C102.668 16 102.632 15.964 102.56 15.964H99.77C99.698 15.964 99.662 16 99.662 16.072V17.08C99.662 17.152 99.698 17.188 99.77 17.188H102.56ZM104.216 17.08C104.216 17.152 104.252 17.188 104.324 17.188H107.15C107.222 17.188 107.258 17.152 107.258 17.08V16.072C107.258 16 107.222 15.964 107.15 15.964H104.324C104.252 15.964 104.216 16 104.216 16.072V17.08ZM102.668 18.808C102.668 18.736 102.632 18.7 102.56 18.7H99.77C99.698 18.7 99.662 18.736 99.662 18.808V19.816C99.662 19.888 99.698 19.924 99.77 19.924H102.56C102.632 19.924 102.668 19.888 102.668 19.816V18.808ZM104.324 18.7C104.252 18.7 104.216 18.736 104.216 18.808V19.816C104.216 19.888 104.252 19.924 104.324 19.924H107.15C107.222 19.924 107.258 19.888 107.258 19.816V18.808C107.258 18.736 107.222 18.7 107.15 18.7H104.324ZM122.954 24.406H128.246C128.45 24.406 128.624 24.478 128.768 24.622C128.912 24.766 128.984 24.94 128.984 25.144C128.984 25.336 128.912 25.504 128.768 25.648C128.624 25.804 128.45 25.882 128.246 25.882H122.954C121.67 25.882 120.554 25.618 119.606 25.09C118.658 24.562 117.932 23.812 117.428 22.84C117.416 22.792 117.392 22.768 117.356 22.768C117.332 22.768 117.308 22.786 117.284 22.822C116.96 23.386 116.618 23.938 116.258 24.478C115.898 25.018 115.556 25.462 115.232 25.81C115.076 25.99 114.866 26.08 114.602 26.08C114.362 26.08 114.152 26.008 113.972 25.864C113.792 25.696 113.702 25.492 113.702 25.252C113.702 25.036 113.774 24.844 113.918 24.676C115.118 23.38 116.096 21.856 116.852 20.104C116.984 19.78 117.224 19.618 117.572 19.618C117.812 19.618 118.004 19.702 118.148 19.87C118.304 20.038 118.382 20.224 118.382 20.428C118.382 20.512 118.364 20.602 118.328 20.698C118.316 20.722 118.304 20.746 118.292 20.77C118.292 20.794 118.286 20.818 118.274 20.842C118.25 20.902 118.244 20.95 118.256 20.986C118.316 21.214 118.4 21.46 118.508 21.724C118.628 21.976 118.772 22.228 118.94 22.48C118.976 22.54 119.024 22.552 119.084 22.516C119.792 22.012 120.506 21.388 121.226 20.644C121.946 19.9 122.63 19.072 123.278 18.16C123.938 17.236 124.514 16.264 125.006 15.244C125.054 15.16 125.024 15.118 124.916 15.118H115.7C115.484 15.118 115.298 15.046 115.142 14.902C114.998 14.746 114.926 14.56 114.926 14.344C114.926 14.14 115.004 13.96 115.16 13.804C115.316 13.648 115.496 13.57 115.7 13.57H120.002C120.074 13.57 120.11 13.534 120.11 13.462V11.14C120.11 10.924 120.188 10.744 120.344 10.6C120.5 10.444 120.686 10.366 120.902 10.366C121.118 10.366 121.304 10.444 121.46 10.6C121.616 10.744 121.694 10.924 121.694 11.14V13.462C121.694 13.534 121.73 13.57 121.802 13.57H126.104C126.356 13.57 126.566 13.66 126.734 13.84C126.914 14.008 127.004 14.212 127.004 14.452C127.004 14.548 126.986 14.644 126.95 14.74C126.602 15.64 126.17 16.522 125.654 17.386C125.15 18.25 124.598 19.072 123.998 19.852C123.398 20.62 122.78 21.328 122.144 21.976C121.508 22.612 120.89 23.158 120.29 23.614C120.218 23.65 120.206 23.692 120.254 23.74C120.602 23.932 120.998 24.094 121.442 24.226C121.886 24.346 122.39 24.406 122.954 24.406ZM137.444 14.596C138.608 13.528 139.382 12.292 139.766 10.888C139.814 10.708 139.91 10.564 140.054 10.456C140.198 10.336 140.354 10.276 140.522 10.276C140.762 10.276 140.954 10.354 141.098 10.51C141.254 10.666 141.332 10.846 141.332 11.05C141.332 11.134 141.326 11.2 141.314 11.248C141.278 11.404 141.23 11.56 141.17 11.716C141.11 11.872 141.044 12.034 140.972 12.202C140.936 12.286 140.966 12.328 141.062 12.328H146.048C146.264 12.328 146.444 12.406 146.588 12.562C146.744 12.718 146.822 12.898 146.822 13.102C146.822 13.306 146.744 13.486 146.588 13.642C146.444 13.798 146.264 13.876 146.048 13.876H140.18C140.12 13.876 140.072 13.9 140.036 13.948C139.808 14.296 139.556 14.632 139.28 14.956C139.004 15.28 138.71 15.574 138.398 15.838C138.278 15.946 138.128 16 137.948 16C137.708 16 137.504 15.898 137.336 15.694C137.24 15.562 137.192 15.4 137.192 15.208C137.192 15.1 137.21 14.992 137.246 14.884C137.294 14.776 137.36 14.68 137.444 14.596ZM134.636 16.324C134.636 16.396 134.672 16.432 134.744 16.432H136.13C136.454 16.432 136.73 16.546 136.958 16.774C137.186 16.99 137.3 17.26 137.3 17.584C137.3 18.064 137.294 18.604 137.282 19.204C137.27 19.792 137.252 20.38 137.228 20.968C137.204 21.556 137.174 22.084 137.138 22.552C137.114 23.02 137.084 23.368 137.048 23.596C136.94 24.46 136.7 25.078 136.328 25.45C135.956 25.822 135.38 26.008 134.6 26.008C134.528 26.008 134.45 26.008 134.366 26.008C134.294 26.008 134.21 26.002 134.114 25.99C133.91 25.978 133.736 25.888 133.592 25.72C133.46 25.564 133.394 25.384 133.394 25.18C133.394 24.964 133.478 24.784 133.646 24.64C133.814 24.496 134.006 24.43 134.222 24.442C134.318 24.454 134.408 24.466 134.492 24.478C134.576 24.478 134.654 24.478 134.726 24.478C135.038 24.478 135.236 24.406 135.32 24.262C135.404 24.118 135.476 23.824 135.536 23.38C135.572 23.14 135.602 22.732 135.626 22.156C135.65 21.58 135.674 20.926 135.698 20.194C135.722 19.45 135.74 18.73 135.752 18.034C135.752 17.962 135.716 17.926 135.644 17.926H134.726C134.654 17.926 134.618 17.962 134.618 18.034C134.558 19.006 134.444 19.966 134.276 20.914C134.108 21.85 133.91 22.732 133.682 23.56C133.454 24.376 133.22 25.084 132.98 25.684C132.908 25.852 132.794 25.99 132.638 26.098C132.482 26.206 132.308 26.26 132.116 26.26C131.912 26.26 131.744 26.194 131.612 26.062C131.48 25.942 131.414 25.798 131.414 25.63C131.414 25.546 131.432 25.462 131.468 25.378C131.852 24.394 132.152 23.452 132.368 22.552C132.596 21.652 132.764 20.83 132.872 20.086C132.98 19.33 133.046 18.682 133.07 18.142C133.106 17.602 133.124 17.206 133.124 16.954V14.344C133.124 14.272 133.088 14.236 133.016 14.236H132.206C131.99 14.236 131.804 14.158 131.648 14.002C131.504 13.846 131.432 13.666 131.432 13.462C131.432 13.246 131.51 13.066 131.666 12.922C131.822 12.766 132.002 12.688 132.206 12.688H133.7C133.772 12.688 133.808 12.652 133.808 12.58V11.104C133.808 10.888 133.88 10.702 134.024 10.546C134.18 10.39 134.366 10.312 134.582 10.312C134.81 10.312 134.996 10.39 135.14 10.546C135.296 10.702 135.374 10.888 135.374 11.104V12.58C135.374 12.652 135.41 12.688 135.482 12.688H136.94C137.156 12.688 137.336 12.766 137.48 12.922C137.636 13.078 137.714 13.258 137.714 13.462C137.714 13.666 137.636 13.846 137.48 14.002C137.336 14.158 137.156 14.236 136.94 14.236H134.744C134.672 14.236 134.636 14.272 134.636 14.344V16.324ZM146.678 23.578C146.93 23.794 147.056 24.058 147.056 24.37C147.056 24.514 147.032 24.64 146.984 24.748C146.936 24.88 146.852 24.982 146.732 25.054C146.624 25.126 146.504 25.162 146.372 25.162C146.228 25.162 146.108 25.12 146.012 25.036C145.376 24.556 144.782 23.95 144.23 23.218C143.678 22.486 143.192 21.676 142.772 20.788C142.364 19.9 142.04 18.982 141.8 18.034C141.776 17.938 141.728 17.914 141.656 17.962L141.458 18.088C141.41 18.112 141.386 18.154 141.386 18.214V25.36C141.386 25.564 141.308 25.744 141.152 25.9C140.996 26.056 140.81 26.134 140.594 26.134C140.378 26.134 140.192 26.056 140.036 25.9C139.88 25.756 139.802 25.576 139.802 25.36V18.988C139.802 18.88 139.76 18.85 139.676 18.898C139.424 19.006 139.178 19.102 138.938 19.186C138.71 19.27 138.482 19.342 138.254 19.402C138.206 19.414 138.14 19.42 138.056 19.42C137.864 19.42 137.69 19.354 137.534 19.222C137.378 19.078 137.3 18.892 137.3 18.664C137.3 18.496 137.354 18.34 137.462 18.196C137.57 18.04 137.714 17.938 137.894 17.89C138.71 17.638 139.514 17.326 140.306 16.954C141.098 16.57 141.836 16.168 142.52 15.748C143.204 15.316 143.78 14.914 144.248 14.542C144.392 14.434 144.548 14.38 144.716 14.38C144.956 14.38 145.148 14.482 145.292 14.686C145.352 14.758 145.388 14.836 145.4 14.92C145.424 15.004 145.436 15.088 145.436 15.172C145.436 15.46 145.328 15.676 145.112 15.82C144.848 16.024 144.554 16.234 144.23 16.45C143.918 16.666 143.588 16.876 143.24 17.08C143.18 17.116 143.162 17.164 143.186 17.224C143.318 17.824 143.462 18.376 143.618 18.88C143.63 18.952 143.678 18.976 143.762 18.952C144.146 18.796 144.524 18.616 144.896 18.412C145.268 18.196 145.658 17.938 146.066 17.638C146.258 17.506 146.432 17.44 146.588 17.44C146.828 17.44 147.008 17.554 147.128 17.782C147.2 17.902 147.236 18.028 147.236 18.16C147.236 18.472 147.08 18.736 146.768 18.952C146.396 19.216 145.994 19.474 145.562 19.726C145.142 19.966 144.734 20.17 144.338 20.338C144.266 20.362 144.248 20.41 144.284 20.482C144.596 21.094 144.95 21.664 145.346 22.192C145.754 22.708 146.198 23.17 146.678 23.578Z" fill="#7AACBF"/>
<path fill-rule="evenodd" clip-rule="evenodd" d="M34.8478 2.71739H6.15217C5.35977 2.71739 4.71739 3.35977 4.71739 4.15217V32.1304C4.71739 32.9228 5.35977 33.5652 6.15217 33.5652H34.8478C35.6402 33.5652 36.2826 32.9228 36.2826 32.1304V4.15217C36.2826 3.35977 35.6402 2.71739 34.8478 2.71739ZM6.15217 2C4.96356 2 4 2.96356 4 4.15217V32.1304C4 33.319 4.96356 34.2826 6.15217 34.2826H34.8478C36.0364 34.2826 37 33.319 37 32.1304V4.15217C37 2.96356 36.0364 2 34.8478 2H6.15217Z" fill="#9AB8D5"/>
<path d="M11.0213 20.495C11.5081 20.0212 12.0922 19.9521 13.7724 19.9521H16.8627C18.5177 19.9265 19.1019 20.0212 19.5887 20.495C20.6051 21.7317 20.3331 27.5783 20.2452 29.0773C20.2335 29.2761 20.0643 29.4281 19.8596 29.4281H10.8461C10.6434 29.4281 10.475 29.2786 10.4609 29.0818C10.3536 27.5901 10.0038 21.7329 11.0213 20.495Z" fill="#012840"/>
<path d="M11.6807 21.4394C12.0685 21.0278 12.5338 21.0278 12.5338 21.0278C12.5338 21.0278 12.5338 21.0278 12.5338 21.0278H13.6196C13.7053 21.0278 13.7747 21.1015 13.7747 21.1924V25.6369C13.7747 25.7278 13.7056 25.8015 13.6199 25.8015C13.4347 25.8015 13.0794 25.8015 12.5338 25.8015C11.6807 25.8015 11.478 25.7511 11.3704 25.6369C11.2628 25.5227 11.293 24.6492 11.293 23.4147C11.293 23.4147 11.293 23.4147 11.293 23.4147C11.293 23.4146 11.2929 21.8509 11.6807 21.4394Z" fill="white"/>
<path d="M18.9296 21.4394C18.5419 21.0278 18.0765 21.0278 18.0765 21.0278C18.0765 21.0278 18.0765 21.0278 18.0765 21.0278H16.9907C16.9051 21.0278 16.8356 21.1015 16.8356 21.1924V25.6369C16.8356 25.7278 16.9048 25.8015 16.9904 25.8015C17.1757 25.8015 17.5309 25.8015 18.0765 25.8015C18.9296 25.8015 19.1323 25.7511 19.2399 25.6369C19.3476 25.5227 19.3174 24.6492 19.3174 23.4147C19.3174 23.4147 19.3174 23.4147 19.3174 23.4147C19.3174 23.4146 19.3174 21.8509 18.9296 21.4394Z" fill="white"/>
<path d="M14.3311 21.1924C14.3311 21.1015 14.4182 21.0278 14.5258 21.0278H16.0835C16.191 21.0278 16.2782 21.1015 16.2782 21.1924V25.6369C16.2782 25.7278 16.191 25.8015 16.0835 25.8015H14.5258C14.4182 25.8015 14.3311 25.7278 14.3311 25.6369V21.1924Z" fill="white"/>
<path d="M12.4573 27.53C12.4573 27.844 12.1958 28.0986 11.8732 28.0986C11.5506 28.0986 11.2891 27.844 11.2891 27.53C11.2891 27.216 11.5506 26.9614 11.8732 26.9614C12.1958 26.9614 12.4573 27.216 12.4573 27.53Z" fill="white"/>
<path d="M19.4681 27.53C19.4681 27.844 19.2066 28.0986 18.8839 28.0986C18.5613 28.0986 18.2998 27.844 18.2998 27.53C18.2998 27.216 18.5613 26.9614 18.8839 26.9614C19.2066 26.9614 19.4681 27.216 19.4681 27.53Z" fill="white"/>
<path d="M13.0409 29.4248H17.5193L19.4664 31.8886H18.0061L16.9352 30.5619H13.625L12.5541 31.8886H11.0938L13.0409 29.4248Z" fill="#012840"/>
<path d="M12.4567 30.5625H18.1034L19.4664 28.6673H11.0938L12.4567 30.5625Z" fill="#012840"/>
<path d="M12.2627 18.6221C12.2627 18.5175 12.3499 18.4326 12.4574 18.4326H18.1041C18.2116 18.4326 18.2988 18.5175 18.2988 18.6221V18.6221C18.2988 18.7268 18.2116 18.8117 18.1041 18.8117H12.4574C12.3499 18.8117 12.2627 18.7268 12.2627 18.6221V18.6221Z" fill="#012840"/>
<path d="M13.4297 19.1904H17.1292V19.5695H13.4297V19.1904Z" fill="#012840"/>
<path d="M13.2363 18.6226H13.6258V20.1387H13.2363V18.6226Z" fill="#012840"/>
<path d="M16.9355 18.6226H17.325V20.1387H16.9355V18.6226Z" fill="#012840"/>
<path fill-rule="evenodd" clip-rule="evenodd" d="M6.35979 21.0936C6.45376 20.8117 6.75846 20.6594 7.04037 20.7533L9.19254 21.4707C9.47444 21.5647 9.6268 21.8694 9.53283 22.1513C9.43886 22.4332 9.13415 22.5856 8.85225 22.4916L6.70008 21.7742C6.41817 21.6802 6.26582 21.3755 6.35979 21.0936Z" fill="#012840"/>
<path fill-rule="evenodd" clip-rule="evenodd" d="M6.35979 23.2455C6.45376 22.9636 6.75846 22.8112 7.04037 22.9052L9.19254 23.6226C9.47444 23.7166 9.6268 24.0213 9.53283 24.3032C9.43886 24.5851 9.13415 24.7374 8.85225 24.6435L6.70008 23.9261C6.41817 23.8321 6.26582 23.5274 6.35979 23.2455Z" fill="#012840"/>
<path fill-rule="evenodd" clip-rule="evenodd" d="M9.34511 26.572C9.58283 26.7503 9.63101 27.0875 9.45271 27.3253L7.30054 30.1948C7.12225 30.4325 6.785 30.4807 6.54728 30.3024C6.30956 30.1241 6.26138 29.7869 6.43967 29.5492L8.59185 26.6796C8.77014 26.4419 9.10738 26.3937 9.34511 26.572Z" fill="#012840"/>
<path d="M12.8786 14.7804C12.8786 14.9241 12.8264 15.0486 12.7221 15.154C12.6273 15.2594 12.5088 15.3121 12.3666 15.3121H10.717C10.6601 15.3121 10.6317 15.3408 10.6317 15.3983V16.5192C10.6317 16.6629 10.5795 16.7826 10.4753 16.8784C10.3805 16.9838 10.2619 17.0365 10.1197 17.0365C9.97753 17.0365 9.85428 16.9838 9.75 16.8784C9.65519 16.7826 9.60779 16.6629 9.60779 16.5192V15.3983C9.60779 15.3408 9.57935 15.3121 9.52246 15.3121H7.87285C7.73064 15.3121 7.60739 15.2594 7.50311 15.154C7.39882 15.0486 7.34668 14.9241 7.34668 14.7804C7.34668 14.6367 7.39882 14.5121 7.50311 14.4067C7.60739 14.3014 7.73064 14.2487 7.87285 14.2487H9.52246C9.57935 14.2487 9.60779 14.2199 9.60779 14.1624V13.3865C9.60779 13.329 9.57935 13.3002 9.52246 13.3002H8.54123C8.30421 13.3002 8.10038 13.2188 7.92973 13.0559C7.76856 12.8835 7.68798 12.6775 7.68798 12.438V8.8886C7.68798 8.6491 7.76856 8.44792 7.92973 8.28506C8.10038 8.11261 8.30421 8.02639 8.54123 8.02639H9.52246C9.57935 8.02639 9.60779 7.99765 9.60779 7.94017V7.12107C9.60779 7.06359 9.57935 7.03485 9.52246 7.03485H7.90129C7.7496 7.03485 7.62162 6.98216 7.51733 6.87678C7.42252 6.7714 7.37512 6.64686 7.37512 6.50316C7.37512 6.35946 7.42252 6.23492 7.51733 6.12953C7.62162 6.02415 7.7496 5.97146 7.90129 5.97146H9.52246C9.57935 5.97146 9.60779 5.94272 9.60779 5.88524V5.26733C9.60779 5.1332 9.65519 5.01345 9.75 4.90807C9.85428 4.80269 9.97753 4.75 10.1197 4.75C10.2619 4.75 10.3805 4.80269 10.4753 4.90807C10.5795 5.01345 10.6317 5.1332 10.6317 5.26733V5.88524C10.6317 5.94272 10.6601 5.97146 10.717 5.97146H12.3382C12.4899 5.97146 12.6131 6.02415 12.7079 6.12953C12.8122 6.23492 12.8644 6.35946 12.8644 6.50316C12.8644 6.64686 12.8122 6.7714 12.7079 6.87678C12.6131 6.98216 12.4899 7.03485 12.3382 7.03485H10.717C10.6601 7.03485 10.6317 7.06359 10.6317 7.12107V7.94017C10.6317 7.99765 10.6601 8.02639 10.717 8.02639H11.7125C11.9495 8.02639 12.1486 8.11261 12.3097 8.28506C12.4804 8.44792 12.5657 8.6491 12.5657 8.8886V12.438C12.5657 12.6775 12.4804 12.8835 12.3097 13.0559C12.1486 13.2188 11.9495 13.3002 11.7125 13.3002H10.717C10.6601 13.3002 10.6317 13.329 10.6317 13.3865V14.1624C10.6317 14.2199 10.6601 14.2487 10.717 14.2487H12.3666C12.5088 14.2487 12.6273 14.3014 12.7221 14.4067C12.8264 14.5121 12.8786 14.6367 12.8786 14.7804ZM19.3775 15.3408C19.5671 15.4558 19.6619 15.6138 19.6619 15.815C19.6619 15.8821 19.6382 15.9635 19.5908 16.0593C19.4581 16.2988 19.2779 16.5144 19.0504 16.706C18.8323 16.9071 18.5005 17.0077 18.0549 17.0077C17.4956 17.0077 17.0785 16.8401 16.8035 16.5048C16.5381 16.1791 16.4053 15.7575 16.4053 15.2402V9.14726C16.4053 9.08978 16.3769 9.06104 16.32 9.06104H15.5805C15.5331 9.06104 15.4999 9.08978 15.481 9.14726C15.3293 10.5651 15.0875 11.8968 14.7557 13.1422C14.4334 14.3876 14.002 15.5947 13.4616 16.7634C13.3668 16.9646 13.2057 17.0652 12.9781 17.0652C12.8169 17.0652 12.689 17.0125 12.5942 16.9071C12.5088 16.8018 12.4662 16.682 12.4662 16.5479C12.4662 16.4617 12.4804 16.385 12.5088 16.318C13.0113 15.2546 13.419 14.1385 13.7318 12.9697C14.0447 11.801 14.277 10.5268 14.4286 9.14726C14.4476 9.08978 14.4239 9.06104 14.3575 9.06104H13.419C13.2768 9.06104 13.1535 9.00835 13.0492 8.90297C12.9449 8.79759 12.8928 8.67305 12.8928 8.52935C12.8928 8.37607 12.9449 8.24674 13.0492 8.14135C13.1535 8.03597 13.2768 7.98328 13.419 7.98328H14.4713C14.5282 7.98328 14.5566 7.95454 14.5566 7.89706C14.5851 7.48512 14.6088 7.06359 14.6277 6.63249C14.6562 6.1918 14.6751 5.74154 14.6846 5.2817C14.6846 5.13799 14.7368 5.01345 14.841 4.90807C14.9453 4.80269 15.0686 4.75 15.2108 4.75C15.3625 4.75 15.4857 4.80269 15.5805 4.90807C15.6848 5.01345 15.737 5.13799 15.737 5.2817C15.7085 6.18222 15.6659 7.05401 15.609 7.89706C15.5995 7.95454 15.6232 7.98328 15.6801 7.98328H16.6044C16.8414 7.98328 17.0405 8.0695 17.2017 8.24195C17.3723 8.40481 17.4577 8.60599 17.4577 8.84549V15.2402C17.4577 15.4701 17.4909 15.6378 17.5572 15.7432C17.6331 15.839 17.7184 15.8964 17.8132 15.9156C17.908 15.9348 17.9886 15.9443 18.0549 15.9443C18.2161 15.9443 18.3346 15.9156 18.4105 15.8581C18.4958 15.8006 18.5811 15.7001 18.6664 15.5564C18.7707 15.3743 18.9272 15.2833 19.1357 15.2833C19.2305 15.2833 19.3111 15.3025 19.3775 15.3408ZM9.53668 10.0382C9.59357 10.0382 9.62201 10.0095 9.62201 9.95199V9.10415C9.62201 9.04667 9.59357 9.01793 9.53668 9.01793H8.76876C8.71188 9.01793 8.68344 9.04667 8.68344 9.10415V9.95199C8.68344 10.0095 8.71188 10.0382 8.76876 10.0382H9.53668ZM10.6175 9.95199C10.6175 10.0095 10.6459 10.0382 10.7028 10.0382H11.4707C11.5276 10.0382 11.556 10.0095 11.556 9.95199V9.10415C11.556 9.04667 11.5276 9.01793 11.4707 9.01793H10.7028C10.6459 9.01793 10.6175 9.04667 10.6175 9.10415V9.95199ZM9.62201 11.1447C9.62201 11.0872 9.59357 11.0585 9.53668 11.0585H8.76876C8.71188 11.0585 8.68344 11.0872 8.68344 11.1447V12.2081C8.68344 12.2656 8.71188 12.2943 8.76876 12.2943H9.53668C9.59357 12.2943 9.62201 12.2656 9.62201 12.2081V11.1447ZM10.7028 11.0585C10.6459 11.0585 10.6175 11.0872 10.6175 11.1447V12.2081C10.6175 12.2656 10.6459 12.2943 10.7028 12.2943H11.4707C11.5276 12.2943 11.556 12.2656 11.556 12.2081V11.1447C11.556 11.0872 11.5276 11.0585 11.4707 11.0585H10.7028Z" fill="#EF837A"/>
<path d="M28.7677 7.40115C28.8059 7.33414 28.7868 7.30063 28.7106 7.30063H25.4936C25.3507 7.30063 25.2268 7.25277 25.1219 7.15704C25.0266 7.06132 24.9789 6.94166 24.9789 6.79807C24.9789 6.65448 25.0266 6.53483 25.1219 6.4391C25.2268 6.34337 25.3507 6.29551 25.4936 6.29551H27.7669C27.7574 6.29551 27.7526 6.29551 27.7526 6.29551C27.7526 6.28594 27.7526 6.28115 27.7526 6.28115C27.5525 5.95569 27.3332 5.67808 27.095 5.44834C26.9996 5.36218 26.952 5.2521 26.952 5.11808C26.952 4.99364 26.9996 4.89792 27.095 4.83091C27.1998 4.73518 27.3332 4.68732 27.4953 4.68732C27.6478 4.68732 27.7717 4.73518 27.867 4.83091C28.153 5.09894 28.4055 5.41962 28.6248 5.79295C28.6629 5.85996 28.682 5.93175 28.682 6.00833C28.682 6.0562 28.6724 6.11842 28.6534 6.195C28.6248 6.26201 28.6438 6.29551 28.7106 6.29551H29.7686C29.8067 6.29551 29.84 6.28115 29.8686 6.25243C30.0593 6.06098 30.2404 5.8456 30.4119 5.60629C30.593 5.3574 30.7408 5.13244 30.8552 4.93142C30.9791 4.7304 31.1506 4.62988 31.3699 4.62988C31.5224 4.62988 31.6463 4.67775 31.7416 4.77347C31.8369 4.8692 31.8846 4.97928 31.8846 5.10373C31.8846 5.18031 31.8655 5.2521 31.8274 5.31911C31.7511 5.4627 31.6653 5.61107 31.57 5.76423C31.4747 5.90782 31.3746 6.05141 31.2698 6.195C31.2221 6.26201 31.2412 6.29551 31.327 6.29551H33.1999C33.3334 6.29551 33.4477 6.34337 33.5431 6.4391C33.6479 6.53483 33.7003 6.65448 33.7003 6.79807C33.7003 6.94166 33.6479 7.06132 33.5431 7.15704C33.4477 7.25277 33.3334 7.30063 33.1999 7.30063H29.9687C29.9306 7.30063 29.902 7.32456 29.8829 7.37243C29.7972 7.65003 29.678 7.93721 29.5255 8.23396C29.4969 8.30097 29.516 8.33447 29.5827 8.33447H31.6987C31.937 8.33447 32.1372 8.42063 32.2992 8.59293C32.4708 8.75567 32.5565 8.95669 32.5565 9.196V13.9057C32.5565 14.145 32.4708 14.3508 32.2992 14.5231C32.1372 14.6859 31.937 14.7672 31.6987 14.7672H27.0235C26.7852 14.7672 26.5802 14.6859 26.4087 14.5231C26.2466 14.3508 26.1656 14.145 26.1656 13.9057V9.196C26.1656 8.95669 26.2466 8.75567 26.4087 8.59293C26.5802 8.42063 26.7852 8.33447 27.0235 8.33447H28.1101C28.1482 8.33447 28.1768 8.3249 28.1959 8.30575C28.3007 8.20046 28.4008 8.07601 28.4961 7.93242C28.6009 7.77926 28.6915 7.60217 28.7677 7.40115ZM22.1338 6.42474C22.0099 6.39602 21.905 6.3338 21.8192 6.23808C21.743 6.13278 21.7048 6.02269 21.7048 5.90782C21.7048 5.75466 21.7573 5.63022 21.8621 5.53449C21.967 5.42919 22.0813 5.37654 22.2053 5.37654C22.2624 5.37654 22.3053 5.38133 22.3339 5.3909C22.6389 5.45791 22.963 5.54406 23.3062 5.64936C23.6588 5.74509 24.0067 5.85996 24.3499 5.99398C24.4642 6.03227 24.55 6.10406 24.6072 6.20936C24.6739 6.30508 24.7073 6.41038 24.7073 6.52525C24.7073 6.56354 24.7073 6.59705 24.7073 6.62577C24.7073 6.65448 24.6978 6.68799 24.6787 6.72628C24.6501 6.83158 24.5929 6.91294 24.5071 6.97038C24.4213 7.02781 24.326 7.05653 24.2212 7.05653C24.1354 7.05653 24.0734 7.04696 24.0353 7.02781C23.7398 6.91294 23.4253 6.80286 23.0917 6.69756C22.7581 6.58269 22.4388 6.49175 22.1338 6.42474ZM27.2093 10.0145C27.2093 10.0719 27.2379 10.1006 27.2951 10.1006H31.4271C31.4842 10.1006 31.5128 10.0719 31.5128 10.0145V9.4401C31.5128 9.38267 31.4842 9.35395 31.4271 9.35395H27.2951C27.2379 9.35395 27.2093 9.38267 27.2093 9.4401V10.0145ZM28.01 15.8872H33.2285C33.381 15.8872 33.5097 15.9399 33.6146 16.0452C33.7194 16.1505 33.7718 16.2797 33.7718 16.4329C33.7718 16.586 33.7194 16.7153 33.6146 16.8206C33.5097 16.9259 33.381 16.9785 33.2285 16.9785H28.01C27.1998 16.9785 26.4516 16.8541 25.7653 16.6052C25.079 16.3659 24.4976 15.9686 24.021 15.4134C23.9829 15.356 23.9448 15.356 23.9066 15.4134C23.6874 15.7006 23.4301 15.9878 23.1346 16.2749C22.8391 16.5525 22.5627 16.7871 22.3053 16.9785C22.2386 17.0359 22.1576 17.0647 22.0623 17.0647C21.8717 17.0647 21.7287 16.9737 21.6334 16.7918C21.5952 16.7153 21.5762 16.6291 21.5762 16.5334C21.5762 16.3324 21.6572 16.1601 21.8192 16.0165C22.067 15.8154 22.3339 15.5618 22.6199 15.2554C22.9058 14.9396 23.1489 14.6189 23.349 14.2934C23.3681 14.2551 23.3776 14.2216 23.3776 14.1929V11.0627C23.3776 11.0052 23.349 10.9765 23.2919 10.9765H22.2196C22.067 10.9765 21.9384 10.9286 21.8335 10.8329C21.7382 10.7276 21.6906 10.5984 21.6906 10.4452C21.6906 10.3016 21.7382 10.1772 21.8335 10.0719C21.9384 9.9666 22.067 9.91395 22.2196 9.91395H23.6064C23.8447 9.91395 24.0448 10.0001 24.2069 10.1724C24.3785 10.3351 24.4642 10.5362 24.4642 10.7755V14.1498C24.4642 14.1785 24.4738 14.212 24.4928 14.2503C24.8836 14.863 25.3602 15.289 25.9226 15.5283C26.4945 15.7676 27.1903 15.8872 28.01 15.8872ZM31.5128 11.1919C31.5128 11.1345 31.4842 11.1057 31.4271 11.1057H27.2951C27.2379 11.1057 27.2093 11.1345 27.2093 11.1919V11.7662C27.2093 11.8237 27.2379 11.8524 27.2951 11.8524H31.4271C31.4842 11.8524 31.5128 11.8237 31.5128 11.7662V11.1919ZM27.2951 12.8575C27.2379 12.8575 27.2093 12.8862 27.2093 12.9437V13.6473C27.2093 13.7047 27.2379 13.7334 27.2951 13.7334H31.4271C31.4842 13.7334 31.5128 13.7047 31.5128 13.6473V12.9437C31.5128 12.8862 31.4842 12.8575 31.4271 12.8575H27.2951Z" fill="#F29C50"/>
<path d="M28.4769 22.6331C28.4385 22.556 28.4193 22.4694 28.4193 22.373C28.4193 22.1708 28.4961 22.0167 28.6495 21.9107C29.1291 21.5544 29.5079 21.1499 29.7861 20.6972C30.0642 20.2445 30.28 19.7967 30.4335 19.3536C30.4719 19.2381 30.539 19.1466 30.6349 19.0792C30.7308 19.0117 30.8363 18.978 30.9514 18.978C31.0953 18.978 31.2152 19.0262 31.3111 19.1225C31.407 19.2188 31.455 19.3296 31.455 19.4548C31.455 19.4837 31.4502 19.5126 31.4406 19.5415C31.4406 19.5607 31.4358 19.5848 31.4262 19.6137C31.3782 19.7678 31.3207 19.9219 31.2536 20.076C31.196 20.2301 31.1289 20.3794 31.0521 20.5238C31.0234 20.5913 31.0473 20.625 31.1241 20.625H33.2677C33.402 20.625 33.5171 20.6731 33.613 20.7694C33.7089 20.8658 33.7569 20.9813 33.7569 21.1162C33.7569 21.2606 33.7089 21.381 33.613 21.4773C33.5171 21.5737 33.402 21.6218 33.2677 21.6218H30.4623C30.4143 21.6218 30.376 21.6411 30.3472 21.6796C30.1649 21.9204 29.9731 22.1371 29.7717 22.3297C29.5703 22.5223 29.3593 22.6861 29.1387 22.8209C29.0811 22.8691 28.9996 22.8931 28.8941 22.8931C28.6927 22.8931 28.5536 22.8065 28.4769 22.6331ZM25.7865 21.7952C25.7865 21.7374 25.7577 21.7085 25.7002 21.7085H24.8801C24.7459 21.7085 24.6308 21.6603 24.5349 21.564C24.4389 21.4677 24.391 21.3521 24.391 21.2173C24.391 21.0825 24.4389 20.9669 24.5349 20.8706C24.6308 20.7743 24.7459 20.7261 24.8801 20.7261H26.0743C26.1318 20.7261 26.1606 20.6972 26.1606 20.6394V19.5848C26.1606 19.4403 26.2085 19.3151 26.3045 19.2092C26.41 19.1032 26.5346 19.0503 26.6785 19.0503C26.8224 19.0503 26.9423 19.1032 27.0382 19.2092C27.1437 19.3151 27.1964 19.4403 27.1964 19.5848V20.6394C27.1964 20.6972 27.2252 20.7261 27.2828 20.7261H28.4337C28.568 20.7261 28.6831 20.7743 28.779 20.8706C28.8749 20.9669 28.9229 21.0825 28.9229 21.2173C28.9229 21.3521 28.8749 21.4677 28.779 21.564C28.6831 21.6603 28.568 21.7085 28.4337 21.7085H26.8799C26.8224 21.7085 26.7936 21.7374 26.7936 21.7952V23.2976C26.7936 23.3554 26.8224 23.3843 26.8799 23.3843H28.0021C28.2227 23.3843 28.4049 23.4614 28.5488 23.6155C28.7023 23.7696 28.7742 23.9574 28.7646 24.1789C28.7454 24.6027 28.7215 25.065 28.6927 25.5658C28.6735 26.057 28.6495 26.5145 28.6207 26.9383C28.592 27.3524 28.5632 27.6558 28.5344 27.8484C28.4577 28.2722 28.2803 28.5804 28.0021 28.773C27.7336 28.9656 27.4027 29.062 27.0094 29.062C26.9135 29.062 26.8176 29.0571 26.7217 29.0475C26.6354 29.0282 26.5394 29.0138 26.4339 29.0042C26.3092 28.9849 26.2085 28.9319 26.1318 28.8453C26.0647 28.7489 26.0311 28.643 26.0311 28.5274C26.0311 28.3541 26.0934 28.2192 26.2181 28.1229C26.3524 28.017 26.4963 27.9736 26.6497 27.9929C26.7265 28.0025 26.7984 28.017 26.8655 28.0362C26.9327 28.0459 26.9998 28.0507 27.067 28.0507C27.1821 28.0507 27.278 28.0266 27.3547 27.9784C27.441 27.9207 27.4986 27.8243 27.5273 27.6895C27.5561 27.5354 27.5801 27.285 27.5993 26.9383C27.628 26.5915 27.652 26.1967 27.6712 25.7536C27.7 25.3106 27.7192 24.8772 27.7288 24.4534C27.7288 24.3956 27.7 24.3667 27.6424 24.3667H26.8512C26.7936 24.3667 26.7648 24.3956 26.7648 24.4534C26.7073 25.1276 26.5634 25.8596 26.3332 26.6493C26.1126 27.4295 25.7961 28.1518 25.3837 28.8164C25.2974 28.9608 25.1679 29.0331 24.9952 29.0331C24.8897 29.0331 24.7938 29.0042 24.7075 28.9464C24.5636 28.8404 24.4917 28.7008 24.4917 28.5274C24.4917 28.4215 24.5205 28.3252 24.578 28.2385C24.8753 27.7377 25.1103 27.2079 25.283 26.6493C25.4556 26.0907 25.5803 25.5562 25.657 25.0457C25.7434 24.5256 25.7865 24.0922 25.7865 23.7455V21.7952ZM22.0028 20.7839C21.8877 20.7646 21.7917 20.7068 21.715 20.6105C21.6383 20.5142 21.5999 20.4083 21.5999 20.2927C21.5999 20.129 21.6479 19.9989 21.7438 19.9026C21.8493 19.7967 21.9692 19.7437 22.1035 19.7437C22.161 19.7437 22.2042 19.7485 22.2329 19.7582C22.5111 19.8159 22.8036 19.8882 23.1106 19.9749C23.4271 20.0615 23.734 20.1579 24.0313 20.2638C24.2903 20.3794 24.4198 20.5672 24.4198 20.8272C24.4198 20.9813 24.367 21.1065 24.2615 21.2028C24.156 21.2895 24.0361 21.3329 23.9018 21.3329C23.8731 21.3329 23.8443 21.3329 23.8155 21.3329C23.7867 21.3232 23.758 21.3136 23.7292 21.304C23.4606 21.2077 23.1729 21.1162 22.866 21.0295C22.5686 20.9332 22.2809 20.8513 22.0028 20.7839ZM29.8868 28.4263C29.9923 28.4263 30.0834 28.4311 30.1602 28.4407C30.2465 28.4504 30.3232 28.4552 30.3903 28.4552C30.6014 28.4552 30.7069 28.4215 30.7069 28.3541V26.5482C30.7069 26.4904 30.6781 26.4615 30.6205 26.4615H29.3833C29.249 26.4615 29.1291 26.4134 29.0236 26.317C28.9277 26.2111 28.8797 26.0907 28.8797 25.9559C28.8797 25.821 28.9277 25.7055 29.0236 25.6092C29.1291 25.5032 29.249 25.4502 29.3833 25.4502H30.6205C30.6781 25.4502 30.7069 25.4213 30.7069 25.3636V24.7857C30.7069 24.6508 30.7548 24.5353 30.8507 24.439C30.9562 24.333 31.0761 24.28 31.2104 24.28C31.3734 24.28 31.5029 24.3426 31.5988 24.4678C31.6276 24.5353 31.6612 24.5401 31.6996 24.4823C31.7763 24.3763 31.8482 24.2704 31.9154 24.1645C31.9921 24.0489 32.0544 23.9381 32.1024 23.8322C32.1408 23.7648 32.1168 23.7311 32.0305 23.7311H29.671C29.5367 23.7311 29.4216 23.6829 29.3257 23.5866C29.2298 23.4806 29.1818 23.3651 29.1818 23.2399C29.1818 23.105 29.2298 22.9894 29.3257 22.8931C29.4216 22.7968 29.5367 22.7487 29.671 22.7487H32.6779C32.8601 22.7487 33.0136 22.8113 33.1382 22.9365C33.2725 23.0521 33.3397 23.1917 33.3397 23.3554C33.3397 23.3843 33.3349 23.4132 33.3253 23.4421C33.3253 23.4614 33.3205 23.4855 33.3109 23.5144C33.2054 23.8514 33.0615 24.1789 32.8793 24.4967C32.7066 24.8146 32.51 25.0987 32.2894 25.3491C32.2415 25.4165 32.2606 25.4502 32.347 25.4502H33.2677C33.402 25.4502 33.5171 25.5032 33.613 25.6092C33.7185 25.7055 33.7713 25.821 33.7713 25.9559C33.7713 26.0907 33.7185 26.2111 33.613 26.317C33.5171 26.4134 33.402 26.4615 33.2677 26.4615H31.7859C31.7283 26.4615 31.6996 26.4904 31.6996 26.5482V28.4407C31.6996 28.7778 31.5557 29.0379 31.2679 29.2209C30.9898 29.4039 30.5246 29.4809 29.8724 29.452C29.7381 29.4424 29.623 29.3846 29.5271 29.2787C29.4312 29.1727 29.3833 29.0523 29.3833 28.9175C29.3833 28.7827 29.4312 28.6671 29.5271 28.5708C29.6326 28.4745 29.7525 28.4263 29.8868 28.4263ZM27.9733 30.3044H33.239C33.3828 30.3044 33.5075 30.3574 33.613 30.4633C33.7185 30.5692 33.7713 30.6945 33.7713 30.8389C33.7713 30.993 33.7185 31.1182 33.613 31.2145C33.5075 31.3205 33.3828 31.3735 33.239 31.3735H27.9733C27.0813 31.3735 26.2997 31.2723 25.6283 31.0701C24.9569 30.8678 24.3862 30.4874 23.9162 29.9288C23.8874 29.8806 23.8491 29.8854 23.8011 29.9432C23.5997 30.2418 23.3551 30.5259 23.0674 30.7956C22.7797 31.0653 22.4679 31.2916 22.1322 31.4746C22.0843 31.5131 22.0171 31.5324 21.9308 31.5324C21.7294 31.5324 21.5855 31.4312 21.4992 31.229C21.4704 31.1519 21.4561 31.0845 21.4561 31.0267C21.4561 30.8052 21.5568 30.6319 21.7582 30.5066C22.0843 30.2755 22.372 30.0106 22.6214 29.7121C22.8708 29.4039 23.0722 29.086 23.2256 28.7586C23.2448 28.7297 23.2544 28.6912 23.2544 28.643V25.6814C23.2544 25.6236 23.2256 25.5947 23.1681 25.5947H22.1179C21.974 25.5947 21.8493 25.5465 21.7438 25.4502C21.6479 25.3443 21.5999 25.2143 21.5999 25.0602C21.5999 24.9157 21.6479 24.7905 21.7438 24.6845C21.8493 24.5786 21.974 24.5256 22.1179 24.5256H23.4415C23.6908 24.5256 23.897 24.6123 24.0601 24.7857C24.2231 24.9494 24.3047 25.1517 24.3047 25.3924V28.513C24.3047 28.5419 24.3143 28.5756 24.3334 28.6141C24.602 29.0764 24.9089 29.4328 25.2542 29.6832C25.6091 29.924 26.0119 30.0877 26.4627 30.1744C26.9135 30.261 27.417 30.3044 27.9733 30.3044Z" fill="#7AACBF"/>
</svg>
